<?xml version="1.0" encoding="UTF-8"?>
<!DOCTYPE svg PUBLIC "-//W3C//DTD SVG 1.1//EN" "http://www.w3.org/Graphics/SVG/1.1/DTD/svg11.dtd">
<!-- Creator: CorelDRAW 2019 (64-Bit) -->
<svg xmlns="http://www.w3.org/2000/svg" xml:space="preserve" width="79.7278mm" height="39.8638mm" version="1.1" style="shape-rendering:geometricPrecision; text-rendering:geometricPrecision; image-rendering:optimizeQuality; fill-rule:evenodd; clip-rule:evenodd"
viewBox="0 0 7972.78 3986.38"
 xmlns:xlink="http://www.w3.org/1999/xlink"
 xmlns:xodm="http://www.corel.com/coreldraw/odm/2003">
 <defs>
  <style type="text/css">
   <![CDATA[
    .fil0 {fill:#60B238;fill-rule:nonzero}
    .fil1 {fill:#373435;fill-rule:nonzero}
   ]]>
  </style>
 </defs>
 <g id="Слой_x0020_1">
  <metadata id="CorelCorpID_0Corel-Layer"/>
  <polygon class="fil0" points="2290.34,2211.82 2154.6,2211.82 2154.6,1731.91 2643.26,1731.91 2643.26,2211.82 2507.55,2211.82 2507.55,1825.14 2290.34,1825.14 "/>
  <path class="fil0" d="M2709.09 1863.52l0 475.15 125.09 0 0 -162.49c41.92,45.27 110.21,48.69 126.67,48.69 119.3,0 192.51,-76.13 192.51,-186.51 0,-115.17 -72.41,-187.84 -190.03,-187.84 -29.65,0 -87.23,4.8 -134.95,54.86l-2.46 0 0.81 -41.86 -117.64 0zm119.29 173.46c0,-97.33 60.08,-116.52 97.93,-116.52 37.02,0 97.07,19.19 97.07,116.52 0,60.36 -25.49,117.97 -97.07,117.97 -73.22,0 -97.93,-57.61 -97.93,-117.97z"/>
  <path class="fil0" d="M3463.49 2170.03c-46.05,43.16 -90.42,54.84 -139.83,54.84 -134.92,0 -139.88,-101.48 -139.88,-143.29l0 -218.06 125.06 0 0 201.58c0,69.27 23.92,89.85 69.95,89.85 78.94,0 84.7,-70.63 84.7,-96l0 -195.43 125.11 0 0 348.3 -125.11 0 0 -41.79z"/>
  <path class="fil0" d="M3767.95 2065.1l76.52 0c59.19,0 71.54,17.84 71.54,41.16 0,15.07 -8.26,35.65 -69.99,35.65l-78.07 0 0 -76.81zm-125.06 -201.58l0 348.3 248.46 0c90.49,0 153,-17.82 153,-89.12 0,-54.85 -30.48,-78.84 -99.55,-91.17l0 -2.07c45.26,-6.17 84.77,-34.29 84.77,-81.58 0,-84.36 -98.74,-84.36 -137.41,-84.36l-249.27 0zm125.06 69.97l67.41 0c35.39,0 65.8,5.48 65.8,34.25 0,31.57 -47.7,32.25 -68.26,32.25l-64.95 0 0 -66.5z"/>
  <path class="fil0" d="M4202.29 1975.98c0,-51.42 54.29,-55.52 76.52,-55.52 14,0 65.79,0.69 67.48,45.93 0,3.43 0,6.17 0,9.59 -2.47,34.28 -35.38,27.43 -127.49,39.08 -75.74,10.28 -155.54,29.46 -155.54,109.02 0,28.8 12.35,100.79 145.63,100.79 51.04,0 106.99,-13.05 139.84,-47.31l2.54 0 10.65 34.26 131.62 0 0 -6.15c-23.85,-4.81 -25.5,-28.11 -24.69,-65.83l2.47 -159.08c0.84,-40.42 -3.28,-130.24 -191.67,-130.24 -45.26,0 -190.88,4.1 -196.64,125.46l119.28 0zm144.81 91.87c0,69.94 -60.89,87.1 -91.29,87.1 -23.08,0 -64.21,-7.57 -64.21,-40.46 0,-39.1 46.88,-46.64 73.24,-50.07 48.54,-6.86 44.41,-4.79 82.26,-18.52l0 21.95z"/>
  <polygon class="fil0" points="4485.32,1933.49 4485.32,1863.52 4886.78,1863.52 4886.78,1933.49 4748.57,1933.49 4748.57,2211.82 4623.54,2211.82 4623.54,1933.49 "/>
  <path class="fil0" d="M5046.42 1825.14l311.78 0 0 -93.23 -447.57 0 0 479.91 274.78 0c133.31,0 218.83,-46.59 218.83,-144.66 0,-153.55 -171.1,-157 -218.83,-157l-138.99 0 0 -85.02zm0 178.27l112.67 0c32.99,0 98.75,3.44 98.75,61.01 0,45.26 -47.74,54.16 -101.18,54.16l-110.24 0 0 -115.17z"/>
  <path class="fil0" d="M5567.19 1975.98c0,-51.42 54.32,-55.52 76.48,-55.52 14,0 65.86,0.69 67.52,45.93 0,3.43 0,6.17 0,9.59 -2.5,34.28 -35.38,27.43 -127.6,39.08 -75.64,10.28 -155.43,29.46 -155.43,109.02 0,28.8 12.31,100.79 145.59,100.79 51.01,0 106.96,-13.05 139.87,-47.31l2.44 0 10.72 34.26 131.62 0 0 -6.15c-23.77,-4.81 -25.5,-28.11 -24.65,-65.83l2.46 -159.08c0.82,-40.42 -3.31,-130.24 -191.73,-130.24 -45.19,0 -190.85,4.1 -196.6,125.46l119.31 0zm144.78 91.87c0,69.94 -60.89,87.1 -91.3,87.1 -23.04,0 -64.17,-7.57 -64.17,-40.46 0,-39.1 46.85,-46.64 73.16,-50.07 48.58,-6.86 44.45,-4.79 82.31,-18.52l0 21.95z"/>
  <polygon class="fil0" points="6014.72,2211.82 5889.66,2211.82 5889.66,1863.52 6014.72,1863.52 6014.72,1994.49 6165.29,1994.49 6165.29,1863.52 6290.35,1863.52 6290.35,2211.82 6165.29,2211.82 6165.29,2064.42 6014.72,2064.42 "/>
  <polygon class="fil0" points="6606.26,1863.52 6745.25,1863.52 6573.34,2026.69 6753.51,2211.82 6607.03,2211.82 6472.13,2059.63 6469.7,2059.63 6469.7,2211.82 6344.67,2211.82 6344.67,1863.52 6469.7,1863.52 6469.7,2003.41 6472.13,2003.41 "/>
  <polygon class="fil1" points="1246.41,2213.07 1559.64,2213.07 1559.64,1899.84 1246.41,1899.84 "/>
  <path class="fil0" d="M1882.29 1577.64c0,106.51 0,363.39 0,469.9 -29.75,0 -34.99,0 -63.9,0 -27.59,-232.39 -173.61,-378.37 -406.04,-405.96 0,-28.91 0,-34.13 0,-63.94 106.52,0 363.42,0 469.94,0zm-635.55 -165.59l0 389.87 82.83 0c217.97,0 328.49,110.5 328.49,328.4l0 82.83 389.84 0 0 -801.1 -801.16 0z"/>
 </g>
</svg>
