<?xml version="1.0" encoding="iso-8859-1"?>
<!-- Generator: Adobe Illustrator 18.0.0, SVG Export Plug-In . SVG Version: 6.00 Build 0)  -->
<!DOCTYPE svg PUBLIC "-//W3C//DTD SVG 1.1//EN" "http://www.w3.org/Graphics/SVG/1.1/DTD/svg11.dtd">
<svg version="1.1" id="Capa_1" xmlns="http://www.w3.org/2000/svg" xmlns:xlink="http://www.w3.org/1999/xlink" x="0px" y="0px"
	 viewBox="0 0 220 220" style="enable-background:new 0 0 220 220;" xml:space="preserve">
<g>
	<path d="M110,0C49.346,0,0,49.346,0,110s49.346,110,110,110s110-49.346,110-110S170.654,0,110,0z M110,210
		c-55.141,0-100-44.86-100-100S54.859,10,110,10s100,44.86,100,100S165.141,210,110,210z"/>
	<path d="M110,19.5c-49.902,0-90.5,40.598-90.5,90.5s40.598,90.5,90.5,90.5s90.5-40.598,90.5-90.5S159.902,19.5,110,19.5z
		 M110,197.5c-48.248,0-87.5-39.252-87.5-87.5S61.752,22.5,110,22.5s87.5,39.252,87.5,87.5S158.248,197.5,110,197.5z"/>
	<polygon points="99.383,112.131 116.354,112.131 120.616,107.87 103.645,107.87 	"/>
	<path d="M110,154c-0.328,0-0.653-0.008-0.982-0.025c-5.756-0.292-10.452-3.739-12.562-9.222c-1.71-4.441-1.729-10.995,3.341-16.065
		l4.688-4.687H88.157c-5.043,7.266-6.202,16.482-2.9,25.063c3.807,9.891,12.679,16.366,23.147,16.896
		c0.528,0.027,1.061,0.041,1.596,0.041c17.094,0,31-13.907,31-31h-12C129,145.477,120.477,154,110,154z"/>
	<path d="M110,66c0.328,0,0.653,0.008,0.982,0.025c5.756,0.292,10.452,3.739,12.562,9.222c1.71,4.441,1.729,10.995-3.341,16.065
		L115.515,96h16.328c5.043-7.266,6.203-16.482,2.9-25.063c-3.807-9.891-12.679-16.366-23.147-16.896
		C111.067,54.014,110.535,54,110,54c-17.094,0-31,13.907-31,31h12C91,74.523,99.523,66,110,66z"/>
	<rect x="81.5" y="114.131" width="57" height="7.869"/>
	<rect x="81.5" y="98" width="57" height="7.869"/>
</g>
<g>
</g>
<g>
</g>
<g>
</g>
<g>
</g>
<g>
</g>
<g>
</g>
<g>
</g>
<g>
</g>
<g>
</g>
<g>
</g>
<g>
</g>
<g>
</g>
<g>
</g>
<g>
</g>
<g>
</g>
</svg>
