<svg xmlns="http://www.w3.org/2000/svg" viewBox="0 0 160 127"><defs><style>.cls-1,.cls-6{fill:#231f20;}.cls-2{fill:#6d6e71;}.cls-2,.cls-7{stroke:#231f20;}.cls-2,.cls-3,.cls-7{stroke-miterlimit:10;}.cls-3{fill:none;stroke:#58595b;}.cls-4{fill:#eb1d25;}.cls-5{fill:#80d4f7;}.cls-6{opacity:0.3;}.cls-7{fill:#414042;}</style></defs><g id="Layer_9" data-name="Layer 9"><path class="cls-1" d="M83.89,20.49c17.73,0,31.74,14,35.87,30.89,5.23,21.3-4,42.46-19.58,48.72L92.42,103a31.26,31.26,0,0,1-14.5,3.56C61.05,106.51,45.06,93,40.2,73.22c-5.47-22.23,5.23-44,24-49.36v-.08l.94-.19.13,0c.92-.23,1.85-.4,2.78-.54,4.46-.88,11.23-2.21,11.5-2.25a36.13,36.13,0,0,1,4.37-.28m0-1.5a35,35,0,0,0-4.56.3c-.11,0-.36,0-11.56,2.25-1.08.17-2,.35-2.89.56l-.12,0-.88.18-1.1.22,0,.18c-9,2.88-16.47,9.53-21,18.83a47.44,47.44,0,0,0-3,32C43.65,93.53,60.13,108,77.92,108a32.53,32.53,0,0,0,7.86-1A32.89,32.89,0,0,0,93,104.33l7.67-2.82c16.81-6.75,25.81-28.92,20.52-50.49-4.63-18.86-20-32-37.33-32Z"/><path class="cls-2" d="M119.76,51.38C115.3,33.17,99.29,18.24,79.52,20.77c-.4.06-15.35,3-15.35,3l-.62,6.92c-6.78,9.68-9.57,23.74-6.44,38,3.33,15.2,12.56,26.72,23.5,31.22l5.13,5.53,14.44-5.31C115.77,93.84,125,72.68,119.76,51.38Z"/><ellipse class="cls-2" cx="75.33" cy="64.58" rx="36.18" ry="42.24" transform="translate(-13.25 19.87) rotate(-13.82)"/><ellipse class="cls-3" cx="70.03" cy="72.13" rx="21.14" ry="24.69" transform="translate(-15.21 18.82) rotate(-13.82)"/><ellipse class="cls-3" cx="70.03" cy="72.13" rx="15.6" ry="18.21" transform="translate(-15.21 18.82) rotate(-13.82)"/><path class="cls-4" d="M71.22,40.37a1.65,1.65,0,0,1-1.49-1.7l-.51-6.77a2.35,2.35,0,0,1,1.7-2.56,28.55,28.55,0,0,1,2.92-.15c.64,0,1.29,0,1.93.07a1.3,1.3,0,0,1,1,.54,2.35,2.35,0,0,1,.37,1.88l-1.3,6.79A2.09,2.09,0,0,1,74,40.32c-.36,0-.66,0-1,0-.55,0-1.12,0-1.67.06Z"/><path class="cls-1" d="M73.84,29.69c.63,0,1.27,0,1.9.07a.78.78,0,0,1,.58.34,1.84,1.84,0,0,1,.28,1.48l-1.3,6.8a1.61,1.61,0,0,1-1.37,1.44h0c-.31,0-.62,0-.92,0-.57,0-1.15,0-1.72.06h-.07c-.53,0-.94-.51-1-1.24l-.51-6.77a1.85,1.85,0,0,1,1.25-2,27.59,27.59,0,0,1,2.87-.15m0-1a26.61,26.61,0,0,0-3,.16,2.79,2.79,0,0,0-2.14,3.09l.5,6.77a2.12,2.12,0,0,0,2,2.16h.15c.54,0,1.09-.06,1.64-.06.29,0,.58,0,.88,0H74a2.58,2.58,0,0,0,2.32-2.25l1.3-6.8c.29-1.52-.53-2.93-1.79-3-.65-.05-1.31-.07-2-.07Z"/><path class="cls-5" d="M58.92,44.88a1.35,1.35,0,0,1-1.2-.79l-3-5.48a2.59,2.59,0,0,1,.71-3.17,34.65,34.65,0,0,1,9.26-4.76,1.47,1.47,0,0,1,.41-.07c.76,0,1.37.73,1.45,1.72l.5,6.76a2.42,2.42,0,0,1-1.41,2.48,25.94,25.94,0,0,0-5.9,3,1.51,1.51,0,0,1-.86.29Z"/><path class="cls-1" d="M65.14,31.11c.49,0,.9.54,1,1.26l.5,6.76a1.93,1.93,0,0,1-1.08,2,26.51,26.51,0,0,0-6,3.08,1,1,0,0,1-.58.2.88.88,0,0,1-.76-.52l-3-5.49a2.14,2.14,0,0,1,.56-2.53,34.17,34.17,0,0,1,9.12-4.68.85.85,0,0,1,.26-.05m0-1a1.63,1.63,0,0,0-.57.1A35,35,0,0,0,55.18,35a3.12,3.12,0,0,0-.86,3.82l3,5.48a1.86,1.86,0,0,0,1.65,1.05A2,2,0,0,0,60.07,45a25.18,25.18,0,0,1,5.77-3,2.94,2.94,0,0,0,1.75-3l-.5-6.77a2.15,2.15,0,0,0-2-2.18Z"/><path class="cls-4" d="M97.43,64.12A1.58,1.58,0,0,1,96,62.63a32.62,32.62,0,0,0-2-6.9,2.62,2.62,0,0,1,.66-2.9l4.78-4.09a1.58,1.58,0,0,1,1-.4,1.41,1.41,0,0,1,1.28.94,44.83,44.83,0,0,1,3.08,10.92,2.39,2.39,0,0,1-1.56,2.69l-5.58,1.2A1.24,1.24,0,0,1,97.43,64.12Z"/><path class="cls-1" d="M100.48,48.84a.93.93,0,0,1,.82.64,43.72,43.72,0,0,1,3,10.8,1.9,1.9,0,0,1-1.16,2.12L97.6,63.6a.55.55,0,0,1-.18,0c-.45,0-.83-.43-.94-1.08a33.75,33.75,0,0,0-2-7A2.14,2.14,0,0,1,95,53.21l4.77-4.09a1.06,1.06,0,0,1,.69-.28m0-1a2.1,2.1,0,0,0-1.34.52l-4.77,4.09a3.16,3.16,0,0,0-.81,3.47,31.68,31.68,0,0,1,1.93,6.79,2.08,2.08,0,0,0,1.93,1.91,1.72,1.72,0,0,0,.39,0l5.58-1.2a2.88,2.88,0,0,0,1.94-3.25,45.32,45.32,0,0,0-3.11-11.05,1.9,1.9,0,0,0-1.74-1.24Z"/><path class="cls-4" d="M82.39,42.38a1.34,1.34,0,0,1-.55-.13,21.92,21.92,0,0,0-2.39-.94A2,2,0,0,1,78.38,39l1.3-6.8a2.08,2.08,0,0,1,1.8-1.85,1,1,0,0,1,.34.05,27.63,27.63,0,0,1,4.5,1.76,2.25,2.25,0,0,1,.62,3l-3,6.14a1.85,1.85,0,0,1-1.58,1.16Z"/><path class="cls-1" d="M81.48,30.8a.69.69,0,0,1,.2,0,27,27,0,0,1,4.42,1.73,1.79,1.79,0,0,1,.39,2.3l-3,6.14a1.4,1.4,0,0,1-1.13.88.81.81,0,0,1-.34-.08,21.45,21.45,0,0,0-2.45-1,1.53,1.53,0,0,1-.73-1.8l1.3-6.79a1.62,1.62,0,0,1,1.31-1.45m0-1a2.58,2.58,0,0,0-2.29,2.26l-1.3,6.8a2.48,2.48,0,0,0,1.41,2.93,19.44,19.44,0,0,1,2.33.92,1.83,1.83,0,0,0,.76.17,2.34,2.34,0,0,0,2-1.44l3-6.14a2.76,2.76,0,0,0-.85-3.64A28.82,28.82,0,0,0,82,29.87a1.59,1.59,0,0,0-.48-.07Z"/><path class="cls-4" d="M92.19,50.86a1.38,1.38,0,0,1-1.13-.64,24.75,24.75,0,0,0-4.39-4.87,2.39,2.39,0,0,1-.4-2.8l3-6.14a1.92,1.92,0,0,1,1.59-1.18,1.24,1.24,0,0,1,.77.28,33.4,33.4,0,0,1,6.88,7.66,2.58,2.58,0,0,1-.52,3.2l-4.78,4.09A1.55,1.55,0,0,1,92.19,50.86Z"/><path class="cls-1" d="M90.83,35.73a.68.68,0,0,1,.45.17,32.6,32.6,0,0,1,6.78,7.54A2.11,2.11,0,0,1,97.64,46l-4.79,4.09a1,1,0,0,1-.66.28.88.88,0,0,1-.72-.43A25.11,25.11,0,0,0,87,45a1.91,1.91,0,0,1-.27-2.2l3-6.14a1.43,1.43,0,0,1,1.14-.9m0-1a2.39,2.39,0,0,0-2,1.47l-3,6.13a2.88,2.88,0,0,0,.53,3.4,24.56,24.56,0,0,1,4.3,4.77,1.85,1.85,0,0,0,1.54.86,2,2,0,0,0,1.31-.52l4.79-4.09a3.11,3.11,0,0,0,.61-3.86,33.84,33.84,0,0,0-7-7.77,1.73,1.73,0,0,0-1.08-.39Z"/><path class="cls-4" d="M103.17,75.66l-.22,0-5.42-1a1.87,1.87,0,0,1-1.23-2.19c.1-1,.16-2.1.18-3.12A2.34,2.34,0,0,1,98.06,67l5.56-1.2a1.43,1.43,0,0,1,.29,0,1.29,1.29,0,0,1,.92.4,2.12,2.12,0,0,1,.55,1.49,52,52,0,0,1-.37,5.94,2.15,2.15,0,0,1-1.84,2Z"/><path class="cls-1" d="M103.9,66.31a.85.85,0,0,1,.58.25,1.66,1.66,0,0,1,.4,1.14,50.72,50.72,0,0,1-.37,5.88,1.64,1.64,0,0,1-1.34,1.58H103l-5.42-1c-.55-.09-.91-.82-.83-1.64.11-1,.17-2.11.19-3.16a1.88,1.88,0,0,1,1.18-1.84l5.57-1.2.17,0m0-1a1.69,1.69,0,0,0-.38,0L98,66.55a2.85,2.85,0,0,0-2,2.81c0,1-.08,2-.18,3.07a2.36,2.36,0,0,0,1.64,2.73l5.42,1,.31,0a2.61,2.61,0,0,0,2.33-2.46,51.15,51.15,0,0,0,.38-6,2.17,2.17,0,0,0-2-2.39Z"/><path class="cls-6" d="M68.47,33.37l1.19-2s.83-.9,3.31-.34S83,61,84,66.74,72.13,82.48,72.13,82.48Z"/><path class="cls-7" d="M75.58,73.62c.21-.92-4.9-39.27-4.9-39.27l-2.32-.43a4.57,4.57,0,0,0-5.12,3c-5.57,15.47-5.87,35.57-5.87,35.57.88,13.7,12.32,9.8,14.53,9.26C74.31,81.18,75.58,73.62,75.58,73.62Z"/><path class="cls-1" d="M65.6,37.85C64.08,45.77,61.79,68.48,61.79,70s2.14,2.59,2.14,2.59l2,.15Z"/></g></svg>