<svg xmlns="http://www.w3.org/2000/svg" viewBox="0 0 160 127"><defs><style>.cls-1{fill:#eb1d25;}.cls-2{fill:#231f20;}.cls-3{fill:#991c1f;}.cls-4{fill:#c6202c;}.cls-5{fill:#c0dae8;}.cls-6{fill:none;}.cls-7{fill:#fff;}</style></defs><g id="body_parts" data-name="body parts"><path class="cls-1" d="M114.75,38a3.33,3.33,0,0,1,1.73,2.91V77.64c0,.35-3.92,21.55-4.83,26.5a1.82,1.82,0,0,1-1.18,1.39l-.64.24a1.83,1.83,0,0,1-1.55-.13L51.35,73.27A3.85,3.85,0,0,1,49.54,71L43.79,51.87a6.47,6.47,0,0,1-.27-1.95c0-2.58.2-9.57.39-14,.24-5.51,30.44-13.64,33.77-14.46,6.32-1.58,11.67,2.71,11.67,2.71Z"/><path class="cls-2" d="M52.65,35.93l28.09-9.58a1.39,1.39,0,0,1,1,.08l28.74,15.13a1.3,1.3,0,0,1,.7,1.15v26.7a1.31,1.31,0,0,1-2,1.14L52.42,38.3A1.3,1.3,0,0,1,52.65,35.93Z"/><path class="cls-3" d="M113.7,81.6l-70-40.94c-.05,1.75-.09,3.53-.13,5.11L113,85.43l2.39-1.71.67-3.69Z"/><path class="cls-3" d="M47.69,64.83l62.55,35.75,2.38-1.7c.12-.64.24-1.31.37-2l-2.38,1.57L46.52,60.94Z"/><path class="cls-3" d="M104.88,85.43a1.07,1.07,0,0,1-.51-.13l-5.52-2.93a2,2,0,0,1-.44-2.13,1.07,1.07,0,0,1,1.45-.44l5.53,2.93a1.08,1.08,0,0,1,.45,1.46C105.64,84.55,105.26,85.43,104.88,85.43Z"/><path class="cls-4" d="M49.54,71a3.85,3.85,0,0,0,1.81,2.28l56.93,32.37a1.83,1.83,0,0,0,1.55.13l.64-.24a1.82,1.82,0,0,0,1.18-1.39l1-5.26-2.38,1.7L47.69,64.83"/><path class="cls-3" d="M114.75,38l-25.4-13.8S84,19.89,77.68,21.47L75.62,22c6.26-1.49,11.54,2.74,11.54,2.74l25.4,13.8a3.31,3.31,0,0,1,1.73,2.91V78.2c0,.36-3.91,21.55-4.83,26.51a1.82,1.82,0,0,1-.69,1.11,1.82,1.82,0,0,0,1.06,0l.64-.24a1.82,1.82,0,0,0,1.18-1.39c.91-5,4.83-26.15,4.83-26.5V40.89A3.33,3.33,0,0,0,114.75,38Z"/><path class="cls-2" d="M105.42,84.38a.46.46,0,0,0,0-.79l-6.2-3.25c.84,1.07.2,1.46,1.3,2.33a17.66,17.66,0,0,0,3.42,2A1.57,1.57,0,0,0,105.42,84.38Z"/><path class="cls-2" d="M80.53,21.12a15.58,15.58,0,0,1,8.82,3.06L114.75,38a3.33,3.33,0,0,1,1.73,2.91V77.64c0,.35-3.92,21.55-4.83,26.5a1.82,1.82,0,0,1-1.18,1.39l-.64.24a2,2,0,0,1-.64.11,1.85,1.85,0,0,1-.91-.24L51.35,73.27A3.85,3.85,0,0,1,49.54,71L43.79,51.87a6.47,6.47,0,0,1-.27-1.95c0-2.58.2-9.57.39-14,.24-5.51,30.44-13.64,33.77-14.46a11.45,11.45,0,0,1,2.85-.35m0-1.5h0a13.24,13.24,0,0,0-3.21.39c-1.83.45-10.26,2.72-18.18,5.52C44.49,30.7,42.51,33.77,42.41,35.86c-.19,4.41-.33,11.28-.39,14a7.93,7.93,0,0,0,.34,2.41L48.1,71.43a5.37,5.37,0,0,0,2.51,3.14l56.93,32.37a3.32,3.32,0,0,0,1.65.44,3.49,3.49,0,0,0,1.16-.2l.63-.24a3.33,3.33,0,0,0,2.14-2.52C118,78.15,118,77.84,118,77.64V40.89a4.81,4.81,0,0,0-2.52-4.22L90.17,22.92a17.06,17.06,0,0,0-9.64-3.3Z"/><polygon class="cls-5" points="54.2 37.27 81.13 28.1 109.44 43 109.44 68.61 54.2 37.27"/><path class="cls-2" d="M81.08,28.64,108.94,43.3V67.76L55.41,37.39l25.67-8.75m.09-1.09-.41.14L55.09,36.44,53,37.16l1.94,1.1,53.53,30.37,1.49.84V42.69l-.53-.28L81.55,27.75l-.38-.2Z"/><path class="cls-6" d="M108.94,43.3,81.08,28.64,55.41,37.39l53.53,30.37Z"/><path class="cls-7" d="M83.51,29.91C63.65,40.5,63.46,40.73,63,41.36l1.42,1.12,5.13,2.91c3.74-2,12.39-6.68,21.49-11.53Z"/><path class="cls-7" d="M93.19,35c-11,5.83-17.56,9.36-21.58,11.56L81.89,52.4c6.13-3.29,14.2-7.6,22-11.76Z"/><path class="cls-7" d="M87.14,55.39c6.19-3.32,14.08-7.53,21.8-11.65V43.3l-1.72-.91C97,47.82,90,51.6,85.09,54.22Z"/><path class="cls-7" d="M92.83,58.61c4.76-2.55,10.38-5.56,16.11-8.61V45.46c-9.13,4.87-15.62,8.33-20.23,10.82Z"/></g></svg>