<svg xmlns="http://www.w3.org/2000/svg" viewBox="0 0 160 127"><defs><style>.cls-1{fill:#2b3990;}.cls-2{fill:#231f20;}.cls-3{fill:#c4dce8;}.cls-3,.cls-4,.cls-5,.cls-6,.cls-7,.cls-8{stroke:#231f20;stroke-miterlimit:10;}.cls-4{fill:#fff;}.cls-5{fill:#3f3d3e;}.cls-6{fill:#58595b;}.cls-7{fill:#e25350;}.cls-8{fill:#eb1d25;}.cls-9{fill:#fdba17;}.cls-10{fill:#d1d3d4;}</style></defs><g id="steering_wheel" data-name="steering wheel"><path class="cls-1" d="M90.37,113.76c-12.63,0-27.51-12.7-36.18-30.89A72.16,72.16,0,0,1,48.29,65h-.17c-2.71-.19-8.86-5.39-9.87-8.94a26.68,26.68,0,0,1-.34-11.18,65,65,0,0,1,.94-6.8,21,21,0,0,1,4-8.87c6.76-11.7,25.3-15.88,25.48-15.91a1.55,1.55,0,0,1,.31,0c2.19,0,8.09,4.91,11.25,13.93,12.3,3,24.22,13.93,31.19,28.55,10.72,22.47,6.67,46.84-9,54.33a23.08,23.08,0,0,1-2.47,1,15.84,15.84,0,0,1-2,1.12,16.86,16.86,0,0,1-7.29,1.6Z"/><path class="cls-2" d="M68.68,14c1.8,0,7.66,4.84,10.68,13.81C91.17,30.55,103.24,40.94,110.45,56c10.55,22.14,6.67,46-8.68,53.33a21,21,0,0,1-2.48,1,15.64,15.64,0,0,1-2,1.12,16,16,0,0,1-7,1.53C78.28,113,63.65,101,54.87,82.55a71.81,71.81,0,0,1-5.95-18.31c-.25,0-.51,0-.75,0-2.26-.16-8.23-5-9.2-8.39A26.26,26.26,0,0,1,38.65,45a67.73,67.73,0,0,1,.93-6.77,20.48,20.48,0,0,1,3.91-8.56c6.39-11,23.51-15.32,25-15.63h.16m0-1.5a2.32,2.32,0,0,0-.46,0,56.52,56.52,0,0,0-11,3.9c-7.08,3.34-12.11,7.5-15,12.37a21.88,21.88,0,0,0-4.12,9.11,66.59,66.59,0,0,0-1,6.88,27.57,27.57,0,0,0,.36,11.45c.74,2.57,3.45,5.14,4.58,6.13.8.7,3.46,2.9,5.56,3.3a73.53,73.53,0,0,0,5.85,17.52c8.8,18.44,24,31.32,36.86,31.32A17.59,17.59,0,0,0,98,112.84a17.34,17.34,0,0,0,2-1.12,22.89,22.89,0,0,0,2.46-1c16.07-7.67,20.29-32.49,9.39-55.33-7-14.66-18.92-25.64-31.3-28.86-3.13-8.6-9-14-11.82-14Z"/><ellipse class="cls-3" cx="82.66" cy="69.3" rx="30.79" ry="44.4" transform="translate(-21.78 42.33) rotate(-25.49)"/><ellipse class="cls-4" cx="78.23" cy="71.41" rx="25.88" ry="44.4" transform="translate(-23.12 40.63) rotate(-25.49)"/><ellipse class="cls-5" cx="78.23" cy="71.41" rx="16.17" ry="27.73" transform="translate(-23.12 40.63) rotate(-25.49)"/><ellipse class="cls-6" cx="78.23" cy="71.41" rx="14.89" ry="25.55" transform="translate(-23.12 40.63) rotate(-25.49)"/><ellipse class="cls-5" cx="78.23" cy="71.41" rx="8.69" ry="14.91" transform="translate(-23.12 40.63) rotate(-25.49)"/><ellipse class="cls-3" cx="78.23" cy="71.41" rx="7.18" ry="12.31" transform="translate(-23.12 40.63) rotate(-25.49)"/><path class="cls-4" d="M76.83,60.22a18.48,18.48,0,0,0,1.87,7.33c2,4.14,5,7.11,7.89,8.09a18.59,18.59,0,0,0-1.88-7.32C82.74,64.17,79.7,61.2,76.83,60.22Z"/><path class="cls-7" d="M63.55,29.22A23.8,23.8,0,0,1,79.36,27.8C76.24,18.55,70.11,13.68,68.52,14s-21,5.17-26.16,17.93S38,52.44,39,55.83s6.94,8.23,9.2,8.39c.38,0,.79,0,1.21,0C47.33,48.53,52.42,34.52,63.55,29.22Z"/><path class="cls-8" d="M48.17,63.61c2.5.11,4.89-.24,4.77-3s-1.43-7.72,2.38-14.5,6.92-5.94,9.31-6.41,2.86-5.7.83-10.33-7.75-9.39-11.57-8S41.37,28.68,39.58,38.19s-1.07,15.32-.24,18.17S45.67,63.49,48.17,63.61Z"/><path class="cls-9" d="M61.14,37.55c-2.09,0-4.28-1.66-5.46-4.14a7.78,7.78,0,0,1-.75-4.59,4.22,4.22,0,0,1,2.24-3.28,3.73,3.73,0,0,1,1.59-.35c2.09,0,4.29,1.66,5.47,4.14,1.53,3.21.86,6.74-1.5,7.87A3.7,3.7,0,0,1,61.14,37.55Z"/><path class="cls-2" d="M58.76,25.94c1.76,0,3.71,1.44,4.79,3.71,1.36,2.85.85,5.92-1.14,6.87a2.94,2.94,0,0,1-1.27.28c-1.75,0-3.7-1.44-4.79-3.71-1.35-2.85-.84-5.92,1.15-6.87a2.87,2.87,0,0,1,1.26-.28m0-1.5h0a4.31,4.31,0,0,0-1.91.43c-2.78,1.32-3.59,5.22-1.85,8.86,1.32,2.78,3.73,4.57,6.14,4.57a4.41,4.41,0,0,0,1.91-.42,5,5,0,0,0,2.66-3.83,8.62,8.62,0,0,0-.8-5c-1.33-2.78-3.74-4.57-6.15-4.57Z"/><path class="cls-9" d="M60.51,38c-1.85,0-3.94-1.76-5.19-4.39-1.56-3.26-1.22-6.57.77-7.52a2.65,2.65,0,0,1,1.15-.25c1.85,0,3.94,1.76,5.19,4.38,1.56,3.27,1.22,6.58-.78,7.53A2.6,2.6,0,0,1,60.51,38Z"/><path class="cls-2" d="M57.24,26.6c1.51,0,3.37,1.57,4.51,4,1.36,2.84,1.17,5.76-.42,6.52a1.92,1.92,0,0,1-.82.18c-1.51,0-3.37-1.57-4.51-4-1.36-2.84-1.17-5.76.42-6.52a1.89,1.89,0,0,1,.82-.18m0-1.5h0a3.5,3.5,0,0,0-1.47.32c-2.41,1.15-2.89,4.82-1.13,8.53,1.4,2.92,3.7,4.81,5.87,4.81A3.36,3.36,0,0,0,62,38.43c2.41-1.15,2.89-4.81,1.12-8.52C61.73,27,59.37,25.1,57.24,25.1Z"/><path class="cls-9" d="M47.28,59c-2.09,0-4.29-1.66-5.47-4.14-1.53-3.21-.86-6.74,1.5-7.87a3.7,3.7,0,0,1,1.59-.35c2.09,0,4.28,1.66,5.46,4.14,1.54,3.21.86,6.74-1.49,7.87A3.76,3.76,0,0,1,47.28,59Z"/><path class="cls-2" d="M44.9,47.41c1.75,0,3.7,1.44,4.79,3.71C51,54,50.53,57,48.54,58a2.87,2.87,0,0,1-1.26.28c-1.76,0-3.71-1.44-4.79-3.71-1.36-2.85-.85-5.92,1.14-6.87a2.94,2.94,0,0,1,1.27-.28m0-1.5h0a4.41,4.41,0,0,0-1.91.42c-2.78,1.33-3.6,5.22-1.86,8.87,1.33,2.78,3.74,4.57,6.15,4.57a4.31,4.31,0,0,0,1.91-.43,5,5,0,0,0,2.66-3.83,8.53,8.53,0,0,0-.81-5c-1.32-2.78-3.73-4.57-6.14-4.57Z"/><path class="cls-10" d="M72.23,43.49A7.52,7.52,0,0,1,73.36,41a7.19,7.19,0,0,1,2-1.91A6,6,0,0,1,78,38a5,5,0,0,1,2.77.46.08.08,0,0,1,0,.11.08.08,0,0,1,0,0h0c-.88.37-1.69.6-2.47.86s-1.58.35-2.33.67a6.46,6.46,0,0,0-2,1.35,7.89,7.89,0,0,0-1.56,2h0a.07.07,0,0,1-.1,0A.08.08,0,0,1,72.23,43.49Z"/><path class="cls-10" d="M83.54,48.77a6.86,6.86,0,0,1,2.9-.72,11.35,11.35,0,0,1,3,.44,8.65,8.65,0,0,1,2.8,1.16,6.79,6.79,0,0,1,2.06,2.23.08.08,0,0,1,0,.11h-.06a19.39,19.39,0,0,1-2.73-1c-.86-.37-1.59-1-2.45-1.33a9.86,9.86,0,0,0-2.64-.82,7.16,7.16,0,0,0-2.8.11.08.08,0,0,1-.1,0A.09.09,0,0,1,83.54,48.77Z"/><path class="cls-10" d="M94.19,63.27a14.89,14.89,0,0,1,3.59,2,17.28,17.28,0,0,1,2.93,3,13.51,13.51,0,0,1,2.19,3.59,10.3,10.3,0,0,1,.69,4.15.07.07,0,0,1-.08.07.07.07,0,0,1-.06,0c-.71-1.22-1.3-2.4-1.92-3.57s-1.1-2.39-1.8-3.51a16.78,16.78,0,0,0-5.6-5.6h0a.08.08,0,0,1,0-.1A.07.07,0,0,1,94.19,63.27Z"/><path class="cls-10" d="M98.59,79.17a23.66,23.66,0,0,1,3.65,3.7A21.5,21.5,0,0,1,105,87.39a15.78,15.78,0,0,1,1.51,5.08,12,12,0,0,1-.58,5.25.07.07,0,0,1-.09,0,.07.07,0,0,1-.05-.06h0c-.2-1.73-.43-3.39-.77-5a34.12,34.12,0,0,0-1.14-4.85,20.32,20.32,0,0,0-2.2-4.52,23,23,0,0,0-1.46-2.09c-.52-.67-1.13-1.28-1.68-1.93h0a.08.08,0,0,1,0-.11A.09.09,0,0,1,98.59,79.17Z"/><path class="cls-10" d="M96.74,90.15a21.85,21.85,0,0,1,1.74,4.17,26.72,26.72,0,0,1,.91,4.46,17.85,17.85,0,0,1,.17,4.56,13,13,0,0,1-1.27,4.4.08.08,0,0,1-.1,0,.07.07,0,0,1,0-.07c-.09-1.53-.08-3-.08-4.46s.16-2.91.12-4.38a27.6,27.6,0,0,0-1.58-8.65.07.07,0,0,1,0-.1A.07.07,0,0,1,96.74,90.15Z"/><path class="cls-10" d="M90.87,98.71l.42,1.63c.11.55.18,1.1.28,1.67a14.19,14.19,0,0,1-.07,3.44,6.48,6.48,0,0,1-1.24,3.34,4.41,4.41,0,0,1-3.12,1.73.09.09,0,0,1-.08-.08.14.14,0,0,1,0-.06h0A10.3,10.3,0,0,0,89,107.93a12.14,12.14,0,0,0,1.3-2.74,13.19,13.19,0,0,0,.49-3.16c0-.54,0-1.09,0-1.64l-.1-1.65h0a.07.07,0,0,1,.07-.08A.07.07,0,0,1,90.87,98.71Z"/><path class="cls-10" d="M80.85,98c-.1.45-.21.91-.34,1.37s-.31.9-.53,1.33A8,8,0,0,1,78.2,103a5.14,5.14,0,0,1-2.71,1.4,4.18,4.18,0,0,1-2.92-.65.09.09,0,0,1,0-.11.05.05,0,0,1,0,0h0c1-.23,1.79-.41,2.57-.68a11.12,11.12,0,0,0,2.3-.88,7.3,7.3,0,0,0,1.86-1.78c.28-.35.49-.75.75-1.13l.62-1.22h0a.08.08,0,0,1,.11,0A.06.06,0,0,1,80.85,98Z"/><path class="cls-10" d="M69.56,90.57a7.89,7.89,0,0,1-3,.39,10.18,10.18,0,0,1-3-.72A7.87,7.87,0,0,1,61,88.72a6.23,6.23,0,0,1-1.67-2.55.1.1,0,0,1,.06-.1h.06A25.18,25.18,0,0,1,62,87.55c.78.49,1.43,1.14,2.22,1.62a9.59,9.59,0,0,0,2.54,1,8.48,8.48,0,0,0,2.81.2h0a.08.08,0,0,1,.08.07A.08.08,0,0,1,69.56,90.57Z"/><path class="cls-10" d="M61.22,78.12a13.43,13.43,0,0,1-3.6-1.78,21.92,21.92,0,0,1-3-2.69,15,15,0,0,1-2.46-3.21,11.11,11.11,0,0,1-1.29-3.84.08.08,0,0,1,.07-.09.11.11,0,0,1,.07,0c.9,1,1.67,2.07,2.42,3.12s1.34,2.19,2.11,3.22a21.87,21.87,0,0,0,2.56,2.88A14.5,14.5,0,0,0,61.27,78a.08.08,0,0,1,0,.1A.07.07,0,0,1,61.22,78.12Z"/><path class="cls-10" d="M57.5,62.45a4.3,4.3,0,0,1-1-.08,7.4,7.4,0,0,1-.91-.29c-.29-.11-.66-.14-.83-.42a1.5,1.5,0,0,1-.24-1.11.13.13,0,0,1,.1-.1h0a1.8,1.8,0,0,1,1.08,0c.28.08.37.39.56.6a14.19,14.19,0,0,0,1.23,1.22.07.07,0,0,1,0,.11A.05.05,0,0,1,57.5,62.45Z"/><path class="cls-10" d="M58.41,52.73a9.17,9.17,0,0,1-1.19-2.41A3,3,0,0,1,56.86,49a2.36,2.36,0,0,1,.51-1.38.09.09,0,0,1,.14,0h0a2.81,2.81,0,0,1,.82,1.19,3.59,3.59,0,0,1,.06,1.27c0,.85.05,1.7.15,2.57a.07.07,0,0,1-.06.09A.08.08,0,0,1,58.41,52.73Z"/><path class="cls-10" d="M63.42,45.51a14.21,14.21,0,0,1-.61-1.88c-.08-.31-.29-.63-.19-1a1.71,1.71,0,0,1,.63-1,.12.12,0,0,1,.15,0,1.84,1.84,0,0,1,.72.93c.12.3-.06.62-.11.94a15.4,15.4,0,0,1-.44,1.91h0a.08.08,0,0,1-.1,0A.1.1,0,0,1,63.42,45.51Z"/></g></svg>