<svg xmlns="http://www.w3.org/2000/svg" viewBox="0 0 160 127"><defs><style>.cls-1,.cls-8,.cls-9{fill:#58595b;}.cls-2,.cls-6{fill:#231f20;}.cls-3,.cls-5,.cls-7{fill:#414042;}.cls-12,.cls-3,.cls-4,.cls-7,.cls-8,.cls-9{stroke:#231f20;}.cls-12,.cls-3,.cls-4{stroke-miterlimit:10;}.cls-10,.cls-4{fill:#d1d3d4;}.cls-6{opacity:0.4;}.cls-7,.cls-8,.cls-9{stroke-linecap:round;stroke-linejoin:round;}.cls-9{stroke-width:1.5px;}.cls-11{fill:#bcbec0;}.cls-12{fill:#00a651;}</style></defs><g id="chassis"><g id="wheel"><path class="cls-1" d="M105.34,43.08a4.37,4.37,0,0,1-1.94-.43l-5.3-2.53c-1.71-.81-2.76-2.65-3-5.18a15.52,15.52,0,0,1,1.62-7.74c2.15-4.51,5.73-7.53,8.92-7.53a4.46,4.46,0,0,1,1.64.3l5.63,2.66c1.71.82,2.76,2.66,3,5.19a15.52,15.52,0,0,1-1.62,7.74c-2.15,4.5-5.74,7.52-9,7.52Z"/><path class="cls-2" d="M105.67,20.42a3.7,3.7,0,0,1,1.37.25h0l5.55,2.63c3,1.43,3.45,6.77,1,11.93-2,4.28-5.45,7.09-8.27,7.09a3.59,3.59,0,0,1-1.62-.36l-5.3-2.52c-3-1.44-3.45-6.78-1-11.93,2-4.29,5.43-7.1,8.24-7.1m0-1.5c-3.47,0-7.32,3.2-9.59,8A16.12,16.12,0,0,0,94.38,35c.23,2.81,1.44,4.87,3.39,5.8l5.3,2.53a5.3,5.3,0,0,0,2.27.5c3.49,0,7.36-3.19,9.62-7.95,2.86-6,2.11-12.11-1.7-13.92l-5.54-2.64-.08,0-.08,0a5.33,5.33,0,0,0-1.89-.34Z"/><ellipse class="cls-3" cx="108.17" cy="32.63" rx="10.34" ry="6.03" transform="translate(32.16 116.23) rotate(-64.51)"/><path class="cls-4" d="M105.34,40.6a2,2,0,0,1-.88-.19c-.86-.41-1.43-1.56-1.56-3.15a13.24,13.24,0,0,1,1.39-6.47c1.91-4,4.82-6.11,6.71-6.11a2.06,2.06,0,0,1,.87.19c1.84.88,2.36,5,.18,9.62-1.91,4-4.82,6.11-6.71,6.11Z"/><path class="cls-5" d="M107.81,33.67l-.11,0a.48.48,0,0,1-.21-.41,1.8,1.8,0,0,1,.18-.84c.25-.52.63-.79.87-.79a.2.2,0,0,1,.11,0c.24.11.31.65,0,1.24s-.63.79-.87.79Z"/><path class="cls-6" d="M99.72,40.07c-3-1.44-3.45-6.77-1-11.93s6.88-8.16,9.89-6.73l2.55,1.22c-3-1.44-7.44,1.58-9.89,6.73s-2,10.49,1,11.92Z"/></g><path class="cls-7" d="M70.2,69.75s2.77-16,3-17.69-2.28-1.68-2.78.46-3.36,15.95-3.36,15.95-7,3.91-10,5.73-1.63,4.14.59,3.09S70.2,69.75,70.2,69.75Z"/><path class="cls-8" d="M57.15,74.2c3-1.82,10-5.73,10-5.73S70,54.65,70.47,52.52a2,2,0,0,1,1.78-1.66h0L59.56,44c-1.41-.77-2.32,1.68-2.54,3.32s-2.5,13.52-2.5,13.52-8.23,4.8-10.42,5.94l-.06,0a2.38,2.38,0,0,0,0,4.12c3.38,2,10.4,6,10.81,6.21a3.51,3.51,0,0,0,2.47.45l.37-.24C55.49,78.29,54.18,76,57.15,74.2Z"/><path class="cls-9" d="M72,50.66l.09,0S61,44.74,59.56,44,57.24,45.65,57,47.29c-.21,1.46-2.05,11.13-2.43,13.15,3.78,3.9,9.58,6.75,12.1,7.92l.18-.09s3.1-13.62,3.6-15.75C70.74,51.4,71.3,50.67,72,50.66Z"/><path class="cls-2" d="M140.07,40.06c-.15,0-.59,0-6.47,2.34l-.12.06L79.63,77.31h0l-3.84,2.47-.06.06-1,.61c-1.34.51-3-1.1-3-1.12a.66.66,0,1,0-.94.94,6.69,6.69,0,0,0,2.1,1.36l-.32.2h0l-.34.23c-1.37.73-3.16-1-3.18-1a.66.66,0,0,0-.94,0,.68.68,0,0,0,0,.94,6.75,6.75,0,0,0,2.16,1.38l-.73.48c-1.34.52-3-1.1-3-1.12a.66.66,0,0,0-.94,0,.68.68,0,0,0,0,.94A6.81,6.81,0,0,0,67.69,85c-1.33.47-3-1.11-3-1.13a.66.66,0,0,0-.94.94,5.61,5.61,0,0,0,3.39,1.61A2.84,2.84,0,0,0,68.73,86L70.17,85a2.56,2.56,0,0,0,.39-.22c1.85-1.2,4.6-3,4.6-3h0l.2-.13a2.73,2.73,0,0,0,.41-.22c1.85-1.2,4.59-3,4.59-3h0l53.79-34.81c2.62-1,5.56-2.16,5.92-2.22a.67.67,0,0,0,0-1.33Z"/><path class="cls-4" d="M111.81,33.38l-.89-.47a.29.29,0,0,0-.16,0c-.34,0-.86.38-1.2,1.1a2.3,2.3,0,0,0-.25,1.16.65.65,0,0,0,.28.56l.9.47a.41.41,0,0,0,.16,0h0c.33,0,.85-.37,1.2-1.09S112.14,33.53,111.81,33.38Z"/><path class="cls-3" d="M110.65,36.19a.41.41,0,0,1-.16,0,.63.63,0,0,1-.28-.56,2.3,2.3,0,0,1,.25-1.16c.34-.72.86-1.1,1.2-1.1a.24.24,0,0,1,.15,0c.33.15.43.9,0,1.72s-.87,1.09-1.2,1.09Z"/><path class="cls-4" d="M122.31,39.62l-8.64-5.25a.41.41,0,0,0-.16,0c-.34,0-.86.38-1.2,1.09a2.35,2.35,0,0,0-.25,1.16.69.69,0,0,0,.28.57L121,42.4a.29.29,0,0,0,.16,0h0c.33,0,.85-.38,1.2-1.1S122.63,39.78,122.31,39.62Z"/><path class="cls-4" d="M112.31,35.43a2.58,2.58,0,0,1,.26-.43l-1.08-.65h0c-.13,0-.32.14-.45.4a.9.9,0,0,0-.09.43.26.26,0,0,0,.1.21l1.1.67A2.67,2.67,0,0,1,112.31,35.43Z"/><path class="cls-3" d="M121.14,42.44a.29.29,0,0,1-.16,0,.63.63,0,0,1-.28-.56,2.33,2.33,0,0,1,.25-1.16c.34-.72.86-1.09,1.2-1.09a.41.41,0,0,1,.16,0c.32.16.42.9,0,1.72s-.87,1.1-1.2,1.1Z"/><path class="cls-4" d="M122.89,41.11l-1.6-1a2.78,2.78,0,0,0-.34.54,2.22,2.22,0,0,0-.17.47l1.62,1,0,0h0c.13,0,.32-.14.45-.41S123,41.16,122.89,41.11Z"/><path class="cls-4" d="M124.77,41l-.89-.47a.41.41,0,0,0-.16,0c-.34,0-.86.37-1.2,1.09a2.3,2.3,0,0,0-.25,1.16.63.63,0,0,0,.28.56l.9.47a.37.37,0,0,0,.15,0h0c.34,0,.86-.38,1.2-1.1S125.1,41.15,124.77,41Z"/><path class="cls-3" d="M123.6,43.81a.37.37,0,0,1-.15,0,.63.63,0,0,1-.28-.56,2.3,2.3,0,0,1,.25-1.16c.34-.72.86-1.09,1.2-1.09a.37.37,0,0,1,.15,0c.33.16.43.9,0,1.72s-.86,1.1-1.2,1.1Z"/><path class="cls-4" d="M119.05,46.58l.84-.61a.27.27,0,0,0,.1-.13,1.73,1.73,0,0,0-.48-1.6,2.5,2.5,0,0,0-1-.75.67.67,0,0,0-.65,0l-.84.61a.64.64,0,0,0-.1.13h0a1.75,1.75,0,0,0,.48,1.6C118,46.56,118.76,46.81,119.05,46.58Z"/><path class="cls-3" d="M117,44.23a.64.64,0,0,1,.1-.13.7.7,0,0,1,.65,0,2.44,2.44,0,0,1,1,.76,1.68,1.68,0,0,1,.48,1.59.22.22,0,0,1-.1.13c-.29.23-1,0-1.62-.75a1.75,1.75,0,0,1-.48-1.6Z"/><path class="cls-4" d="M108.55,53.38l8.75-5.55a.34.34,0,0,0,.1-.13,1.74,1.74,0,0,0-.49-1.6,2.55,2.55,0,0,0-1-.75.66.66,0,0,0-.65,0l-8.75,5.55a.64.64,0,0,0-.1.13h0a1.75,1.75,0,0,0,.48,1.6C107.52,53.36,108.26,53.61,108.55,53.38Z"/><path class="cls-4" d="M116.91,46.1a3.25,3.25,0,0,1,.29.43l1.09-.69,0,0a.61.61,0,0,0-.17-.59,1,1,0,0,0-.36-.28.25.25,0,0,0-.24,0l-1.11.71A2.55,2.55,0,0,1,116.91,46.1Z"/><path class="cls-3" d="M106.45,51a.64.64,0,0,1,.1-.13.67.67,0,0,1,.65,0,2.58,2.58,0,0,1,1,.75,1.73,1.73,0,0,1,.48,1.6.27.27,0,0,1-.1.13c-.29.23-1,0-1.62-.75a1.75,1.75,0,0,1-.48-1.6Z"/><path class="cls-4" d="M106.91,53.24l1.61-1a2.51,2.51,0,0,0-.35-.57,3.06,3.06,0,0,0-.36-.36l-1.64,1,0,0h0a.65.65,0,0,0,.18.59C106.53,53.23,106.8,53.33,106.91,53.24Z"/><path class="cls-4" d="M106.17,55l.84-.61a.31.31,0,0,0,.1-.13,1.7,1.7,0,0,0-.48-1.6,2.41,2.41,0,0,0-1-.75.67.67,0,0,0-.65,0l-.84.61a.34.34,0,0,0-.1.13h0a1.72,1.72,0,0,0,.49,1.59C105.15,55,105.88,55.26,106.17,55Z"/><path class="cls-3" d="M104.07,52.68a.34.34,0,0,1,.1-.13.67.67,0,0,1,.65,0,2.41,2.41,0,0,1,1,.75,1.74,1.74,0,0,1,.49,1.6.45.45,0,0,1-.11.13c-.29.23-1,0-1.61-.76a1.72,1.72,0,0,1-.49-1.59Z"/><path class="cls-4" d="M128.05,40.73c-.39-1.31-2.71-3.57-5-2.26a19.44,19.44,0,0,0-2.59,1.66c-.88.39-1.12,2.2-.09,4.2.92,1.75,2.3,2.66,3.2,2.66h0a1,1,0,0,0,.42-.08,16.94,16.94,0,0,0,3.29-2C128.71,43.82,128.45,42.05,128.05,40.73Z"/><path class="cls-4" d="M123.61,47a1,1,0,0,0,.42-.08,1.55,1.55,0,0,0,.74-1.37,5.26,5.26,0,0,0-.66-2.82c-.91-1.75-2.3-2.67-3.19-2.67a1.08,1.08,0,0,0-.42.08c-.88.39-1.12,2.2-.09,4.2.92,1.75,2.3,2.66,3.2,2.66Z"/><path class="cls-3" d="M122.92,45.21a.45.45,0,0,0,.2,0,.74.74,0,0,0,.36-.67,2.61,2.61,0,0,0-.32-1.37,2.16,2.16,0,0,0-1.55-1.3.65.65,0,0,0-.21,0c-.42.19-.54,1.07,0,2.05a2.14,2.14,0,0,0,1.55,1.29Z"/><path class="cls-4" d="M128.89,43.08l-1-.51a.47.47,0,0,0-.17,0c-.37,0-.93.4-1.3,1.18a2.58,2.58,0,0,0-.27,1.25.71.71,0,0,0,.31.61l1,.51a.51.51,0,0,0,.17,0h0c.37,0,.93-.4,1.3-1.18S129.24,43.25,128.89,43.08Z"/><path class="cls-3" d="M127.62,46.12a.51.51,0,0,1-.17,0,.75.75,0,0,1-.3-.61,2.55,2.55,0,0,1,.27-1.25c.37-.78.93-1.19,1.3-1.19a.47.47,0,0,1,.17,0c.35.17.45,1,0,1.86s-.93,1.18-1.3,1.18Z"/><path class="cls-4" d="M140.22,49.83l-9.33-5.67a.33.33,0,0,0-.17,0c-.36,0-.93.41-1.3,1.18a2.6,2.6,0,0,0-.27,1.25.71.71,0,0,0,.31.61l9.33,5.67a.33.33,0,0,0,.17,0h0c.36,0,.93-.41,1.29-1.18S140.58,50,140.22,49.83Z"/><path class="cls-4" d="M129.42,45.3a4,4,0,0,1,.28-.46l-1.16-.7-.06,0c-.14,0-.34.15-.48.44a.88.88,0,0,0-.1.46.28.28,0,0,0,.11.23l1.19.72A2.92,2.92,0,0,1,129.42,45.3Z"/><path class="cls-3" d="M139,52.87a.33.33,0,0,1-.17,0,.68.68,0,0,1-.3-.61,2.47,2.47,0,0,1,.26-1.25c.37-.77.94-1.18,1.3-1.18a.33.33,0,0,1,.17,0c.36.17.46,1,0,1.86s-.93,1.18-1.29,1.18Z"/><path class="cls-4" d="M140.85,51.43l-1.72-1a2.85,2.85,0,0,0-.38.59,5.17,5.17,0,0,0-.18.51l1.75,1.06h.06c.14,0,.34-.15.48-.43S141,51.49,140.85,51.43Z"/><path class="cls-4" d="M142.89,51.31l-1-.51a.33.33,0,0,0-.17,0c-.37,0-.93.41-1.3,1.18a2.6,2.6,0,0,0-.27,1.25.73.73,0,0,0,.3.61l1,.51a.53.53,0,0,0,.17,0h0c.37,0,.93-.41,1.3-1.18S143.24,51.47,142.89,51.31Z"/><path class="cls-3" d="M141.62,54.35a.53.53,0,0,1-.17,0,.73.73,0,0,1-.3-.61,2.58,2.58,0,0,1,.27-1.25c.37-.78.93-1.18,1.3-1.18a.33.33,0,0,1,.17,0c.35.16.45,1,0,1.86s-.93,1.18-1.3,1.18Z"/><path class="cls-2" d="M52.73,69.48c-1.83-3-5.23-4.29-7.58-2.86s-2.77,5-.93,8S49.45,79,51.8,77.53,54.57,72.49,52.73,69.48ZM46.18,68.3c1.62-1,4-.11,5.25,2a6.47,6.47,0,0,1,.48,1,8.29,8.29,0,0,0-7.15-.42A3.16,3.16,0,0,1,46.18,68.3Zm-.65,5.57a5.16,5.16,0,0,1-.69-1.81,10.6,10.6,0,0,1,1.71-.28l2.15,2.58.14,1.86A4.82,4.82,0,0,1,45.53,73.87Zm5.25,2a2.77,2.77,0,0,1-.46.22l-.24-1.84,1.31-1.82.82.3A3.33,3.33,0,0,1,50.78,75.85Z"/><g id="wheel-2" data-name="wheel"><path class="cls-1" d="M16.37,93.17a4.56,4.56,0,0,1-2-.43l-5.3-2.53c-1.7-.81-2.76-2.65-3-5.18a15.48,15.48,0,0,1,1.63-7.75c2.14-4.5,5.73-7.53,8.92-7.53a4.72,4.72,0,0,1,1.64.3L24,72.72c1.71.81,2.76,2.65,3,5.18a15.43,15.43,0,0,1-1.62,7.75c-2.14,4.49-5.74,7.52-8.94,7.52Z"/><path class="cls-2" d="M16.7,70.5a3.78,3.78,0,0,1,1.37.25h0l5.54,2.64c3,1.43,3.45,6.77,1,11.92-2,4.29-5.45,7.1-8.26,7.1a3.8,3.8,0,0,1-1.63-.36l-5.3-2.53c-3-1.43-3.44-6.77-1-11.92,2.05-4.29,5.43-7.11,8.25-7.11m0-1.5c-3.47,0-7.33,3.2-9.6,8C4.24,83,5,89.07,8.8,90.89l5.3,2.52a5.14,5.14,0,0,0,2.27.51c3.48,0,7.35-3.2,9.62-8a16.27,16.27,0,0,0,1.69-8.13C27.45,75,26.24,73,24.29,72l-5.55-2.63-.08,0-.08,0A5.27,5.27,0,0,0,16.7,69Z"/><ellipse class="cls-3" cx="19.2" cy="82.72" rx="10.34" ry="6.03" transform="translate(-63.73 64.44) rotate(-64.51)"/><path class="cls-4" d="M16.37,90.69a1.93,1.93,0,0,1-.88-.19c-.86-.41-1.43-1.56-1.57-3.15a13.24,13.24,0,0,1,1.39-6.47c1.92-4,4.83-6.11,6.71-6.11a2,2,0,0,1,.88.19c1.83.87,2.36,5,.17,9.62-1.91,4-4.82,6.11-6.7,6.11Z"/><path class="cls-5" d="M18.83,83.76a.2.2,0,0,1-.11,0,.45.45,0,0,1-.2-.4,1.66,1.66,0,0,1,.18-.84c.24-.52.62-.79.86-.79l.12,0c.23.12.3.66,0,1.25s-.62.79-.87.79Z"/><path class="cls-6" d="M10.74,90.15c-3-1.43-3.44-6.77-1-11.92s6.89-8.17,9.89-6.73l2.55,1.21c-3-1.43-7.43,1.58-9.89,6.74s-2,10.49,1,11.92Z"/></g><path class="cls-4" d="M56.91,106.28a1.32,1.32,0,0,1-.63-.17L21.42,85.48a1.21,1.21,0,1,1,1.24-2.08L57.52,104a1.21,1.21,0,0,1-.61,2.25Z"/><g id="wheel-3" data-name="wheel"><path class="cls-1" d="M58.56,118.08a4.52,4.52,0,0,1-1.94-.43l-5.3-2.53c-3.43-1.63-4-7.31-1.35-12.92,2.15-4.51,5.73-7.53,8.92-7.53a4.46,4.46,0,0,1,1.64.3l5.63,2.66c3.43,1.64,4,7.31,1.35,12.93-2.15,4.5-5.74,7.52-9,7.52Z"/><path class="cls-2" d="M58.89,95.42a3.7,3.7,0,0,1,1.37.25h0l5.55,2.63c3,1.43,3.45,6.77,1,11.92-2,4.29-5.45,7.1-8.27,7.1a3.73,3.73,0,0,1-1.62-.36l-5.3-2.52c-3-1.44-3.45-6.78-1-11.93,2-4.29,5.43-7.1,8.24-7.1m0-1.5c-3.47,0-7.32,3.19-9.59,8-2.86,6-2.12,12.11,1.69,13.93l5.3,2.53a5.3,5.3,0,0,0,2.27.5c3.49,0,7.36-3.2,9.62-8a16.26,16.26,0,0,0,1.7-8.13c-.24-2.8-1.44-4.86-3.4-5.8l-5.54-2.63-.08,0-.08,0a5.12,5.12,0,0,0-1.89-.34Z"/><ellipse class="cls-3" cx="61.39" cy="107.63" rx="10.34" ry="6.03" transform="translate(-62.18 116.72) rotate(-64.51)"/><path class="cls-4" d="M58.56,115.6a2,2,0,0,1-.88-.19c-.86-.41-1.43-1.56-1.56-3.15a13.24,13.24,0,0,1,1.39-6.47c1.91-4,4.82-6.11,6.71-6.11a1.92,1.92,0,0,1,.87.19c1.84.87,2.36,5,.18,9.62-1.91,4-4.82,6.11-6.71,6.11Z"/><path class="cls-5" d="M61,108.67a.2.2,0,0,1-.11,0,.45.45,0,0,1-.21-.4,1.77,1.77,0,0,1,.18-.84c.25-.52.63-.79.87-.79a.2.2,0,0,1,.11,0c.24.11.31.65,0,1.24s-.63.79-.87.79Z"/><path class="cls-6" d="M52.94,115.07c-3-1.44-3.45-6.78-1-11.93s6.88-8.17,9.89-6.73l2.55,1.21c-3-1.43-7.44,1.59-9.89,6.74s-2,10.49,1,11.92Z"/></g><path class="cls-4" d="M43.23,94.39l-11-6.9a.45.45,0,0,0-.2,0c-.44,0-1.11.47-1.57,1.38a3.18,3.18,0,0,0-.34,1.49.85.85,0,0,0,.36.73l11,6.9a.46.46,0,0,0,.2,0h0c.44,0,1.11-.47,1.57-1.39S43.65,94.6,43.23,94.39Z"/><path class="cls-4" d="M44.06,79.84l4.09-7.4a1,1,0,0,1,1.3.49l-4.17,7.64Z"/><path class="cls-4" d="M37,90.82l6.51-11a1.81,1.81,0,0,1,1.94,1L39.13,92.13Z"/><path class="cls-4" d="M111.5,59.19l10.07-6.43a.27.27,0,0,0,.09-.12,1.52,1.52,0,0,0-.41-1.39,2.05,2.05,0,0,0-.84-.66.57.57,0,0,0-.56,0L109.78,57a.2.2,0,0,0-.09.11h0a1.52,1.52,0,0,0,.41,1.39C110.61,59.18,111.24,59.4,111.5,59.19Z"/><path class="cls-2" d="M109.69,57.15a.2.2,0,0,1,.09-.11.57.57,0,0,1,.56,0,2.05,2.05,0,0,1,.84.66,1.52,1.52,0,0,1,.41,1.39.24.24,0,0,1-.09.11c-.26.21-.89,0-1.4-.65a1.52,1.52,0,0,1-.41-1.39Z"/><g id="Layer_24" data-name="Layer 24"><path class="cls-4" d="M85.6,53.87l-10.1,3a1.26,1.26,0,0,0-.88,1.38l1.76,12.5a1.29,1.29,0,0,0,.58.9l8.9,5.45A1.23,1.23,0,0,0,87.34,77l8-7a1.22,1.22,0,0,0,.41-.75L97,60.52a1.27,1.27,0,0,0-.65-1.29L86.55,54A1.21,1.21,0,0,0,85.6,53.87Z"/><path class="cls-3" d="M74.61,58.2l1.82,12.93a.49.49,0,0,0,.23.36L86,77.21a.5.5,0,0,0,.76-.35l1.75-11.74a.5.5,0,0,0-.26-.52l-12.9-6.92A.51.51,0,0,0,74.61,58.2Z"/><path class="cls-4" d="M81.61,71.86l1.76-1.31a.84.84,0,0,0,.22-.27c.32-.66.08-2-1-3.37a5.07,5.07,0,0,0-2-1.58,1.39,1.39,0,0,0-1.36,0l-1.77,1.3a.67.67,0,0,0-.21.28h0c-.32.65-.08,2,1,3.37C79.45,71.82,81,72.35,81.61,71.86Z"/><path class="cls-3" d="M77.24,66.92a.67.67,0,0,1,.21-.28,1.42,1.42,0,0,1,1.36,0,5.09,5.09,0,0,1,2,1.58c1.08,1.35,1.31,2.72,1,3.37a.74.74,0,0,1-.21.28c-.62.49-2.16,0-3.38-1.57-1.07-1.35-1.31-2.72-1-3.37Z"/><path class="cls-3" d="M103.4,54.14a5.16,5.16,0,0,0-2-1.58,1.42,1.42,0,0,0-1.36,0l-1.76,1.3h0L86.64,54h0l10.51,5.64h0l-1.5,10s0,0,0,0l6.73-10.6h0l1.77-1.3a.76.76,0,0,0,.21-.28C104.71,56.86,104.47,55.49,103.4,54.14Z"/><path class="cls-10" d="M61.3,84.45,57,81.72l-.06-.15C56.29,80.05,54.27,75,54.34,74c0-.31.1-1.26,15.46-10.37l.22-.13.24.11a61.57,61.57,0,0,1,6.82,3.31A2.69,2.69,0,0,1,77.5,69l0,.26a43.59,43.59,0,0,0,.86,4.35l.06.25-5,5.51-10,6.25Z"/><path class="cls-2" d="M70.05,64s6.2,2.74,6.67,3.21.29,1.66.29,1.66c-.29,0,.83,4.79.83,4.79L73.05,79,63.35,85l-1.8-1-4.18-2.63S54.77,75,54.84,74,70.05,64,70.05,64M70,62.92l-.45.26C54,72.42,53.89,73.34,53.85,74c-.08,1.07,1.59,5.35,2.59,7.81l.12.29.27.18L61,84.86h0l1.8,1,.52.29.5-.31,9.7-6.06.11-.07.09-.1,4.8-5.26.35-.39-.12-.52c-.38-1.61-.78-3.55-.84-4.22l0-.19a3.12,3.12,0,0,0-.57-2.52c-.4-.4-2.74-1.54-7-3.41L70,62.92Z"/><path class="cls-5" d="M61.79,83.57l-4-2.53a47.79,47.79,0,0,1-2.43-6.9.46.46,0,0,1,.1-.1,25.15,25.15,0,0,1,5.81,3.21c0,.07.44.89,1.4,6.81Z"/><path class="cls-2" d="M56,74.84a25.22,25.22,0,0,1,4.8,2.7A34.87,34.87,0,0,1,62,83.11L58.17,80.7c-1-2.47-1.81-4.7-2.15-5.86m-.68-1.38c-.31.26-.49.45-.5.56-.06.93,2.16,6.46,2.49,7.26a.29.29,0,0,0,.13.16L61.55,84l1.16.65a.37.37,0,0,0,.17,0,.32.32,0,0,0,.32-.38c-.42-2.62-1.19-7.08-1.62-7.46a26.58,26.58,0,0,0-6.24-3.41Z"/><path class="cls-11" d="M77,68.91s.18-1.19-.29-1.66a7.3,7.3,0,0,0-1.21-.68L61,76.4a7.22,7.22,0,0,1,.63.47,6.35,6.35,0,0,1,.64,2l15-8.32A11.78,11.78,0,0,1,77,68.91Z"/><line class="cls-12" x1="78.23" y1="73.7" x2="62.7" y2="83.23"/><ellipse class="cls-12" cx="60.41" cy="73.35" rx="1.64" ry="1.19"/><ellipse class="cls-12" cx="63.93" cy="71.05" rx="1.64" ry="1.19"/><ellipse class="cls-12" cx="67.57" cy="68.68" rx="1.64" ry="1.19"/><ellipse class="cls-12" cx="71.21" cy="66.31" rx="1.64" ry="1.19"/></g><path class="cls-7" d="M101.46,89.08s2.77-16,3-17.68-2.27-1.69-2.77.45-3.37,16-3.37,16-7,3.91-10,5.73-1.64,4.13.59,3.09S101.46,89.08,101.46,89.08Z"/><path class="cls-8" d="M88.41,93.54c3-1.82,10-5.73,10-5.73s2.87-13.82,3.37-16a2,2,0,0,1,1.77-1.66h0S92.23,64.08,90.82,63.3,88.5,65,88.27,66.62s-2.5,13.53-2.5,13.53-8.23,4.79-10.41,5.93l-.07,0a2.37,2.37,0,0,0,0,4.11c3.39,2,10.4,6,10.81,6.22a3.53,3.53,0,0,0,2.47.44l.37-.24C86.75,97.62,85.44,95.34,88.41,93.54Z"/><path class="cls-9" d="M103.24,70l.09.05s-11.1-6-12.51-6.74S88.5,65,88.27,66.62c-.2,1.47-2,11.14-2.43,13.15,3.79,3.9,9.58,6.75,12.11,7.93l.17-.1s3.11-13.61,3.61-15.75C102,70.73,102.56,70,103.24,70Z"/><g id="wheel-4" data-name="wheel"><path class="cls-1" d="M145.31,67.06a4.56,4.56,0,0,1-1.95-.43l-5.3-2.53c-1.7-.81-2.76-2.65-3-5.18a15.55,15.55,0,0,1,1.63-7.75c2.15-4.5,5.73-7.53,8.92-7.53a4.5,4.5,0,0,1,1.64.3l5.63,2.67c1.7.81,2.76,2.65,3,5.18a15.53,15.53,0,0,1-1.63,7.74c-2.14,4.5-5.74,7.53-8.94,7.53Z"/><path class="cls-2" d="M145.64,44.39a3.78,3.78,0,0,1,1.37.25h0l5.54,2.63c3,1.44,3.45,6.78,1,11.93-2.05,4.29-5.46,7.09-8.27,7.09a3.79,3.79,0,0,1-1.63-.35l-5.29-2.53c-3-1.43-3.45-6.77-1-11.92,2-4.29,5.42-7.11,8.24-7.11m0-1.5c-3.47,0-7.33,3.2-9.6,8A16.25,16.25,0,0,0,134.35,59c.23,2.8,1.44,4.86,3.39,5.8L143,67.3a5.13,5.13,0,0,0,2.27.5c3.49,0,7.35-3.19,9.62-7.94a16.27,16.27,0,0,0,1.69-8.13c-.23-2.81-1.43-4.87-3.39-5.8l-5.55-2.63-.07,0-.08,0a5.33,5.33,0,0,0-1.89-.34Z"/><ellipse class="cls-3" cx="148.14" cy="56.6" rx="10.34" ry="6.03" transform="translate(33.28 165.96) rotate(-64.51)"/><path class="cls-4" d="M145.31,64.58a2.07,2.07,0,0,1-.88-.19c-.86-.41-1.43-1.56-1.57-3.15a13.1,13.1,0,0,1,1.4-6.47c1.91-4,4.82-6.11,6.7-6.11a2,2,0,0,1,.88.19c1.83.87,2.36,5,.17,9.62-1.91,4-4.82,6.11-6.7,6.11Z"/><path class="cls-5" d="M147.77,57.64a.22.22,0,0,1-.11,0c-.11,0-.18-.2-.2-.41a1.63,1.63,0,0,1,.18-.83c.25-.52.62-.79.86-.79l.12,0c.24.12.3.65,0,1.25s-.62.78-.87.78Z"/><path class="cls-6" d="M139.69,64c-3-1.43-3.45-6.77-1-11.92s6.89-8.17,9.89-6.74l2.55,1.22c-3-1.43-7.43,1.58-9.89,6.73s-2,10.49,1,11.93Z"/></g></g></svg>