<svg xmlns="http://www.w3.org/2000/svg" viewBox="0 0 160 127"><defs><style>.cls-1{fill:#58595b;}.cls-1,.cls-2,.cls-3,.cls-6{stroke:#231f20;stroke-miterlimit:10;}.cls-2{fill:#d1d3d4;}.cls-3{fill:#fff;}.cls-4,.cls-5,.cls-6,.cls-8{fill:#231f20;}.cls-4{opacity:0.05;}.cls-6{fill-opacity:0.05;}.cls-7{opacity:0.2;}.cls-8{opacity:0.1;}</style></defs><g id="cooling"><path class="cls-4" d="M107.83,114a5.11,5.11,0,0,1-2.46-.65L39.59,69.61a6,6,0,0,1-3.12-5.3L35.38,24.16a6,6,0,0,1,2.34-4.8l5.87-5A6.12,6.12,0,0,1,47.38,13a6,6,0,0,1,2.88.74l68.35,39.74a5.37,5.37,0,0,1,2.81,4.74v45.18c0,1.74-1.17,3.36-3.2,4.43L112,112.11a5.27,5.27,0,0,1-2.29,1.5l-.07,0-.19,0a5.16,5.16,0,0,1-1.63.27Z"/><path class="cls-5" d="M47.38,13.79a5.2,5.2,0,0,1,2.52.65l68.33,39.73a4.63,4.63,0,0,1,2.44,4.09v45.18c0,1.61-1.24,3-2.87,3.8h0l-6.3,4.29a4.43,4.43,0,0,1-2,1.36l-.09,0a.17.17,0,0,1-.09,0,4.63,4.63,0,0,1-1.47.25,4.3,4.3,0,0,1-2.1-.56L40,69a5.3,5.3,0,0,1-2.78-4.67L36.13,24.14a5.24,5.24,0,0,1,2.11-4.23h0l5.84-5h0a5.36,5.36,0,0,1,3.3-1.15m0-1.5a6.88,6.88,0,0,0-4.17,1.43l-.1.07-5.85,5v0a6.71,6.71,0,0,0-2.62,5.36l1.09,40.21a6.8,6.8,0,0,0,3.5,5.92l65.68,43.62a.41.41,0,0,0,.11.07,5.88,5.88,0,0,0,2.82.74,6,6,0,0,0,1.81-.29,1.83,1.83,0,0,0,.25-.06l0,0a6,6,0,0,0,2.56-1.66l6.11-4.16c2.26-1.2,3.56-3.05,3.56-5.07V58.26A6.13,6.13,0,0,0,119,52.85L50.65,13.14a6.76,6.76,0,0,0-3.27-.85Z"/><path class="cls-6" d="M40,69l65.73,43.66a4.65,4.65,0,0,0,6.87-4.09V63.37a4.66,4.66,0,0,0-2.44-4.09L44,19.47a5.31,5.31,0,0,0-7.84,4.67l1.09,40.17A5.3,5.3,0,0,0,40,69Z"/><path class="cls-8" d="M38.76,19.56,112.6,64.28v-.91c0-.09,0-.18,0-.27l-72.7-44A5.63,5.63,0,0,0,38.76,19.56Z"/><path class="cls-8" d="M36.42,22.44,112.6,69V67.79L36.82,21.51A4.83,4.83,0,0,0,36.42,22.44Z"/><polygon class="cls-8" points="36.2 26.6 112.6 73.65 112.6 72.48 36.16 25.41 36.2 26.6"/><polygon class="cls-8" points="36.31 30.98 112.6 78.34 112.6 77.16 36.28 29.78 36.31 30.98"/><polygon class="cls-8" points="36.43 35.35 112.6 83.03 112.6 81.85 36.4 34.15 36.43 35.35"/><polygon class="cls-8" points="36.55 39.73 112.6 87.71 112.6 86.53 36.52 38.53 36.55 39.73"/><polygon class="cls-8" points="36.67 44.12 112.6 92.4 112.6 91.22 36.64 42.91 36.67 44.12"/><polygon class="cls-8" points="36.79 48.5 112.6 97.09 112.6 95.9 36.76 47.3 36.79 48.5"/><polygon class="cls-8" points="36.91 52.9 112.6 101.78 112.6 100.59 36.87 51.68 36.91 52.9"/><polygon class="cls-8" points="37.02 57.29 112.6 106.47 112.6 105.27 36.99 56.07 37.02 57.29"/><path class="cls-8" d="M37.14,61.69,112,110.78a4.64,4.64,0,0,0,.39-.94L37.11,60.47Z"/><path class="cls-8" d="M37.61,66.32l70.93,46.84a4.28,4.28,0,0,0,1.27-.35L37.25,64.88A5.85,5.85,0,0,0,37.61,66.32Z"/><path class="cls-5" d="M120.67,99.12l2.72-1.54a1.12,1.12,0,0,0,.48-.91V92.78a1.11,1.11,0,0,0-1.7-.93c-1.2.76-1.5.55-1.5.55Z"/></g></svg>