<svg xmlns="http://www.w3.org/2000/svg" viewBox="0 0 160 127"><defs><style>.cls-1{fill:#9ebcc9;}.cls-1,.cls-2,.cls-4,.cls-5,.cls-6,.cls-7,.cls-8{stroke:#231f20;stroke-miterlimit:10;}.cls-2{fill:#fff;}.cls-3{fill:#231f20;}.cls-4{fill:#eb1d25;}.cls-5{fill:#e25350;}.cls-6{fill:#6d6e71;}.cls-7{fill:#bcbec0;}.cls-8{fill:#fee60a;}</style></defs><g id="batery"><path class="cls-1" d="M115.5,61.15v27.1l-30,16.42a.23.23,0,0,1-.34-.2V77.76Z"/><path class="cls-2" d="M44.57,54.66v27.1l40.24,22.9a.23.23,0,0,0,.35-.2V77.76Z"/><polygon class="cls-3" points="76.41 84.45 76.41 85.69 82 88.87 82 87.64 76.41 84.45"/><polygon class="cls-4" points="117.89 46.39 117.32 60.24 85.16 77.76 85.16 64.71 117.89 46.39"/><polygon class="cls-5" points="42.11 39.61 42.11 53.32 85.16 77.76 85.16 64.71 42.11 39.61"/><polygon class="cls-5" points="75.13 22.14 42.11 39.61 85.16 64.71 117.89 46.39 75.13 22.14"/><path class="cls-6" d="M91.29,41.72c-2.49,0-4.5,1.17-4.5,2.6v6.26c0,1.44,2,2.61,4.5,2.61s4.5-1.17,4.5-2.61V44.32C95.79,42.89,93.77,41.72,91.29,41.72Z"/><ellipse class="cls-7" cx="91.29" cy="44.32" rx="4.5" ry="2.6"/><path class="cls-6" d="M69,28.62c-2.49,0-4.5,1.17-4.5,2.6v6.27c0,1.43,2,2.6,4.5,2.6s4.49-1.17,4.49-2.6V31.22C73.53,29.79,71.52,28.62,69,28.62Z"/><ellipse class="cls-7" cx="69.04" cy="31.22" rx="4.5" ry="2.6"/><polygon class="cls-8" points="56.98 70 56.98 80.54 72.75 89.52 72.75 78.98 56.98 70"/><polygon class="cls-3" points="62.79 83.84 63.79 84.41 63.79 73.88 62.79 73.31 62.79 83.84"/><polygon class="cls-3" points="57.48 70.29 56.98 70 56.98 80.54 57.48 80.82 57.48 70.29"/><polygon class="cls-3" points="59.63 82.05 60.63 82.62 60.63 72.08 59.63 71.52 59.63 82.05"/><polygon class="cls-3" points="65.94 85.64 66.94 86.21 66.94 75.68 65.94 75.11 65.94 85.64"/><polygon class="cls-3" points="69.1 87.44 70.1 88.01 70.1 77.47 69.1 76.9 69.1 87.44"/><polygon class="cls-3" points="72.25 89.23 72.75 89.52 72.75 78.98 72.25 78.7 72.25 89.23"/><polygon class="cls-3" points="54.1 71.65 51.81 70.34 51.81 67.51 50.77 66.91 50.77 69.75 48.51 68.47 48.51 69.7 50.77 70.99 50.77 73.58 51.81 74.15 51.81 71.58 54.1 72.89 54.1 71.65"/><path class="cls-3" d="M75.13,22.14l42.52,24.11a.45.45,0,0,1,.23.41l-.56,13.58-1.82,1v27L85.16,104.86,44.57,81.76v-27l-2.46-1.4V39.61l33-17.47m0-1.71-.73.38-33,17.48-.8.42V54.19l.76.44,1.7,1v27l.76.43,40.59,23.11.72.41.74-.4,30.34-16.61.78-.43v-27l1-.56.75-.41,0-.85.56-13.58a1.93,1.93,0,0,0-1-1.77L75.87,20.83l-.71-.4Z"/></g></svg>