<svg xmlns="http://www.w3.org/2000/svg" viewBox="0 0 160 127"><defs><style>.cls-1{fill:#6d6e71;}.cls-1,.cls-2,.cls-3,.cls-4,.cls-5,.cls-6,.cls-7,.cls-8{stroke:#231f20;stroke-miterlimit:10;}.cls-2{fill:#a7a9ac;}.cls-3{fill:#fff;}.cls-4{fill:#bcbec0;}.cls-5{fill:none;}.cls-6{fill:#d1d3d4;}.cls-7,.cls-9{fill:#231f20;}.cls-8{fill:#939598;}</style></defs><g id="Layer_12" data-name="Layer 12"><path class="cls-1" d="M58.71,70.73c-6.29-4.93-15.05,1-15.3,10.68s3,12.47,3.84,13,4.22-2.46,4.22-2.46,9.26-13.29,9.26-13.54S58.71,70.73,58.71,70.73Z"/><path class="cls-2" d="M43.41,81.41C43.6,74.14,48.57,69,53.7,69H51.52c-5.11.06-10.06,5.2-10.25,12.45-.25,9.7,3,12.47,3.84,13a1.52,1.52,0,0,0,.81,0l1.33,0C46.43,93.88,43.16,91.11,43.41,81.41Z"/><path class="cls-1" d="M54.92,69.05h0L54.33,69H53.7A7.09,7.09,0,0,1,54.92,69.05Z"/><path class="cls-1" d="M67.62,70.8c-6.53-5.12-15.59,1-15.85,11.06s3.13,12.91,4,13.43,4.37-2.54,4.37-2.54S69.7,79,69.7,78.73,67.62,70.8,67.62,70.8Z"/><path class="cls-2" d="M51.77,81.86C52,74.32,57.11,69,62.42,69H60.17c-5.3.06-10.42,5.38-10.62,12.9-.26,10,3.13,12.91,4,13.43a1.52,1.52,0,0,0,.84.06l1.38-.06C54.9,94.77,51.51,91.9,51.77,81.86Z"/><path class="cls-1" d="M63.69,69.05h0l-.61-.1h-.64A7.64,7.64,0,0,1,63.69,69.05Z"/><path class="cls-3" d="M63.52,54,56.26,70.33l-9.5-10.82-2.27,2.33L43,62.27s9.21,10.78,9.83,13.56.86,3.37.53,5.74A7.2,7.2,0,0,0,56.19,88c2,1.46,3.08.68,3.93,0a8.56,8.56,0,0,0,1.3-1.32A5.69,5.69,0,0,0,63,86.44c.5-.21,1.27-2,1.27-2L62.5,71.33l4.87-16.1Z"/><path class="cls-4" d="M62.5,71.33l4.43-14.65-1.13-2L63.52,54,56.26,70.33s3.22,4.08,3.53,4.63.27.69.94-.27c.41-.59,1.26-1.86,1.85-2.75Z"/><line class="cls-5" x1="65.08" y1="54.5" x2="57.44" y2="71.81"/><path class="cls-5" d="M44.49,61.84S54,73.68,55.2,75.33s.73,5.67.71,7.14a5.5,5.5,0,0,0,1.62,3.85c1,1.07,2.08,2.14,2.59,1.68s.59-.54.82-.77"/><path class="cls-5" d="M55.64,69.63c.1.11,4.15,5.33,4.15,5.33,1,.93,2.71-3.63,2.71-3.63"/><path class="cls-1" d="M79.41,68.59C75,65.28,70,66.72,69.29,72.42s-.9,8.22-2,10.62-4.36,3-5.07,3.38-2,10,7,13.91,11.77-7.46,11.53-7.49S79.41,68.59,79.41,68.59Z"/><path class="cls-2" d="M69.17,100.33c-9-4-7.66-13.51-7-13.91s4-1,5.07-3.38,1.25-4.91,2-10.62c.52-3.92,3-5.83,6-5.56L72,66.47l-.17,0c-2.73,0-4.82,1.94-5.31,5.64-.75,5.7-.9,8.22-2,10.61s-4.36,3-5.06,3.39-2.15,10.24,7,13.91a13.76,13.76,0,0,0,3.48.82l1.53.22A9.54,9.54,0,0,1,69.17,100.33Z"/><polyline class="cls-4" points="82.11 76.67 81.95 64.98 90.56 45.4 85.89 43.27 74.23 62.76"/><path class="cls-3" d="M74.23,62.76,63.89,47.66l-3.21,2.59-2,.32s10,15,10.33,18.61.57,4.38-.21,7.32a9.12,9.12,0,0,0,2.63,8.57c2.25,2.14,3.77,1.33,5,.57a11,11,0,0,0,1.84-1.45,7.77,7.77,0,0,0,2-.07c.67-.18,1.91-2.27,1.91-2.27l-.07-5.18"/><line class="cls-5" x1="87.78" y1="44.13" x2="75.49" y2="64.81"/><path class="cls-5" d="M73.55,61.78c.12.16,4.43,7.37,4.43,7.37C79.13,70.47,82,65,82,65"/><path class="cls-1" d="M88.81,68.85C83.92,66,79.07,68.1,79,74s.11,8.45-.72,11-4.06,3.56-4.72,4.06-.83,10.35,8.78,13.25,11-9,10.77-9S88.81,68.85,88.81,68.85Z"/><path class="cls-2" d="M82.35,102.31c-9.61-2.9-9.44-12.76-8.78-13.25s3.89-1.49,4.72-4.06S79,79.86,79,74c0-4,2.35-6.28,5.37-6.37H80.89c-2.77.32-4.65,2.57-4.69,6.38-.06,5.88.1,8.45-.73,11s-4,3.56-4.72,4.06-.91,10.65,8.78,13.25a14,14,0,0,0,3.64.4l1.57,0A10.22,10.22,0,0,1,82.35,102.31Z"/><path class="cls-1" d="M84.77,67.62h-.39C84.51,67.6,84.64,67.62,84.77,67.62Z"/><path class="cls-1" d="M85.11,102.76h0Z"/><path class="cls-6" d="M126.39,37.56c-5.23-3.48-10.32-5-11.36-3.46l-10,15c-1,1.57,2.35,5.66,7.58,9.14s10.31,5,11.35,3.46l10-15C135,45.13,131.61,41,126.39,37.56Z"/><path class="cls-5" d="M112,38.72c1-1.56,6.13,0,11.36,3.46s8.62,7.57,7.58,9.14"/><path class="cls-5" d="M112.9,37.3c1-1.56,6.13,0,11.36,3.46s8.62,7.57,7.57,9.14"/><path class="cls-5" d="M113.84,35.88c1-1.56,6.13,0,11.36,3.46s8.62,7.57,7.58,9.14"/><ellipse class="cls-6" cx="114.68" cy="55.14" rx="3.41" ry="11.37" transform="translate(5.24 120.06) rotate(-56.36)"/><ellipse class="cls-7" cx="114.23" cy="55.81" rx="2.6" ry="9.99" transform="translate(4.48 119.99) rotate(-56.36)"/><path class="cls-6" d="M96,30c-5.47-3.1-10.65-4.28-11.58-2.64L75.57,43c-.93,1.64,2.75,5.48,8.21,8.57s10.65,4.28,11.58,2.64l8.85-15.63C105.14,36.9,101.46,33.06,96,30Z"/><path class="cls-5" d="M81.69,32.16c.93-1.64,6.11-.46,11.57,2.64s9.14,6.93,8.21,8.57"/><path class="cls-5" d="M82.53,30.68c.93-1.64,6.11-.46,11.57,2.63s9.14,6.94,8.22,8.57"/><path class="cls-5" d="M83.37,29.19c.93-1.64,6.11-.46,11.57,2.64s9.14,6.93,8.22,8.57"/><ellipse class="cls-6" cx="85.58" cy="48.34" rx="3.41" ry="11.37" transform="translate(1.34 98.98) rotate(-60.47)"/><ellipse class="cls-6" cx="85.19" cy="49.04" rx="2.6" ry="9.99" transform="translate(0.53 98.99) rotate(-60.47)"/><polyline class="cls-4" points="105.18 86.91 106.09 77.97 118 55.36 112.81 51.96 97.74 73.82"/><path class="cls-3" d="M97.74,73.82,88.35,52.64l-4,2.8-2.28.07s9,21,8.87,25.69,0,5.74-1.3,9.39a13.28,13.28,0,0,0,1.69,11.48c2.22,3.13,4.05,2.35,5.48,1.57a12.42,12.42,0,0,0,2.28-1.57,7.65,7.65,0,0,0,2.29.26c.78-.13,2.47-2.61,2.47-2.61l1.31-12.81"/><line class="cls-5" x1="114.67" y1="53.12" x2="98.86" y2="76.67"/><path class="cls-5" d="M97.13,72.44c.1.23,3.89,10.23,3.89,10.23,1.09,1.9,5.07-4.7,5.07-4.7"/><path class="cls-1" d="M119.79,79.64c-1.44,4.17-6.66,7.17-8.22,11.21s0,9-5.22,9.92S95.66,93.2,98.4,85.25s5.34-6.13,7.56-8c.88-.73.17-8.38,2-10C114.4,61.21,121.22,75.46,119.79,79.64Z"/><path class="cls-2" d="M98.4,85.25c2.73-8,5.34-6.13,7.56-8,.88-.73.17-8.38,2-10a4.81,4.81,0,0,1,3.27-1.46H108a4.74,4.74,0,0,0-3.32,1.46c-1.78,1.66-1.07,9.31-2,10-2.22,1.83-4.83,0-7.57,8-2.54,7.38,2,15.2,6.82,15.57h3.61C100.63,100.87,95.79,92.82,98.4,85.25Z"/><path class="cls-3" d="M33.33,42.89c-5.24,3.66-8.59,7.89-7.5,9.46l10.44,15c1.1,1.57,6.23-.11,11.47-3.76s8.6-7.89,7.5-9.46l-10.44-15C43.71,37.56,38.57,39.24,33.33,42.89Z"/><path class="cls-5" d="M46.05,40.92c1.09,1.57-2.27,5.8-7.5,9.45s-10.38,5.34-11.47,3.77"/><path class="cls-5" d="M47,42.34c1.09,1.57-2.26,5.81-7.5,9.46s-10.38,5.33-11.47,3.76"/><path class="cls-5" d="M48,43.76c1.1,1.57-2.26,5.81-7.5,9.46S30.16,58.56,29.06,57"/><ellipse class="cls-6" cx="35.32" cy="45.74" rx="11.56" ry="3.47" transform="translate(-19.81 28.41) rotate(-34.88)"/><path class="cls-3" d="M46.73,27.79c-6.16,4.3-10.12,9.28-8.83,11.13L50.2,56.57c1.29,1.85,7.33-.14,13.5-4.44S73.82,42.85,72.53,41L60.24,23.36C59,21.51,52.9,23.49,46.73,27.79Z"/><path class="cls-5" d="M61.71,25.46C63,27.31,59,32.3,52.87,36.6S40.66,42.88,39.37,41"/><path class="cls-5" d="M62.87,27.14C64.16,29,60.21,34,54,38.27s-12.21,6.29-13.5,4.44"/><path class="cls-5" d="M64,28.81c1.29,1.85-2.66,6.84-8.83,11.14S43,46.23,41.7,44.38"/><ellipse class="cls-6" cx="49.07" cy="31.14" rx="13.61" ry="4.08" transform="translate(-8.99 33.65) rotate(-34.88)"/><path class="cls-3" d="M75.24,29.48c-7,2.78-12,6.73-11.15,8.83l8,20c.83,2.1,7.17,1.54,14.16-1.23s12-6.73,11.14-8.83l-8-20C88.56,26.15,82.22,26.71,75.24,29.48Z"/><path class="cls-5" d="M90.34,30.64c.84,2.09-4.15,6-11.14,8.82S65.88,42.79,65,40.69"/><path class="cls-5" d="M91.1,32.53c.83,2.1-4.16,6-11.14,8.83S66.63,44.69,65.8,42.59"/><path class="cls-5" d="M91.85,34.43c.83,2.1-4.15,6-11.14,8.82s-13.33,3.33-14.16,1.24"/><ellipse class="cls-6" cx="76.74" cy="33.28" rx="13.61" ry="4.08" transform="translate(-6.87 30.7) rotate(-21.68)"/><ellipse class="cls-8" cx="128.05" cy="85.58" rx="6.33" ry="11.31"/><ellipse class="cls-9" cx="129.09" cy="85.58" rx="2.05" ry="3.66"/><ellipse class="cls-9" cx="128.05" cy="78.68" rx="1.04" ry="1.86"/><ellipse class="cls-9" cx="124.87" cy="80.99" rx="1.04" ry="1.86"/><ellipse class="cls-9" cx="124.06" cy="85.58" rx="1.23" ry="2.19"/><ellipse class="cls-9" cx="128.05" cy="93.14" rx="1.04" ry="1.86"/><ellipse class="cls-9" cx="125.1" cy="91.28" rx="1.04" ry="1.86"/><ellipse class="cls-9" cx="131.14" cy="80.06" rx="1.04" ry="1.86"/><ellipse class="cls-9" cx="132.59" cy="85.58" rx="1.04" ry="1.86"/><ellipse class="cls-9" cx="131.14" cy="91.28" rx="1.04" ry="1.86"/><path class="cls-3" d="M121.73,85.58c0-6.25,2.83-11.31,6.32-11.31h-4.94c-3.49,0-6.32,5.06-6.32,11.31s2.83,11.3,6.32,11.3h4.94C124.56,96.88,121.73,91.82,121.73,85.58Z"/><path class="cls-3" d="M116.79,85.58a16.42,16.42,0,0,1,2-8.28h-7.43c-2.56,0-4.63,3.71-4.63,8.28s2.07,8.27,4.63,8.27h7.43A16.38,16.38,0,0,1,116.79,85.58Z"/><path class="cls-3" d="M41.4,85.58A25.25,25.25,0,0,1,41.26,83h-3c-.8,0-1.45,1.16-1.45,2.59s.65,2.58,1.45,2.58l3.56,0A22,22,0,0,1,41.4,85.58Z"/><path class="cls-9" d="M58.41,22.66a2.11,2.11,0,0,1,1.83.7h0l1.47,2.1h0l1.16,1.68h0L64,28.81l3.37,4.83a30.61,30.61,0,0,1,3-1.9c.72-.4,1.48-.79,2.29-1.17s1.64-.74,2.52-1.09a42.85,42.85,0,0,1,5-1.66,31,31,0,0,1,3.35-.67c.36,0,.71-.09,1.05-.11a2.54,2.54,0,0,1,1.68-.44c2.19,0,5.84,1.22,9.64,3.37,5.46,3.09,9.14,6.93,8.21,8.57l-1.89,3.34h0l-7,12.29c-.29.5-1,.74-1.93.74a10,10,0,0,1-2.13-.28c-.54.3-1.09.6-1.67.89l7.5,16.92,1.09.67L109.9,56.17c-3.6-2.91-5.67-5.84-4.82-7.11l.12-.18s0,0,0,0,0,0,0,0L115,34.1a1.85,1.85,0,0,1,1.61-.61c2.14,0,5.9,1.52,9.75,4.07C131.61,41,135,45.13,134,46.7l-1.18,1.78h0l-.95,1.42-.94,1.42L124,61.66a1.83,1.83,0,0,1-1.61.61A16.74,16.74,0,0,1,115.58,60l-3.17,6c3.47,1,6.4,6.15,7.29,10.1a4.55,4.55,0,0,1,3.41-1.8h4.94c3.49,0,6.33,5.06,6.33,11.31s-2.84,11.3-6.33,11.3h-4.94c-1.66,0-3.17-1.15-4.3-3h-7.43a2.24,2.24,0,0,1-.52-.06c-.49,3.22-.52,6.28-4.51,7a4.62,4.62,0,0,1-.74.06H103c-.54.68-1.22,1.43-1.64,1.5a2.25,2.25,0,0,1-.38,0,9.27,9.27,0,0,1-1.91-.29,12.42,12.42,0,0,1-2.28,1.57,4.57,4.57,0,0,1-2.16.7c-1,0-2.09-.54-3.32-2.27a10.9,10.9,0,0,1-1-1.7,6.61,6.61,0,0,1-4.86,2.38h-.39c-.28,0-.56,0-.86-.05l-.1,0,.1,0,.48,0-1.57,0a14,14,0,0,1-3.64-.4,13,13,0,0,1-4-1.79,6.32,6.32,0,0,1-2.81.64,7.49,7.49,0,0,1-1.3-.12l-1.53-.22a13.76,13.76,0,0,1-3.48-.82,11.34,11.34,0,0,1-6.78-6.87c-.88.72-2.81,2.22-3.67,2.22a.45.45,0,0,1-.24-.06l-1.38.06a1.32,1.32,0,0,1-.3,0,1.39,1.39,0,0,1-.54-.09,7,7,0,0,1-2.38-3.09c-.78.65-2.79,2.24-3.66,2.24a.47.47,0,0,1-.24,0l-1.33,0a.79.79,0,0,1-.28,0,1.33,1.33,0,0,1-.53-.09c-.59-.37-2.43-1.89-3.34-6.3v0l-3.56,0c-.8,0-1.45-1.15-1.45-2.58S37.41,83,38.21,83h3c0,.8,0,1.36.11,2.26v0a33.27,33.27,0,0,1-.1-3.84c.15-5.94,3.5-10.46,7.52-11.93-1.18-1.55-2.42-3.1-3.46-4.37-3,1.78-5.8,2.81-7.51,2.81a1.79,1.79,0,0,1-1.55-.59l-10.44-15c-1.09-1.57,2.26-5.8,7.5-9.46a34.19,34.19,0,0,1,5.23-3l-.66-.95h0c-.72-1,.21-3.07,2.26-5.41a30.47,30.47,0,0,1,2.41-2.43,42.23,42.23,0,0,1,4.16-3.29A46.1,46.1,0,0,1,51.26,25c.73-.38,1.44-.72,2.12-1a13.86,13.86,0,0,1,5-1.35M74.58,62.17l1.57-2.63-.66,0c-1.85,0-3.11-.41-3.45-1.27l-3.87-9.74q-1.07,1-2.31,2l7.69,11.25,1,.39m-18,7.35,5.82-13.1c-.55-.89-1.08-1.73-1.56-2.48a29.7,29.7,0,0,1-6.11,2.82,22.49,22.49,0,0,1-5.46,5.65l5.86,6.68a8,8,0,0,1,1.45.43M84,67.61l-.37.07a4.17,4.17,0,0,1,.71-.07H84l.18,0a.41.41,0,0,1,.16,0c.81.17,1.79.26,2.76.47-1.07-2.85-2.18-5.64-3.09-7.87l-2.94,6.63.25.76H84M67,70.32a6.05,6.05,0,0,1,1.65-2.66,50.37,50.37,0,0,0-3.12-6.17L63.21,69l.47.07h0A8.3,8.3,0,0,1,67,70.32m16.21-2.54-.28.07.28-.07.32-.07-.32.07m-.36.09a4.39,4.39,0,0,0-.63.26,4.39,4.39,0,0,1,.63-.26m-.79.34h0m-33,2.21-.06,0,.06,0,.12-.08-.12.08m-1.52,1.19c-.05,0-.11.1-.16.16h0c.05-.06.11-.11.16-.16m21.76.81a1,1,0,0,1,0-.17h0a1.13,1.13,0,0,0,0,.18m-22.59,0h0m-.61.77-.14.2.14-.2m-.69,1.05h0m-.6,1.14a2.56,2.56,0,0,1,.11-.24,2.56,2.56,0,0,0-.11.24M91,81.55c0-.12,0-.23,0-.35a16.18,16.18,0,0,0-.76-4.09c.24,1.43.49,2.93.75,4.44M44,77.44s0,.1,0,.15l0,.11,0-.11s0-.1,0-.15m-.33,1.35h0m-.18,1.14a1.11,1.11,0,0,1,0,.17.49.49,0,0,1,0,.12.49.49,0,0,0,0-.12,1,1,0,0,0,0-.17m73.3,4.46,0-.29,0,.29M41.58,87.05c-.07-.48-.14-1-.19-1.53v.06c.05.61.11,1,.18,1.47m75.27,0,0-.29,0,.29m.11,1.14,0-.27,0,.27m-72.8,1c-.09-.35-.18-.71-.26-1.09.08.38.17.74.26,1.09m73,.1a1.18,1.18,0,0,1,0-.2,1.18,1.18,0,0,0,0,.2M44.6,90.55q-.15-.42-.3-.9.15.48.3.9m72.76-.28,0-.14,0,.14M45.27,92c-.17-.31-.34-.67-.51-1.07.17.4.34.76.51,1.07m72.37-.79a.14.14,0,0,0,0-.07.14.14,0,0,1,0,.07m.34.92v0m-72.2.71c-.11-.16-.23-.34-.34-.53.11.19.23.37.34.53m.49.64c-.1-.12-.21-.25-.32-.4.11.15.22.28.32.4m.8.75a4,4,0,0,1-.5-.43,4,4,0,0,0,.5.43m22.82,6.36-.71-.28.71.28m.48.16.21.06-.21-.06-.22-.07.22.07m1.07.26-.56-.12.56.12m11.68,1.47c-.25-.06-.51-.12-.77-.2.26.08.52.14.77.2m.52.1.2,0-.2,0-.25,0,.25,0M58.41,21.16h0a15.72,15.72,0,0,0-5.63,1.47c-.71.31-1.46.67-2.21,1.06a43.79,43.79,0,0,0-4.69,2.87A44.79,44.79,0,0,0,41.56,30,31.65,31.65,0,0,0,39,32.52c-3,3.39-3.18,5.5-2.65,6.75a38.1,38.1,0,0,0-3.92,2.39A31.31,31.31,0,0,0,26,47.47c-1.92,2.42-2.4,4.35-1.43,5.74L35,68.19a3.15,3.15,0,0,0,2.78,1.23A16.89,16.89,0,0,0,45,67l1.5,1.89c-3.94,2.32-6.56,7.08-6.7,12.44v.12H38.21c-1.68,0-3,1.75-3,4.09s1.27,4.08,3,4.08l2.38,0c1.14,4.15,3.11,5.65,3.73,6a2.59,2.59,0,0,0,1.32.32,3.57,3.57,0,0,0,.47,0l.94,0a2.12,2.12,0,0,0,.44,0c.37,0,1.16,0,3.2-1.48a7.1,7.1,0,0,0,2.05,2.11,2.63,2.63,0,0,0,1.33.31,2.49,2.49,0,0,0,.49,0l1,0a2.3,2.3,0,0,0,.45,0c.37,0,1.13,0,3.07-1.37a13.11,13.11,0,0,0,6.82,5.91,10.21,10.21,0,0,0,2.78.74l1,.16h.08l1.5.21a9.09,9.09,0,0,0,1.54.14,7.67,7.67,0,0,0,2.66-.46,14.76,14.76,0,0,0,3.73,1.56,10.92,10.92,0,0,0,2.91.4c.3,0,.61,0,1,0h.09l1.57,0h0l.39,0h.38l1.53,0v-.23a7.64,7.64,0,0,0,3-1.33l.14.2c1.38,2,2.87,2.9,4.54,2.9a5.93,5.93,0,0,0,2.88-.89,16,16,0,0,0,2-1.26,8,8,0,0,0,1.52.17,3.89,3.89,0,0,0,.62,0,3.84,3.84,0,0,0,2.1-1.48h3.12l0-.14c4.2-.86,4.86-4.08,5.26-6.84H118a6.37,6.37,0,0,0,5.11,3h4.94c4.39,0,7.83-5.62,7.83-12.8s-3.44-12.81-7.83-12.81h-4.94a5.26,5.26,0,0,0-2.62.71c-1.19-3.3-3.36-6.63-6-8.22l1.74-3.3a15.58,15.58,0,0,0,6.18,1.81,3.19,3.19,0,0,0,2.86-1.28l6.88-10.34.94-1.42.95-1.42,1.18-1.78c2.15-3.22-4-8.57-8-11.22S119.16,32,116.64,32a3.19,3.19,0,0,0-2.86,1.28l-9.69,14.56h0L104,48a.57.57,0,0,0-.08.13l-.06.09c-1.66,2.49,1.7,6.11,4.06,8.21L98,70.76,91.58,56.22a10.85,10.85,0,0,0,1.85.19c2,0,2.84-.82,3.23-1.5l7-12.29,1.89-3.34c.83-1.46.18-3.32-1.93-5.52a31,31,0,0,0-6.84-5.1c-3.95-2.23-7.83-3.56-10.38-3.56a4.42,4.42,0,0,0-2.2.48l-.74.09a31.21,31.21,0,0,0-3.52.7,44.77,44.77,0,0,0-5.22,1.72c-.89.35-1.76.73-2.6,1.13s-1.62.79-2.38,1.21-1.31.75-1.91,1.14L65.27,28,64.1,26.28l-1.16-1.67L61.47,22.5a3.47,3.47,0,0,0-3.06-1.34ZM55.75,58A31.1,31.1,0,0,0,60.38,56l.37.59-4.91,11-4.38-5A23.3,23.3,0,0,0,55.75,58Zm27.33,8.09.9-2c.28.71.56,1.41.82,2.09l-.1,0a2.44,2.44,0,0,0-.48,0l-.28,0Zm-18,1.73.76-2.5c.39.75.71,1.42,1,2a7.1,7.1,0,0,0-.61.9,9.35,9.35,0,0,0-1.12-.4Z"/></g></svg>