<svg xmlns="http://www.w3.org/2000/svg" viewBox="0 0 160 127"><defs><style>.cls-1,.cls-7{fill:#6d6e71;}.cls-10,.cls-2{fill:#231f20;}.cls-3{fill:#414042;}.cls-10,.cls-3,.cls-5,.cls-7,.cls-8,.cls-9{stroke:#231f20;}.cls-10,.cls-3,.cls-7,.cls-8,.cls-9{stroke-miterlimit:10;}.cls-4,.cls-5{opacity:0.4;}.cls-5,.cls-8{fill:none;}.cls-5{stroke-linecap:round;stroke-linejoin:round;}.cls-6{fill:#fff;}.cls-9{fill:#939598;}</style></defs><g id="exhaust"><path class="cls-1" d="M70.26,99c-3.72,0-7.93-1.87-11.86-5.26a22.77,22.77,0,0,1-13.09-6.94c-6.2-6.44-8.28-12.87-8.15-16.74a3.71,3.71,0,0,1,.72-2.42c.58-.53,4.92-3,6.76-4,.08-6.88,2.59-12,6.92-14.06L79,34.29a10.71,10.71,0,0,1,5.55-5.23A11.33,11.33,0,0,1,89.4,28a18.48,18.48,0,0,1,10.29,3.66,7.13,7.13,0,0,1,.7-.45,9.55,9.55,0,0,1,4.4-.94A20,20,0,0,1,110,31c5.79,1.6,10.3,11.76,10.49,12.19,2.91,6.7,4.63,16-3.64,22.5-.06,7.44-2.74,13-7.38,15.16a10.73,10.73,0,0,1-4.69,1h0c-.38,0-.76,0-1.15,0L74.7,98A10.08,10.08,0,0,1,70.26,99Z"/><path class="cls-2" d="M89.4,28.73c7,0,15.22,6.11,20.82,16.08A40.1,40.1,0,0,0,99.86,32.44c.38-.27.7-.49.88-.59a8.5,8.5,0,0,1,4.05-.85,18.77,18.77,0,0,1,5,.76c5.51,1.52,10,11.76,10,11.76,6.5,15-2.55,20.88-3.7,21.84,0,7-2.35,12.65-7,14.85a10,10,0,0,1-4.36,1,11.62,11.62,0,0,1-1.31-.07L74.33,97.37a9.44,9.44,0,0,1-4.07.89c-3.67,0-7.75-1.9-11.54-5.22a21.88,21.88,0,0,1-12.87-6.75c-8.83-9.17-8.4-17.24-7.47-18.08.38-.35,3.44-2.12,7-4.08,0-6.53,2.19-11.78,6.5-13.83L81.82,33.56l-2.28,1.27a10,10,0,0,1,5.29-5.09,10.49,10.49,0,0,1,4.57-1m0-1.5h0a12.11,12.11,0,0,0-5.22,1.15,11.72,11.72,0,0,0-5.79,5.37L51.2,49c-4.49,2.17-7.12,7.34-7.3,14.28-2.47,1.37-5.95,3.33-6.53,3.86a4.08,4.08,0,0,0-1,2.94c-.06,2,.35,9,8.36,17.29a23.56,23.56,0,0,0,13.3,7.13c4,3.42,8.34,5.3,12.19,5.3a10.9,10.9,0,0,0,4.72-1l0,0,0,0,28.69-16.05,1,0a11.58,11.58,0,0,0,5-1.1c4.83-2.31,7.66-7.92,7.8-15.47,6.51-5.28,7.78-13.49,3.58-23.17-.49-1.12-4.94-11-11-12.61a20.26,20.26,0,0,0-5.38-.81,10.23,10.23,0,0,0-4.75,1,3.68,3.68,0,0,0-.36.21A18.88,18.88,0,0,0,89.4,27.23Z"/><path class="cls-3" d="M111.7,47.64C105,33.54,93,25.85,84.83,29.74c-2.32,1.11-4.67,2-5.83,4.56l2.82-.74c7.58-3.62,18.74,4,24.94,17s5.08,26.46-2.5,30.08l-.43,1c2,.22,3.54-.61,5.28-1.44C117.26,76.32,118.42,61.74,111.7,47.64Z"/><g class="cls-4"><path class="cls-2" d="M56,49.4v1h0c6.88,0,15.09,7.12,20,17.32,5.95,12.48,5,25.37-2,28.75a8.42,8.42,0,0,1-3.66.8c-6.88,0-15.09-7.13-19.95-17.32-5.95-12.48-5-25.38,2-28.75A8.42,8.42,0,0,1,56,50.4v-1m0,0a9.36,9.36,0,0,0-4.09.9c-7.58,3.61-8.7,17.08-2.5,30.08,5.15,10.81,13.75,17.89,20.85,17.89a9.36,9.36,0,0,0,4.09-.9c7.58-3.62,8.7-17.08,2.5-30.08C71.68,56.48,63.09,49.4,56,49.4Z"/></g><path class="cls-5" d="M57.24,46.66C64.82,43,76.1,50.88,82.43,64.16s5.32,27-2.26,30.58"/><g class="cls-4"><path class="cls-6" d="M89.47,89.43c4.11-6,3.62-17.28-1.63-28.29C82.48,49.89,73.47,42,65.93,42h-.28l7.42-3.91a8.79,8.79,0,0,1,3.75-.81c7.14,0,15.72,7.53,20.86,18.31,6.27,13.13,5.41,26.66-1.91,30.15Z"/><path class="cls-2" d="M76.82,37.82h0c7,0,15.35,7.41,20.41,18,3,6.33,4.46,12.92,4.07,18.57-.38,5.45-2.42,9.32-5.75,10.9l-.07,0-4.65,2.7c3.14-6.43,2.34-16.9-2.54-27.13C83.21,50.27,74.85,42.61,67.48,41.64l5.79-3a8.23,8.23,0,0,1,3.55-.77m0-1a9.18,9.18,0,0,0-4,.87L62,43.4a9.1,9.1,0,0,1,3.94-.86c7.19,0,16,7.48,21.46,18.82,6.09,12.77,5.62,25.86-.82,30.33L96,86.23c7.58-3.62,8.54-17.41,2.15-30.81C92.79,44.2,84,36.82,76.82,36.82Zm9.75,54.87-1.22.71a7.77,7.77,0,0,0,1.22-.71Z"/></g><path class="cls-3" d="M119.77,43.52s-4.49-10.24-10-11.76-8.21-.34-9,.09c-.18.1-.5.32-.88.59a41.76,41.76,0,0,1,11.84,15.2,42.4,42.4,0,0,1,4.37,17.72C117.22,64.4,126.27,58.51,119.77,43.52Z"/><path class="cls-7" d="M65,92.92s5.09-3.45,6.45-4.3S78.75,79.51,72,68,58.84,57.93,57.48,58s-18.17,9.34-19.1,10.19S37,77.12,45.85,86.29,65,92.92,65,92.92Z"/><path class="cls-8" d="M65.84,92.38c0-9.65-4.8-16.45-11.68-21.54s-13.25-4.2-13.25-4.2"/><path class="cls-9" d="M40.92,69.39a11.79,11.79,0,0,1,9.85-.63,18.38,18.38,0,0,0-9.86-2.12,26.06,26.06,0,0,0-2.54,1.57C37.48,69,37.07,76.4,44.7,85,38.08,75.77,39.57,70.16,40.92,69.39Z"/><path class="cls-9" d="M56.11,72.38c6.86,7,7,19.13,7,19.13A20.32,20.32,0,0,1,50.43,90,20.61,20.61,0,0,0,65,92.92l.81-.54C65.8,83.67,61.92,77.29,56.11,72.38Z"/><path class="cls-10" d="M56,72.3c-7-6.94-13.76-3.67-15.11-2.91s-2.84,6.39,3.8,15.68,18.39,6.44,18.39,6.44S63,79.24,56,72.3Z"/></g></svg>