<svg xmlns="http://www.w3.org/2000/svg" viewBox="0 0 160 127"><defs><style>.cls-1{fill:#231f20;}.cls-2{fill:#e25350;}.cls-2,.cls-3,.cls-5,.cls-6,.cls-7,.cls-8{stroke:#231f20;stroke-miterlimit:10;}.cls-3{fill:#eb1d25;}.cls-4{fill:#58595b;}.cls-5{fill:#414042;}.cls-6{fill:#27aae1;}.cls-7{fill:#d1d3d4;}.cls-8{fill:#fff;}</style></defs><g id="fuel"><path class="cls-1" d="M91.65,34.1l18.22,19.69a.16.16,0,0,1,0,.11l0,4.75,15,22.16L112.8,87.88l-2.32,4a.26.26,0,0,1-.21.11.24.24,0,0,1-.18-.09l-.9-1.16c-2.42,2.73-4.79,3.76-7.07,3.76-4.09,0-7.87-3.32-11-6.11S84.2,82.72,82.49,81l-.41.26a.79.79,0,0,1-.39.11.72.72,0,0,1-.4-.12l-6.35-4L72.33,64.38l-3.76-3.59.83-17,12.15-7.93,4.34,1.73,5.76-3.47m0-1.5a1.55,1.55,0,0,0-.78.21L85.75,35.9,82.1,34.45a1.5,1.5,0,0,0-.55-.11,1.52,1.52,0,0,0-.82.25L68.58,42.51a1.52,1.52,0,0,0-.68,1.19l-.83,17a1.49,1.49,0,0,0,.47,1.16L71,65.13l2.52,12.42a1.48,1.48,0,0,0,.67,1l6.35,4a2.22,2.22,0,0,0,1.71.29c1,.92,2.31,2,3.77,3.2s2.75,2.28,4.12,3.49c3.28,2.89,7.37,6.48,12,6.48a10.23,10.23,0,0,0,6.95-3,1.72,1.72,0,0,0,1.2.48,1.74,1.74,0,0,0,1.5-.85L113.9,89l11.75-6.88a1.49,1.49,0,0,0,.7-1,1.46,1.46,0,0,0-.22-1.17L111.44,58.19l0-4.3a1.71,1.71,0,0,0-.44-1.12L92.75,33.08a1.49,1.49,0,0,0-1.1-.48Z"/><path class="cls-1" d="M124.87,81.21a.13.13,0,0,1,.1.2l-2.94,4,0,0L110.58,92h0a.07.07,0,0,1-.06-.1l2.37-4,0,0,11.93-6.65h.07m0-1.5a1.72,1.72,0,0,0-.8.2l-11.93,6.65a1.31,1.31,0,0,0-.32.25,2.16,2.16,0,0,0-.27.33l-2.36,4a1.57,1.57,0,0,0,1.35,2.36,1.62,1.62,0,0,0,.78-.2l11.44-6.59.25-.19a1.31,1.31,0,0,0,.23-.24l2.94-4a1.65,1.65,0,0,0,.14-1.71,1.62,1.62,0,0,0-1.45-.89Z"/><path class="cls-1" d="M62.17,32.55h.55a10.75,10.75,0,0,1,1.6.08c1.32.31,9.41,5.42,11.65,6.85L69.4,43.77l-.54,11.17L58.31,48.6,36.48,42.8s-3.95-3.32,0-9.43l.87,0h0l.38,0,2-.08h0l.83,0,.5,0h.34l.62,0h.39l.42,0,.65,0,.57,0,.34,0,.68,0,.57,0,.56,0,2.28-.09H49l.65,0,.6,0,.58,0,.61,0,.63,0h.55l.57,0,.64,0,.47,0,.7,0h.39l1.18,0h.52l.52,0h4.56m0-1.5H56.53l-1.18,0H55l-.7,0h-.48l-.63,0-.58,0H52l-.63,0H50.2l-.6,0-.49,0h-.32l-.36,0-2.29.08H45l-.68,0-.33,0H42.77l-.42,0H42l-.35,0H40.5l-.52,0h-.35l-1.93.07h-.38l-.9,0a1.5,1.5,0,0,0-1.2.68c-3.69,5.72-1.42,10,.3,11.4a1.46,1.46,0,0,0,.58.3L57.72,50l10.36,6.22A1.5,1.5,0,0,0,70.35,55l.51-10.4,5.93-3.87a1.49,1.49,0,0,0,.68-1.27,1.5,1.5,0,0,0-.69-1.26c-6.94-4.41-11-6.78-12.11-7a9,9,0,0,0-2-.12h-.55Z"/><polygon class="cls-2" points="112.81 87.88 125.27 80.93 109.94 58.65 97.58 66.11 112.81 87.88"/><path class="cls-3" d="M97.45,60.79l12.42-6.93a0,0,0,0,1,0,0l0,4.76L97.58,66.11Z"/><path class="cls-2" d="M97.45,60.79l12.41-6.93a0,0,0,0,0,0-.07L91.65,34.1,79.28,41.56Z"/><polygon class="cls-2" points="81.55 35.84 85.89 37.57 79.28 41.56 74.95 46.22 69.4 43.77 81.55 35.84"/><path class="cls-3" d="M110.09,91.85,95.56,73,82.08,81.23a.75.75,0,0,1-.79,0l-6.35-4L72.33,64.38l-3.76-3.59.83-17L75,46.22l4.33-4.66L97.45,60.79l.13,5.32L112.8,87.88l-2.32,4A.24.24,0,0,1,110.09,91.85Z"/><path class="cls-4" d="M102.12,95c-4.29,0-8.21-3.46-11.37-6.23-1.39-1.23-2.86-2.44-4.15-3.51-1.89-1.56-3.52-2.9-4.52-3.94l-.43-.45,14-8.52,14.16,18.41-.27.31c-2.32,2.61-4.82,3.93-7.45,3.93Z"/><path class="cls-1" d="M95.56,73l13.63,17.73c-2.42,2.73-4.79,3.76-7.07,3.76-4.09,0-7.87-3.32-11-6.11-3.34-2.94-7-5.67-8.64-7.42l13.12-8m.24-1.32-.76.47-13.12,8-1.07.65.87.9c1,1,2.66,2.41,4.56,4,1.36,1.13,2.76,2.29,4.14,3.5,3.22,2.84,7.22,6.36,11.7,6.36,2.78,0,5.41-1.38,7.82-4.1l.55-.62-.5-.65L96.35,72.35l-.55-.71Z"/><path class="cls-5" d="M95.56,73l-9.22,5.65c1.41,1.37,3,2.89,4.74,4.4,4.35,3.83,9.84,8.64,15.7,4.54Z"/><path class="cls-6" d="M92.3,75c8.14,8.85,7.29,13.6,7.27,13.74a7.86,7.86,0,0,0,7.21-1.15L95.56,73Z"/><path class="cls-7" d="M69.4,43.77,76,39.48c-2.24-1.43-10.33-6.54-11.65-6.85-1.53-.37-27.84.74-27.84.74-3.95,6.11,0,9.43,0,9.43l21.83,5.8,10.55,6.34Z"/><path class="cls-8" d="M62.72,32.55c-6,0-26.24.82-26.24.82-3.95,6.11,0,9.43,0,9.43l21.83,5.8S53.17,39.72,62.72,32.55Z"/><path class="cls-2" d="M110.48,91.9l2.37-4s0,0,0,0l12.18-6.78c.06,0,.13,0,.09.1L122,85.39l0,0L110.58,92A.08.08,0,0,1,110.48,91.9Z"/></g></svg>