<svg xmlns="http://www.w3.org/2000/svg" viewBox="0 0 160 127"><defs><style>.cls-1{fill:#6d6e71;}.cls-1,.cls-2,.cls-3,.cls-4,.cls-6,.cls-7{stroke:#231f20;stroke-miterlimit:10;}.cls-2{fill:#3f3d3e;}.cls-3{fill:#eb1d25;}.cls-4{fill:#bcbec0;}.cls-5{fill:#231f20;}.cls-6{fill:#f1f2f2;}.cls-7{fill:none;stroke-linecap:round;}</style></defs><g id="Layer_10" data-name="Layer 10"><path class="cls-1" d="M78.76,57.1C92.41,57.1,117,66.48,117,80.78S94.78,105.3,80.09,105.3,43,97.66,43,82.18,65.11,57.1,78.76,57.1Z"/><path class="cls-2" d="M78.76,57.1C92.41,57.1,117,65.38,117,78S94.78,99.5,80.09,99.5,43,92.88,43,79.23,65.11,57.1,78.76,57.1Z"/><path class="cls-1" d="M90.74,80.09V75.21H69.2v5c0,2.51,4.82,4.54,10.78,4.54s10.77-2,10.77-4.54C90.75,80.15,90.74,80.12,90.74,80.09Z"/><ellipse class="cls-2" cx="79.98" cy="75.22" rx="10.84" ry="4.54"/><path class="cls-1" d="M88.49,73.85V70h-17v3.92c0,2,3.81,3.59,8.52,3.59s8.51-1.61,8.51-3.59Z"/><ellipse class="cls-2" cx="79.98" cy="70" rx="8.57" ry="3.59"/><path class="cls-3" d="M83.71,52.77H76.1V68.29s.48,1.17,3.57,1.17,4-1.17,4-1.17Z"/><path class="cls-4" d="M95.51,39.58C93.28,51.49,85.3,60.21,80.3,61.7S57.77,53.25,65.63,31.08C72.75,11,97.74,27.68,95.51,39.58Z"/><path class="cls-5" d="M77.21,21.7c9.31,0,19.78,10,18.3,17.88a35.43,35.43,0,0,1-9.35,18.17C99.78,59.92,117,67.43,117,78a9.94,9.94,0,0,1-.09,1.34,11.52,11.52,0,0,1,.09,1.45c0,14.3-22.24,24.52-36.93,24.52S43,97.66,43,82.18c0-.53,0-1.05.08-1.57A12.48,12.48,0,0,1,43,79.23c0-11.18,14.84-18.88,27.71-21.31-5.36-4.68-9.77-13.56-5.06-26.84C68,24.3,72.47,21.7,77.21,21.7m0-1.5c-6,0-10.62,3.69-13,10.38C59.38,44.23,64,52.77,67.68,57c-13.09,3.13-26.2,11.07-26.2,22.2a13.47,13.47,0,0,0,.07,1.39c0,.55-.07,1.07-.07,1.56,0,16.06,22.42,24.62,38.61,24.62,7.79,0,17.27-2.73,24.73-7.11,8.84-5.18,13.7-11.9,13.7-18.91a12.3,12.3,0,0,0-.08-1.45,10.66,10.66,0,0,0,.08-1.34c0-5.35-3.83-10.38-11.07-14.56A62.38,62.38,0,0,0,89.1,56.76,37.43,37.43,0,0,0,97,39.86c.67-3.58-.68-7.62-3.8-11.39-4.17-5-10.44-8.27-16-8.27Z"/><path class="cls-6" d="M65.63,31.08A38,38,0,0,0,64.47,35h0a65.43,65.43,0,0,0,3.38,5.86c3,4.84,9.47,5.81,10.59,2.71a18.46,18.46,0,0,1,6.44-8.15c2.68-1.88,7.63-1,7.77-5.15v0C86.17,21.56,70.94,16.1,65.63,31.08Z"/><path class="cls-7" d="M75.74,25.2a26.21,26.21,0,0,0-4.36,3.18L80,33.32"/><path class="cls-7" d="M85.65,30c-4.74,1.11-9.1,7.93-9.1,7.93"/><path class="cls-7" d="M81.33,27.15c-4.75,1.1-9.1,7.93-9.1,7.93"/><circle class="cls-5" cx="71.48" cy="36.61" r="0.68"/><circle class="cls-5" cx="75.55" cy="39.69" r="0.68"/><circle class="cls-5" cx="83.24" cy="26.73" r="0.68"/><circle class="cls-5" cx="87.61" cy="29.51" r="0.68"/><circle class="cls-5" cx="77.27" cy="24.66" r="0.68"/></g></svg>