<svg xmlns="http://www.w3.org/2000/svg" viewBox="0 0 160 127"><defs><style>.cls-1{fill:#d1d3d4;}.cls-1,.cls-2,.cls-3,.cls-4,.cls-5,.cls-6{stroke:#231f20;stroke-miterlimit:10;}.cls-2,.cls-3{fill:#fff;}.cls-3{stroke-width:1.5px;}.cls-4{fill:#58595b;}.cls-5{fill:#414042;}.cls-6{fill:#a7a9ac;}.cls-7{fill:#231f20;}</style></defs><g id="interior_handle" data-name="interior handle"><path class="cls-1" d="M106.24,67.68,53.88,39.36a5,5,0,0,0-4.8-.08l-.4.22a4.86,4.86,0,0,0-1.62,1.55l-1.53,1.38h0A5.18,5.18,0,0,0,44,46.15l1.07,23a5.23,5.23,0,0,0,2.73,4.59l51.91,32.1a4.84,4.84,0,0,0,4.1.12,3.83,3.83,0,0,0,1.94-1.69l1.33-1.2h0a4.52,4.52,0,0,0,1.58-3.45V71.7A4.57,4.57,0,0,0,106.24,67.68Z"/><path class="cls-2" d="M47.78,73.77l51.91,32.1a4.57,4.57,0,0,0,6.75-4V73.9a4.57,4.57,0,0,0-2.4-4L51.68,41.56A5.21,5.21,0,0,0,44,46.15l1.07,23A5.23,5.23,0,0,0,47.78,73.77Z"/><path class="cls-3" d="M51,72.88l43.79,26c2.77,1.5,3.81-.51,3.81-3.65l-.46-18.59c0-3.53-5.17-5.78-6.51-6.51L51,46.26c-3.16-1.71-3.17,1.44-3.17,5l.71,17.41A4.76,4.76,0,0,0,51,72.88Z"/><path class="cls-4" d="M111.68,60.88C105.6,57.2,70,37.08,69,36.23s-3.63-2.17-4.81-1.52c-1,.54-7.16,3.89-9.3,5.17l51.39,27.8a4.57,4.57,0,0,1,2.29,3.11c1.81-1.38,5-3.66,7.1-5.13A8.09,8.09,0,0,0,111.68,60.88Z"/><path class="cls-5" d="M108.64,95.14c2.07-1.1,7.27-4,7.34-5,.09-1.27,0-15.45,0-20.77a13.28,13.28,0,0,0-.35-3.75c-2.13,1.47-5.29,3.75-7.1,5.13a4.53,4.53,0,0,1,.11.91Z"/><path class="cls-5" d="M98.18,76.56c0-3.54-5.17-5.79-6.51-6.51l-22.18-13S69,65.77,72.23,67.44L98.29,80.77Z"/><path class="cls-1" d="M98.29,80.77,72.23,67.44C69,65.77,69.49,57.05,69.49,57.05l22.18,13L57.37,50c-.72,12.18-1.82,16.27,4.81,20.84,7.16,4.93,22.05,12.59,27.07,14.82s5.3,2,5.3,5.68c0,2.37.16,4.9.27,7.5h0c2.77,1.49,3.81-.51,3.81-3.66Z"/><path class="cls-6" d="M97.81,82.51s.87,11.83.82,13.16-.46,3.12-1.34,3.63A2.1,2.1,0,0,1,95,99c-.41-.35-.37-4.42-.37-4.42s0-4-.18-5.4-2.62-2.52-2.62-2.52l1-.62Z"/><path class="cls-7" d="M62.84,29.54a9,9,0,0,1,4.59,1.93c1.15,1,41.73,23.88,48.65,28.08a9.17,9.17,0,0,1,4.5,5.44,14.85,14.85,0,0,1,.41,4.27c0,6.06.09,22.21,0,23.66-.08,1.15-6,4.4-8.37,5.65v5.14a5.12,5.12,0,0,1-1.8,3.92h0L109.3,109h0a4.33,4.33,0,0,1-2.13,1.9,5.25,5.25,0,0,1-2.28.52,5.12,5.12,0,0,1-2.45-.62h0L43.3,74.22a5.75,5.75,0,0,1-1.3-.94A6,6,0,0,1,40.19,69L39,42.76h0A6,6,0,0,1,39,42l0-.22c0-.17.07-.34.11-.5a1.55,1.55,0,0,1,.06-.23,4.88,4.88,0,0,1,.18-.54s0-.08.05-.13a6.36,6.36,0,0,1,.3-.58c0-.08.09-.15.14-.23l.22-.33.18-.23.27-.31.18-.19h0L42.48,37a5.64,5.64,0,0,1,1.85-1.77l.45-.25a5.64,5.64,0,0,1,2.63-.66,5.92,5.92,0,0,1,2.84.75l1.1.59c2.44-1.45,9.48-5.27,10.6-5.88a1.8,1.8,0,0,1,.89-.2m48,38.41,0,0,0,0-.08-.06.08.06m.77.84v0l0,0,0,0m1,3.08a5.09,5.09,0,0,0,0-.56,5.09,5.09,0,0,1,0,.56M62.84,28a3.26,3.26,0,0,0-1.62.39l-1.1.6c-2.18,1.18-6.46,3.52-8.8,4.87L51,33.71a7.33,7.33,0,0,0-3.55-.93,7.17,7.17,0,0,0-3.33.83l-.48.27,0,0h0A7.11,7.11,0,0,0,41.34,36l-1.61,1.45-.62.56,0,.1-.22.29-.29.42,0,.05-.15.24c-.14.25-.26.49-.37.73L38,40a5.16,5.16,0,0,0-.23.66c0,.09-.05.17-.07.25-.06.25-.1.45-.14.67s0,.2,0,.28a6.65,6.65,0,0,0-.06.85h0v.13L38.69,69a7.37,7.37,0,0,0,3.86,6.49l59.09,36.55,0,0,0,0,.06,0h0a6.57,6.57,0,0,0,3.09.76,6.79,6.79,0,0,0,2.93-.67,5.61,5.61,0,0,0,2.63-2.27l1.37-1.22.81-.72,0-.08a6.58,6.58,0,0,0,1.52-4.25V99.47c8.23-4.43,8.31-5.64,8.36-6.45.07-1,0-7.28,0-16.07,0-3,0-5.84,0-7.69V69a15.9,15.9,0,0,0-.46-4.45,10.71,10.71,0,0,0-5.17-6.31c-3.28-2-14.12-8.18-24.59-14.17C81.48,37.93,69.26,31,68.35,30.29A10.29,10.29,0,0,0,62.84,28Z"/></g></svg>