<svg xmlns="http://www.w3.org/2000/svg" xmlns:xlink="http://www.w3.org/1999/xlink" viewBox="0 0 160 127"><defs><style>.cls-1{fill:none;}.cls-2{fill:#c4dce8;}.cls-3{fill:#fff;}.cls-3,.cls-7{stroke:#231f20;stroke-miterlimit:10;}.cls-4{fill:#231f20;}.cls-5{fill:#fdba17;}.cls-6{fill:#fff200;}.cls-7{fill:#ef4136;}.cls-8{clip-path:url(#clip-path);}</style><clipPath id="clip-path"><ellipse class="cls-1" cx="64.97" cy="67.47" rx="16.3" ry="27.79" transform="translate(-23.2 35.85) rotate(-26.35)"/></clipPath></defs><g id="lights"><path class="cls-2" d="M98.66,52.87c7.36,14.87-.6,30.55-12.73,38.22-13.62,8.61-32.11.89-39.48-14s-2.7-35.53,12.81-39.87S91.29,38,98.66,52.87Z"/><ellipse class="cls-3" cx="68.12" cy="66.39" rx="24.17" ry="33" transform="translate(-22.39 37.13) rotate(-26.35)"/><path class="cls-3" d="M83.6,58.23C91.69,74.57,89,92.9,79,97.81s-24.5-4.36-32.59-20.69-6.61-33.56,3.3-38.47S75.51,41.9,83.6,58.23Z"/><path class="cls-4" d="M61.72,34.92a22.77,22.77,0,0,1,6.16.89q1.05-.06,2.1-.06c11.91,0,23,5.66,28.68,17.12,6.11,12.35,1.65,25.26-7,33.68A19.43,19.43,0,0,1,82.76,96a16.8,16.8,0,0,1-2.11.88,12.5,12.5,0,0,1-1.61,1,12.88,12.88,0,0,1-5.78,1.31c-9.2,0-20.18-8.63-26.81-22-8.09-16.34-6.61-33.56,3.3-38.47a13.62,13.62,0,0,1,1.77-.71,18.69,18.69,0,0,1,1.95-1.13,18.47,18.47,0,0,1,8.25-1.89m0-1.5a19.87,19.87,0,0,0-8.92,2,18.41,18.41,0,0,0-1.94,1.11,14.38,14.38,0,0,0-1.78.73c-5.28,2.62-8.55,8.36-9.22,16.16-.65,7.54,1.22,16.17,5.25,24.31,6.77,13.66,18.08,22.84,28.15,22.84a14.34,14.34,0,0,0,6.45-1.47,13.85,13.85,0,0,0,1.63-1,19.86,19.86,0,0,0,2.09-.88,20.94,20.94,0,0,0,9.48-9.88c8-7.91,14-21.25,7.09-35.23-5.57-11.24-16.79-18-30-18-.64,0-1.29,0-1.93,0a24.14,24.14,0,0,0-6.33-.88Z"/><path class="cls-5" d="M72.74,94.16c-8.12,0-17.38-7.68-23-19.12-7-14.11-5.82-29,2.61-33.15a10.91,10.91,0,0,1,4.9-1.11c8.12,0,17.38,7.69,23,19.12,3.35,6.77,5,13.92,4.52,20.12-.45,6.35-3,11-7.13,13A10.91,10.91,0,0,1,72.74,94.16Z"/><path class="cls-4" d="M57.21,41.53c7.57,0,16.75,7.37,22.37,18.71C86.39,74,85.37,88.38,77.31,92.38a10.23,10.23,0,0,1-4.57,1C65.17,93.41,56,86,50.37,74.7,43.56,61,44.57,46.56,52.64,42.57a10.11,10.11,0,0,1,4.57-1m0-1.5h0A11.72,11.72,0,0,0,52,41.22c-4.39,2.18-7.07,7-7.54,13.65C44,61.2,45.61,68.48,49,75.37c5.79,11.69,15.32,19.54,23.72,19.54A11.64,11.64,0,0,0,78,93.72c4.4-2.18,7.08-7,7.55-13.65.45-6.33-1.19-13.61-4.6-20.5C75.13,47.88,65.6,40,57.21,40Z"/><path class="cls-6" d="M58.25,46.28c6.15,0,13.6,6,18.16,15.18,5.52,11.16,4.7,22.84-1.85,26.08a8.26,8.26,0,0,1-3.7.84c-6.15,0-13.6-6-18.16-15.18C47.18,62,48,50.36,54.55,47.12a8.26,8.26,0,0,1,3.7-.84m0-1h0a9.23,9.23,0,0,0-4.15.95C47.07,49.71,46,62,51.81,73.64c4.66,9.42,12.31,15.74,19,15.74A9.23,9.23,0,0,0,75,88.43c3.49-1.73,5.63-5.6,6-10.89A33,33,0,0,0,77.3,61c-4.66-9.41-12.31-15.74-19-15.74Z"/><path class="cls-7" d="M76.09,59.36c-3.65-3.76-8.44-5.15-12.19-1.5a9.49,9.49,0,0,0-.19,13.42c3.65,3.75,9.18,4.85,12.94,1.2S79.75,63.12,76.09,59.36Z"/><g class="cls-8"><path class="cls-6" d="M46.29,62.18v-10A29.19,29.19,0,0,0,46.29,62.18Z"/><path class="cls-6" d="M47.66,68c.3,1,.63,1.9,1,2.86V46.12a13.5,13.5,0,0,0-1,1.75Z"/><path class="cls-6" d="M50,74c.12.24.22.47.34.7.21.44.44.87.66,1.3V43.57a10.32,10.32,0,0,0-1,.88Z"/><path class="cls-6" d="M52.41,42.69V78.4c.32.53.66,1,1,1.55V42.23a7.51,7.51,0,0,0-.77.34Z"/><path class="cls-6" d="M54.78,81.9c.33.43.66.86,1,1.27V41.62c-.34.05-.67.11-1,.19Z"/><path class="cls-6" d="M57.15,84.78c.33.37.66.72,1,1.06V41.57l-1,0Z"/><path class="cls-6" d="M59.52,87.17c.33.31.67.6,1,.89V42c-.33-.08-.67-.16-1-.22Z"/><path class="cls-6" d="M61.89,89.15l1,.72V42.77c-.33-.14-.66-.27-1-.38Z"/><path class="cls-6" d="M64.27,90.76c.33.2.66.38,1,.56V44l-1-.54Z"/><path class="cls-6" d="M66.64,92c.33.15.67.28,1,.41V45.48c-.33-.24-.67-.47-1-.69Z"/><path class="cls-6" d="M69,92.86l1,.25V47.39l-1-.85Z"/><path class="cls-6" d="M71.38,93.33c.34,0,.67.07,1,.08V49.72c-.33-.36-.66-.7-1-1Z"/><path class="cls-6" d="M73.75,93.36c.34,0,.68-.08,1-.14V52.51c-.32-.43-.66-.84-1-1.25Z"/><path class="cls-6" d="M76.13,92.86c.34-.12.67-.25,1-.4V55.89c-.33-.52-.66-1-1-1.52Z"/><path class="cls-6" d="M78.5,91.67a9.37,9.37,0,0,0,1-.79V60.08c-.32-.64-.66-1.27-1-1.89Z"/><path class="cls-6" d="M80.87,89.4a13.42,13.42,0,0,0,1-1.53V65.71c-.3-.87-.63-1.75-1-2.63Z"/><path class="cls-6" d="M83.24,84.51a29,29,0,0,0,0-14Z"/></g></g></svg>