<svg xmlns="http://www.w3.org/2000/svg" viewBox="0 0 160 127"><defs><style>.cls-1{fill:#414042;}.cls-1,.cls-2,.cls-3,.cls-4{stroke:#231f20;stroke-miterlimit:10;}.cls-2{fill:#58595b;}.cls-3,.cls-7{fill:#fff;}.cls-4,.cls-5{fill:#d1d3d4;}.cls-6{fill:#231f20;}</style></defs><g id="key"><path class="cls-1" d="M102.49,28.84l-52,29.9C49,59.62,49,62.65,49,62.85v4.37a4.32,4.32,0,0,0,2,3.67L75.5,85.19a9.5,9.5,0,0,0,9.81.16l50.13-29c1.08-.63,2-3.17,2-4.41V48.59c0-2.48-.42-3.62-2.51-4.94L111.64,29A8.87,8.87,0,0,0,102.49,28.84Z"/><path class="cls-2" d="M52.88,62.22,70.29,73.07c9.71,5.81,11.31,5.5,20.44.32L134.6,47.91a2.57,2.57,0,0,0,.07-4.4L112.09,29.3a9.71,9.71,0,0,0-10-.19L53,57.45A2.79,2.79,0,0,0,52.88,62.22Z"/><path class="cls-3" d="M67.67,58.49l11.11,6.93a12.65,12.65,0,0,0,13,.2l28-16.25a1.64,1.64,0,0,0,0-2.81l-14.4-9.06A6.2,6.2,0,0,0,99,37.37L67.72,55.45A1.77,1.77,0,0,0,67.67,58.49Z"/><path class="cls-4" d="M80.76,66c-2,0-3.68,1-3.68,2.24V71.3c0,1.23,1.65,2.23,3.68,2.23s3.67-1,3.67-2.23V68.21C84.43,67,82.79,66,80.76,66Z"/><ellipse class="cls-3" cx="80.76" cy="68.21" rx="3.67" ry="2.24"/><ellipse class="cls-5" cx="82.85" cy="58.35" rx="5.5" ry="3.35"/><ellipse class="cls-5" cx="94.13" cy="51.94" rx="5.5" ry="3.35"/><ellipse class="cls-5" cx="104.72" cy="45.85" rx="5.5" ry="3.35"/><path class="cls-5" d="M28.49,99.84a.46.46,0,0,1-.23-.06l-5.91-3.21a.5.5,0,0,1-.26-.44V93a.5.5,0,0,1,.24-.43L50.17,75.79l0-1.88a.48.48,0,0,1,.25-.45l8-4.58a.54.54,0,0,1,.25-.06.47.47,0,0,1,.25.07L69,74.73a.5.5,0,0,1,.25.43v3.18a.5.5,0,0,1-.28.44l-8.06,4.87a.52.52,0,0,1-.52,0l-1.84-1.13L28.74,99.78A.51.51,0,0,1,28.49,99.84Z"/><path class="cls-6" d="M58.66,69.32l10.11,5.84v3.18c-.14.06-8.1,4.88-8.1,4.88l-2.1-1.28L28.49,99.34l-5.9-3.21V93L50.67,76.07l0-2.17,8-4.58m0-1a1,1,0,0,0-.5.13l-8,4.58a1,1,0,0,0-.5.89l0,1.59L22.07,92.1a1,1,0,0,0-.48.86v3.17a1,1,0,0,0,.52.88L28,100.22a1,1,0,0,0,.47.12,1,1,0,0,0,.51-.13L58.56,83.1l1.59,1a1,1,0,0,0,.52.15,1.07,1.07,0,0,0,.52-.14l8.06-4.87a.93.93,0,0,0,.52-.87V75.16a1,1,0,0,0-.5-.87L59.16,68.45a1,1,0,0,0-.5-.13Z"/><path class="cls-7" d="M28.45,96.26a3.37,3.37,0,0,1-1.58-.4l-2.62-1.43a1.74,1.74,0,0,1-.91-1.49,1.73,1.73,0,0,1,.85-1.53L51.48,75l-1.11-.68a.5.5,0,0,1,0-.86l8-4.58a.54.54,0,0,1,.25-.06.47.47,0,0,1,.25.07L69,74.73a.5.5,0,0,1,.25.44.52.52,0,0,1-.28.44l-8.06,4.86a.52.52,0,0,1-.52,0l-1.84-1.13L30.11,95.81A3.33,3.33,0,0,1,28.45,96.26Z"/><path class="cls-6" d="M58.66,69.32l10.11,5.84c-.14.07-8.1,4.88-8.1,4.88l-2.1-1.28L29.86,95.38a2.84,2.84,0,0,1-1.41.38,2.9,2.9,0,0,1-1.34-.34L24.49,94a1.24,1.24,0,0,1,0-2.15L52.44,75,50.63,73.9l8-4.58m0-1a1,1,0,0,0-.5.13l-8,4.58a1,1,0,0,0-.5.85,1,1,0,0,0,.48.87l.41.25L23.93,91A2.24,2.24,0,0,0,24,94.87l2.62,1.42a3.76,3.76,0,0,0,3.73-.05l28.2-16.32,1.59,1a1,1,0,0,0,1,0C64.29,79,69,76.18,69.25,76a1,1,0,0,0,.53-.86,1,1,0,0,0-.51-.89L59.16,68.45a1,1,0,0,0-.5-.13Z"/><polygon class="cls-5" points="24.35 93.91 26.5 95.08 64.58 72.75 64.59 72.75 62.5 71.54 24.35 93.91"/><path class="cls-6" d="M106.92,27.66A8.82,8.82,0,0,1,111.64,29l22.94,14.43a6.07,6.07,0,0,1,2.83,5.14v3.35c0,1.24-.89,3.78-2,4.41l-50.13,29a9.53,9.53,0,0,1-9.81-.16l-9.7-5.07-5.13,3.1-2.1-1.28L30.31,98.29a3.7,3.7,0,0,1-3.66,0l-2.71-1.47a2.59,2.59,0,0,1-1.35-2.28v-.43a2.12,2.12,0,0,1,1-1.82L50.67,76.07l0-2.17,2.71-1.55L51,70.89a4.32,4.32,0,0,1-2-3.67V62.85c0-.2,0-3.23,1.52-4.11l52-29.9a8.86,8.86,0,0,1,4.43-1.18m0-1.5a10.34,10.34,0,0,0-5.18,1.39l-52,29.89c-2.11,1.22-2.28,4.45-2.28,5.41v4.37a5.82,5.82,0,0,0,2.75,5l.21.13-.52.29-.78.44,0,.9,0,1.31L22.84,91.05a3.64,3.64,0,0,0-1.75,3.11v.43a4.09,4.09,0,0,0,2.13,3.6l2.72,1.47a5.19,5.19,0,0,0,2.5.64,5.26,5.26,0,0,0,2.62-.71L58.55,83.68l1.34.82.78.48.78-.48,4.4-2.66,8.91,4.66a11,11,0,0,0,11.3.14l50.13-29c1.79-1,2.72-4.27,2.72-5.71V48.59a7.54,7.54,0,0,0-3.53-6.41L112.44,27.75a10.34,10.34,0,0,0-5.52-1.59Z"/></g></svg>