<svg xmlns="http://www.w3.org/2000/svg" viewBox="0 0 160 127"><defs><style>.cls-1{fill:#eb1d25;}.cls-2{fill:#231f20;}.cls-3{fill:#c0dae8;}.cls-4{fill:#fff;}</style></defs><g id="mirror"><path class="cls-1" d="M99.91,87.29A14.67,14.67,0,0,1,89.34,83.2c-2.68-2.64-3.69-5-3-6.88,1.09-3,6-3.87,7.67-4.08-.07-.27-.21-.63-.33-.95-.86-2.32-2.46-6.64,1.87-10.4a8.4,8.4,0,0,1,5.42-2.2,5.46,5.46,0,0,1,5,2.86c.93,1.9.5,4.25-1.2,6.43a2.69,2.69,0,0,0-.68,2.21c.41,2,3.69,3.77,6.32,5.23,2.91,1.6,5.21,2.87,5,4.62C115.12,82.77,107.47,87.29,99.91,87.29Z"/><path class="cls-2" d="M101,59.44c3.89,0,6.58,3.75,3.23,8.09-4.7,6.06,10.87,9.19,10.48,12.42-.26,2.17-7.44,6.59-14.79,6.59a14,14,0,0,1-10-3.87c-8.82-8.68,4.8-9.74,4.8-9.74,1.22-.66-4.28-6.55,1.4-11.48a7.6,7.6,0,0,1,4.93-2m0-1.5h0a9.12,9.12,0,0,0-5.91,2.38c-4.73,4.1-2.94,8.92-2.08,11.23l0,.08c-2.27.39-6.3,1.48-7.38,4.43-.81,2.23.25,4.81,3.16,7.68A15.46,15.46,0,0,0,99.91,88a24.66,24.66,0,0,0,10.73-2.64c1.57-.79,5.26-2.88,5.55-5.27s-2.22-3.63-5.38-5.37c-2.37-1.3-5.61-3.1-6-4.73a1.89,1.89,0,0,1,.55-1.59c1.87-2.42,2.33-5,1.27-7.22A6.18,6.18,0,0,0,101,57.94Z"/><path class="cls-2" d="M104.22,67.53c4.51-5.83-1.93-10.61-7.48-6.61L93.48,67.6c.29,2.74,1.9,4.94,1.18,5.33a17.86,17.86,0,0,0-4.23.93l-2.89,5.91a13.09,13.09,0,0,0,2.32,2.9,13.59,13.59,0,0,0,8.62,3.81,16.42,16.42,0,0,1,1.21-3.42c1-1.76,5.37-3.46,9.2-7.65C105.22,73.34,101.62,70.88,104.22,67.53Z"/><path class="cls-1" d="M81.9,89.08c-22.17,0-40.21-10.83-40.21-24.14S59.73,40.8,81.9,40.8c19.77,0,31.12,8.8,31.12,24.14,0,6.59-5.1,9.9-10.49,13.41-.93.6-1.87,1.21-2.79,1.85a36.57,36.57,0,0,0-3.36,2.71C92.92,85.94,89.34,89.08,81.9,89.08Z"/><path class="cls-2" d="M81.9,41.55c21.79,0,30.37,10.47,30.37,23.39,0,7.27-6.7,10.35-13,14.64-4.86,3.34-7.88,8.75-17.41,8.75-21.79,0-39.46-10.47-39.46-23.39S60.11,41.55,81.9,41.55m0-1.5c-10.81,0-21,2.51-28.67,7.06-7.92,4.7-12.29,11-12.29,17.83s4.37,13.13,12.29,17.83c7.68,4.55,17.86,7.06,28.67,7.06,7.72,0,11.57-3.38,15-6.36a35.91,35.91,0,0,1,3.28-2.65c.92-.63,1.86-1.25,2.78-1.84,5.32-3.46,10.83-7,10.83-14,0-7.48-3.11-24.89-31.87-24.89Z"/><path class="cls-3" d="M78.65,85.36c-12.14,0-22.41-3.49-28.18-9.57a15.3,15.3,0,0,1-4.57-11.4c.59-11.2,15.37-20,33.64-20,1.44,0,2.9.06,4.35.16,16.48,1.24,20,8.37,20,14.13C104,70.23,90.2,84.62,84.54,85.1c-2,.17-4,.26-5.89.26Z"/><path class="cls-2" d="M79.54,44.91c1.42,0,2.86.05,4.32.16,38.74,2.91,9.4,38.78.64,39.53-2,.18-4,.26-5.85.26-20.37,0-32.81-9.7-32.25-20.45s15.06-19.5,33.14-19.5m0-1C61,43.91,46,52.89,45.4,64.36a15.79,15.79,0,0,0,4.71,11.78c5.86,6.18,16.27,9.72,28.54,9.72,1.93,0,3.93-.09,5.94-.26,5.94-.51,19.87-14.89,19.81-26.91,0-6-3.61-13.35-20.47-14.61-1.46-.11-2.94-.17-4.39-.17Z"/><path class="cls-4" d="M97.48,48.66C89.39,67.22,84.63,78.22,81.83,84.78q1.32-.06,2.67-.18a6.16,6.16,0,0,0,2-.61c3.67-8.53,9-20.75,14.18-32.69A13.47,13.47,0,0,0,97.48,48.66Z"/><path class="cls-4" d="M91.68,46.31C83,66.3,77.93,77.93,75,84.75c1.74.1,3.54.13,5.4.08,4-9.36,10.16-23.49,15.95-36.78A24.77,24.77,0,0,0,91.68,46.31Z"/><path class="cls-4" d="M83.86,45.07a57.49,57.49,0,0,0-9.2.06c-8,18.35-12.77,29.3-15.6,36a43.65,43.65,0,0,0,13.76,3.48C77,74.75,83.69,59.46,89.63,45.84A49.33,49.33,0,0,0,83.86,45.07Z"/><path class="cls-4" d="M62.74,47.66C56.71,61.5,53,70,50.75,75.34a24,24,0,0,0,5.72,4.43c3.28-7.66,9.28-21.49,14.84-34.24A46.11,46.11,0,0,0,62.74,47.66Z"/></g></svg>