<svg xmlns="http://www.w3.org/2000/svg" viewBox="0 0 160 127"><defs><style>.cls-1{fill:#58595b;}.cls-1,.cls-2,.cls-3,.cls-6{stroke:#231f20;stroke-miterlimit:10;}.cls-2{fill:#d1d3d4;}.cls-3{fill:#fff;}.cls-4,.cls-5,.cls-6,.cls-8{fill:#231f20;}.cls-4{opacity:0.05;}.cls-6{fill-opacity:0.05;}.cls-7{opacity:0.2;}.cls-8{opacity:0.1;}</style></defs><g id="cooling"><path class="cls-1" d="M97.83,52.54C90.9,38,78.42,29.51,70,33.55a8.37,8.37,0,0,0-.84.44c-.09.06-3,1.5-4.71,2.35l-.48.22c-.27.12-.52.26-.77.4h0c-7.66,4.51-8.61,18.87-2,32.75C67.49,83,78.53,91.16,86.76,89.11h0a10.09,10.09,0,0,0,1.75-.61l5.21-1.82A10.58,10.58,0,0,0,95,86.17C103.51,82.13,104.76,67.07,97.83,52.54ZM88.1,87.28c-8,3.81-19.74-4.2-26.26-17.89s-5.35-27.87,2.63-31.68,19.74,4.21,26.26,17.9S96.08,83.48,88.1,87.28Z"/><path class="cls-2" d="M76.59,86.21a20.7,20.7,0,0,0,2,1,18.87,18.87,0,0,1-2-1Z"/><path class="cls-2" d="M80.67,87.82h0l-.48-.13Z"/><path class="cls-2" d="M94.57,67.9c-1.07-.06-3.65-.49-8-2.84a17.24,17.24,0,0,0-1.5-4.71,17.82,17.82,0,0,0-2.49-3.88,14.6,14.6,0,0,0,2.89-9.34c-.48-.62-1-1.21-1.48-1.77.1,5.17-1,8.48-2.06,10.41A9.39,9.39,0,0,0,77.35,53,35.88,35.88,0,0,0,77,46.9a56.69,56.69,0,0,0-5-9.7,12.85,12.85,0,0,0-2.89-.42c4.71,7.65,6.43,13.91,6.81,16.1a3.83,3.83,0,0,0-1.28.36c-3.17,1.51-3.64,7.15-1,12.59a17,17,0,0,0,3.47,4.91,39.21,39.21,0,0,0,3.58,17.08A14.39,14.39,0,0,0,83,88.2a37.62,37.62,0,0,1-3.85-15.9,5.33,5.33,0,0,0,4.81.7,61.68,61.68,0,0,0,8.31,10.6,14.39,14.39,0,0,0,1.06-1.94,63.84,63.84,0,0,1-7.5-9.4l-.4-.38a7.61,7.61,0,0,0,1.38-5.15c4.93,2.3,7.1,2.76,8,2.81C94.72,69,94.65,68.45,94.57,67.9Z"/><path class="cls-2" d="M90.47,85.68h0a11.47,11.47,0,0,0,1.75-2.08A11.52,11.52,0,0,1,90.47,85.68Z"/><path class="cls-2" d="M94.85,70.27a31.45,31.45,0,0,1,0,4.65v-.08A31.8,31.8,0,0,0,94.85,70.27Z"/><path class="cls-2" d="M83.28,44.55c.25.26.5.53.74.81C83.78,45.08,83.53,44.81,83.28,44.55Z"/><path class="cls-2" d="M83.27,44.54h0Z"/><path class="cls-2" d="M83.27,44.54a30.55,30.55,0,0,0-5.38-4.61h0A30.73,30.73,0,0,1,83.27,44.54Z"/><path class="cls-2" d="M59.63,60.69c3.75-2.88,9.21-2.24,11-1.87a10.29,10.29,0,0,1,0-1.35C68.6,57.3,62.75,57.28,59.63,60.69Z"/><path class="cls-2" d="M64.24,73.81l-.6-1Z"/><path class="cls-2" d="M64.27,73.86h0l0,0Z"/><path class="cls-2" d="M64.27,73.86c.56.89,1.13,1.76,1.73,2.59A14.78,14.78,0,0,1,72.25,64.1c0-.08-.08-.16-.13-.24C66,67.9,64.56,72.56,64.27,73.86Z"/><path class="cls-2" d="M58.94,61.58a43.7,43.7,0,0,0,1.61,4.85,43.7,43.7,0,0,1-1.61-4.85Z"/><path class="cls-2" d="M61.34,68.32c-.27-.62-.53-1.23-.78-1.85C60.81,67.09,61.07,67.7,61.34,68.32Z"/><path class="cls-2" d="M59,44v0c.08-.21.16-.42.26-.62C59.17,43.59,59.08,43.79,59,44Z"/><path class="cls-2" d="M71.82,53.87a3.35,3.35,0,0,1,.86-.69q-1.17-2.25-2.27-4.08a36.77,36.77,0,0,0-10.08-7.69,13.46,13.46,0,0,0-1.07,2A45.47,45.47,0,0,1,71.82,53.87Z"/><path class="cls-3" d="M94.33,78.56a27.32,27.32,0,0,0,.45-9c-1.12-.06-4.15-.75-11.9-4.72a10.25,10.25,0,0,0-.08-1.44,17.66,17.66,0,0,0,10.67-.56,46.32,46.32,0,0,0-2.74-7.21c-.62-1.32-1.3-2.58-2-3.78a13.26,13.26,0,0,1-7.27,7.09,13.9,13.9,0,0,0-.72-1.32c1-1.1,3.44-4.68,3.29-12.24a28.85,28.85,0,0,0-8.84-7c.62,2.08,2.58,9.25,2.12,15.49A6.56,6.56,0,0,0,76,53.16c-.31-2-1.63-8.12-6.82-16.38a9.68,9.68,0,0,0-6.95,2.43c1.73,1.25,5.76,4.86,10.47,14a3.35,3.35,0,0,0-.86.69A45.47,45.47,0,0,0,59.26,43.4a22.24,22.24,0,0,0-1.63,9.65c1.28-.14,5,0,13,4a9.83,9.83,0,0,0,0,1.8c-1.9-.39-8-1.1-11.75,2.52a47.35,47.35,0,0,0,5.4,12.52c.29-1.29,1.7-6,7.85-10A15,15,0,0,0,73.43,66c-1,1.53-3.82,6.88-2.54,16.06a23.07,23.07,0,0,0,9.78,5.77,39.8,39.8,0,0,1-3.56-18.59,5.35,5.35,0,0,0,1.35.45c.34,1.67,1.87,6.43,7.6,18.3a9.28,9.28,0,0,0,2-.7,10.21,10.21,0,0,0,4.13-3.68c-1.53-1.55-7.56-7.94-10.57-14.94a5.06,5.06,0,0,0,.42-.58C83.2,69.71,86.67,74,94.33,78.56Z"/><ellipse class="cls-2" cx="76.73" cy="61.29" rx="3.36" ry="5.77" transform="translate(-18.91 38.99) rotate(-25.49)"/></g></svg>