<svg xmlns="http://www.w3.org/2000/svg" xmlns:xlink="http://www.w3.org/1999/xlink" viewBox="0 0 160 127"><defs><style>.cls-1,.cls-2{fill:#c4dce8;}.cls-1,.cls-6,.cls-7{stroke:#27aae1;}.cls-1,.cls-4,.cls-6,.cls-7{stroke-miterlimit:10;}.cls-3{fill:#231f20;}.cls-4{fill:#fff;stroke:#231f20;}.cls-5{clip-path:url(#clip-path);}.cls-6{fill:none;}.cls-7{fill:#00aeef;}.cls-8{fill:#eb1d25;}</style><clipPath id="clip-path"><path class="cls-1" d="M91,91.29A2.17,2.17,0,0,1,89.92,91L53.34,68.39a2.78,2.78,0,0,1-1.51-2.46l-.81-30a2.75,2.75,0,0,1,4.07-2.39l37,20.55a2.27,2.27,0,0,1,1.2,2V89a2.24,2.24,0,0,1-.68,1.63,2.33,2.33,0,0,1-1.59.64Z"/></clipPath></defs><g id="infotainmnt"><path class="cls-2" d="M103.58,109.59a5.24,5.24,0,0,1-2.52-.66L46.83,75.39A6.16,6.16,0,0,1,43.62,70L42.5,28.78a6.16,6.16,0,0,1,2.4-4.91l6-5.12a6.28,6.28,0,0,1,3.87-1.35,6.09,6.09,0,0,1,2.94.75l56.86,29.48a5.54,5.54,0,0,1,2.91,4.87V98.83c0,1.78-1.2,3.43-3.28,4.53l-6.37,4.35a5.45,5.45,0,0,1-2.34,1.54l-.08,0-.18,0a5.45,5.45,0,0,1-1.67.27Z"/><path class="cls-3" d="M54.79,18.15a5.39,5.39,0,0,1,2.59.66L114.24,48.3a4.77,4.77,0,0,1,2.51,4.2V98.83c0,1.65-1.27,3-3,3.9h0l-6.46,4.4a4.51,4.51,0,0,1-2.08,1.4l-.08,0a.19.19,0,0,1-.1,0,4.55,4.55,0,0,1-1.5.26,4.42,4.42,0,0,1-2.16-.57L47.22,74.75A5.44,5.44,0,0,1,44.37,70l-1.12-41.2a5.41,5.41,0,0,1,2.16-4.34h0l6-5.1h0a5.52,5.52,0,0,1,3.38-1.17m0-1.5a7,7,0,0,0-4.26,1.45l-.1.08-6,5.1h0a6.88,6.88,0,0,0-2.68,5.47L42.87,70a6.93,6.93,0,0,0,3.6,6l54.16,33.5.08,0a5.94,5.94,0,0,0,2.87.75,6.31,6.31,0,0,0,1.85-.29l.25-.07,0,0a6,6,0,0,0,2.61-1.69l6.27-4.27c2.31-1.23,3.64-3.11,3.64-5.17V52.5A6.27,6.27,0,0,0,115,47L58.07,17.48a6.86,6.86,0,0,0-3.28-.83Z"/><path class="cls-4" d="M47.22,74.75l54.2,33.52a4.77,4.77,0,0,0,7-4.2V57.74a4.79,4.79,0,0,0-2.5-4.2L51.3,24a5.46,5.46,0,0,0-8,4.79L44.37,70A5.44,5.44,0,0,0,47.22,74.75Z"/><path class="cls-3" d="M52.17,69.65,90.42,93.28a3.62,3.62,0,0,0,5.35-3.19V55.3a3.63,3.63,0,0,0-1.9-3.19l-38.61-21a4.13,4.13,0,0,0-6.11,3.63L50,66A4.11,4.11,0,0,0,52.17,69.65Z"/><ellipse class="cls-3" cx="102.24" cy="66.29" rx="1.56" ry="2.67" transform="translate(-18.58 50.46) rotate(-25.49)"/><ellipse class="cls-3" cx="102.24" cy="76.11" rx="1.56" ry="2.67" transform="translate(-22.8 51.42) rotate(-25.49)"/><ellipse class="cls-3" cx="102.24" cy="85.92" rx="1.56" ry="2.67" transform="translate(-27.03 52.37) rotate(-25.49)"/><ellipse class="cls-3" cx="102.24" cy="95.73" rx="1.56" ry="2.67" transform="translate(-31.25 53.33) rotate(-25.49)"/><path class="cls-2" d="M91,91.29A2.17,2.17,0,0,1,89.92,91L53.34,68.39a2.78,2.78,0,0,1-1.51-2.46l-.81-30a2.75,2.75,0,0,1,4.07-2.39l37,20.55a2.27,2.27,0,0,1,1.2,2V89a2.24,2.24,0,0,1-.68,1.63,2.33,2.33,0,0,1-1.59.64Z"/><g class="cls-5"><path class="cls-6" d="M61.53,37.11c-1.69,9.7-9.76,26.39-9.76,26.39"/><line class="cls-7" x1="55.86" y1="62.24" x2="59.06" y2="71.93"/><line class="cls-7" x1="69.05" y1="78.11" x2="55.81" y2="53.84"/><line class="cls-7" x1="51.02" y1="39.56" x2="93.26" y2="63.59"/><line class="cls-7" x1="65.49" y1="44.11" x2="72.7" y2="48.15"/><line class="cls-7" x1="79.71" y1="52.33" x2="87.39" y2="56.57"/><path class="cls-7" d="M77.63,83.42c.06-.7-.37-16.6-.37-16.6"/><path class="cls-7" d="M77,60.81c0-1.3-.23-6.76-.22-6.61"/><line class="cls-7" x1="93.26" y1="80.54" x2="77.7" y2="72.22"/><line class="cls-7" x1="64.87" y1="60.42" x2="69.1" y2="68.17"/><line class="cls-7" x1="86.18" y1="88.7" x2="86.18" y2="81.81"/><line class="cls-7" x1="93.26" y1="72.47" x2="87.68" y2="60.42"/><path class="cls-7" d="M86.6,66.82c0,.15,1.85,6.91,1.85,6.91"/><line class="cls-7" x1="85.8" y1="63.5" x2="81.7" y2="61.14"/><ellipse class="cls-1" cx="77.14" cy="64" rx="2.91" ry="4.25" transform="translate(-20.04 39.44) rotate(-25.49)"/><ellipse class="cls-8" cx="77.08" cy="63.79" rx="1.39" ry="2.02" transform="translate(-19.95 39.39) rotate(-25.49)"/></g><path class="cls-6" d="M91,91.29A2.17,2.17,0,0,1,89.92,91L53.34,68.39a2.78,2.78,0,0,1-1.51-2.46l-.81-30a2.75,2.75,0,0,1,4.07-2.39l37,20.55a2.27,2.27,0,0,1,1.2,2V89a2.24,2.24,0,0,1-.68,1.63,2.33,2.33,0,0,1-1.59.64Z"/></g></svg>