<svg xmlns="http://www.w3.org/2000/svg" viewBox="0 0 160 127"><defs><style>.cls-1{fill:#58595b;}.cls-2{fill:#231f20;}.cls-3{fill:#939598;}.cls-4{fill:#d1d3d4;}.cls-5{fill:#6d6e71;}</style></defs><g id="steering_wheel" data-name="steering wheel"><path class="cls-1" d="M91.28,112C77.09,112,60.37,97.7,50.62,77.25c-5.81-12.18-8.5-25-7.58-36S48.48,22,55.76,18.57A14.29,14.29,0,0,1,57.24,18c.54-.32,1.06-.59,1.57-.84A21.93,21.93,0,0,1,68.34,15c15.7,0,33.36,14.89,42,35.4,11.44,27.19,8.29,50.62-7.83,58.31-.51.24-1,.47-1.64.7s-1,.53-1.41.75a18.72,18.72,0,0,1-8.17,1.8Zm7.43-26c-1,2.95-3.79,10.2-5.75,15.28a13.26,13.26,0,0,0,5.7-1.27,14,14,0,0,0,5.94-5.57l.05,0a27.29,27.29,0,0,0,1.09-3.8c-.82-.53-1.85-1.26-3.12-2.21ZM77,94.57A41.69,41.69,0,0,0,81,97.35l-.6-6.86-2.74-1.1ZM56.1,62.2a74.68,74.68,0,0,0,3.92,10,73.57,73.57,0,0,0,5.07,9C63,74.55,59.68,64.79,59,62.65ZM67.37,46A26.73,26.73,0,0,1,80.2,49.66l.11.07c.34.18.7.39,1,.6l.1.06,1,.64.23.14.87.58.26.18.82.57.28.21c.26.18.51.37.76.56l.3.23,1,.79,1,.8.94.79c.53.46,1.06.92,1.57,1.39L92,58.61l1,1,.26.26c.4.4.8.79,1.18,1.18A99.38,99.38,0,0,1,103,71s0-.06,0-.09c.41-2.74.8-5.32-1.51-12-.61-1.51-1.27-3-2-4.46C91.13,36.81,77.21,24.44,65.74,24.44A14,14,0,0,0,63,24.7l-.17.08a13.51,13.51,0,0,0-4.94,4.11C58.44,35,57,36.43,56,37.51a1.56,1.56,0,0,0-.61,1.61,5.09,5.09,0,0,1-1.56,4.47c-.18.2-.33.37-.45.53a48.09,48.09,0,0,0,.33,6.9A21.85,21.85,0,0,1,67.37,46Z"/><path class="cls-2" d="M68.34,15.77c15,0,32.49,14,41.3,34.94,10.88,25.88,8.75,49.61-7.47,57.34-.54.26-1.08.49-1.64.7s-.92.53-1.4.76a18.17,18.17,0,0,1-7.85,1.72c-13.63,0-30.1-13.58-40-34.31C39.41,52,41.55,26.17,56.08,19.24c.49-.23,1-.43,1.48-.61s1-.58,1.57-.84a21.2,21.2,0,0,1,9.21-2m-5.15,1.77h0m1.34,0h0m1.75.11-.43,0,.43,0m1.55.23-.5-.08.5.08m1.37.28.2.05-.2-.05-.36-.07.36.07m1.78.48-.6-.17.6.17m1.6.54L71.94,19l.64.22m1.59.63h0l-.65-.26.65.26m1.61.74-.68-.32.68.32m1.16.59.45.24-.45-.24L76.69,21l.25.13m2,1.16h0l-.69-.41.69.41m1.63,1-.72-.47.72.47m-18.34.77.22,0s0,0,0,0a14.21,14.21,0,0,0-5.4,4.57c1,9.49-2.88,7.36-2.44,10.55.38,2.72-1.41,3.64-2,4.67a49.84,49.84,0,0,0,.5,8.57c4.79-4.12,9.61-5.71,14.22-5.71a26,26,0,0,1,12.46,3.57l.1,0,1,.6.17.11.94.58.23.14.86.57.26.18.8.56.28.21.75.55.3.22.7.55.3.24.7.57.26.21.93.78c.53.46,1.05.92,1.55,1.38l.78.73.65.6,1,1,.27.25,1.16,1.17h0A92.82,92.82,0,0,1,103.53,73c.37-3.81,1.62-5.94-1.28-14.27q-.91-2.27-2-4.53c-8.76-18.38-23-30.52-34.52-30.52a14.94,14.94,0,0,0-3.49.4s0,0,0,0m19.94.35-.74-.53.74.53M62,24.14l-.07,0h0l.07,0m21.79,1.51L83,25.07l.75.58m1.58,1.29-.76-.63.76.63m1.56,1.38c-.25-.23-.5-.46-.76-.68.26.22.51.45.76.68m1,1,.51.5-.51-.5-.24-.23.24.23m1.29,1.27c.25.25.49.51.74.77-.25-.26-.49-.52-.74-.77h0m1.5,1.58c.25.26.49.54.74.81-.25-.27-.49-.55-.74-.81h0M93,34.65c-.24-.3-.49-.6-.74-.89.25.29.5.59.74.89m1.45,1.77-.74-.93.74.93m1.41,1.86-.73-1,.73,1m1.38,1.93c-.24-.35-.48-.7-.73-1,.25.34.49.69.73,1m1.34,2-.72-1.1.72,1.1m1.31,2.08-.72-1.16.72,1.16m1.27,2.18c-.24-.42-.47-.85-.72-1.26.25.41.48.84.72,1.26m1.09,2,.18.33-.18-.33c-.19-.37-.39-.74-.59-1.11.2.37.4.74.59,1.11m1.66,3.27c-.35-.73-.71-1.46-1.07-2.17.36.71.72,1.44,1.07,2.17m1.1,2.4c-.32-.74-.66-1.47-1-2.2.34.73.68,1.46,1,2.2m1,2.3c-.2-.5-.42-1-.63-1.5.21.5.43,1,.63,1.5m.64,1.62.26.68-.26-.68-.27-.68.27.68m.85,2.33c.08.21.15.43.23.64-.08-.21-.15-.43-.23-.64s-.16-.44-.23-.65c.07.21.15.43.23.65m-40.31,25C65.44,79.32,59.51,62,59.51,62L55,61.27a73.79,73.79,0,0,0,4.31,11.29,73.2,73.2,0,0,0,7.78,12.81m41.28-22.06c-.13-.42-.27-.83-.41-1.25.14.42.28.83.41,1.25m.66,2.27c-.11-.4-.23-.81-.35-1.22.12.41.24.82.35,1.22m.58,2.26c-.09-.4-.2-.79-.3-1.19.1.4.21.79.3,1.19M110,69.5c0,.19.09.38.13.58,0-.2-.08-.39-.13-.58s-.08-.39-.13-.59c0,.2.09.39.13.59m.45,2.21c0,.2.08.39.11.58,0-.19-.07-.38-.11-.58s-.07-.37-.11-.56c0,.19.08.38.11.56m.38,2.21c0,.19.06.37.08.56,0-.19,0-.37-.08-.56l-.09-.55.09.55m-7.4,1.73a.41.41,0,0,1,0-.11.41.41,0,0,0,0,.11m7.71.52c0,.16,0,.31,0,.47,0-.16,0-.31,0-.47s-.06-.41-.08-.62c0,.21,0,.42.08.62m.25,2.54v0l-.09-1,.09,1m.1,1.63c0,.17,0,.33,0,.5,0-.17,0-.33,0-.5l0-.51,0,.51m.06,1.86c0,.23,0,.46,0,.69,0-.23,0-.46,0-.69v0m0,1.76c0,.31,0,.62,0,.93,0-.31,0-.62,0-.93v0m-4.39,1.3-.06.8.06-.8,0-.57,0,.57M92.85,102A14.1,14.1,0,0,0,99,100.62a14.75,14.75,0,0,0,6.26-5.86c-1.65,4.37-4.33,7.69-8,9.45a14.15,14.15,0,0,1-6,1.36,14.2,14.2,0,0,0,6.09-1.36c4.87-2.32,8-7.36,9.29-14-1-.62-2.28-1.53-3.51-2.45l-4.76-3c-.68,2.14-4.38,11.84-6.43,17.15l1,0m18.62-15.18v0c0-.28,0-.56,0-.84,0,.28,0,.56,0,.84m-4.74,2.61c.16-1,.3-2,.39-3-.1,1-.23,2-.4,3h0m4.65-1.51c0,.15,0,.31,0,.46s0,.27,0,.41c0-.14,0-.27,0-.41s0-.31,0-.46M81.85,98.73,81.08,90,77,88.33l-.74,6.56a38.82,38.82,0,0,0,5.6,3.84m29.32-9c0,.27-.08.55-.13.82,0-.27.09-.55.13-.82m-4.55.25c0,.07,0,.14,0,.21s0-.14,0-.21m4.26,1.58c0,.26-.1.52-.16.78.06-.26.11-.52.16-.78m-.37,1.78-.18.73.18-.73m-.64,2.39c.07-.22.14-.45.2-.68-.06.23-.13.46-.2.68m-.31,1c-.07.22-.15.43-.23.64.08-.21.16-.42.23-.64M109,98.31c-.07.19-.16.38-.24.58.08-.2.17-.39.24-.58m-.76,1.72-.15.3.15-.3c0-.07.07-.14.11-.22,0,.08-.08.15-.11.22m-.63,1.21c-.08.15-.17.29-.26.44.09-.15.18-.29.26-.44m-.8,1.34-.15.23-.1.13.1-.13.15-.23m-1,1.39-.1.12.1-.12.1-.12-.1.12m-.89,1.09s0,0,0,0,0,0,0,0M68.34,14.27a22.69,22.69,0,0,0-9.86,2.17c-.51.24-1,.51-1.56.82s-1,.41-1.48.63c-7.53,3.59-12.2,11.87-13.15,23.32-.93,11.15,1.79,24.07,7.65,36.36,9.87,20.7,26.87,35.16,41.34,35.16a19.57,19.57,0,0,0,8.49-1.87c.47-.22.93-.47,1.42-.75s1.11-.46,1.63-.7c16.51-7.87,19.8-31.7,8.2-59.28-8.74-20.78-26.69-35.86-42.68-35.86ZM63.21,25.42a13.08,13.08,0,0,1,2.53-.23c11.2,0,24.84,12.19,33.17,29.66.66,1.41,1.32,2.89,1.93,4.42,1.78,5.12,1.92,7.67,1.69,9.88A103.73,103.73,0,0,0,95,60.55h0l0,0h0l-1.17-1.16-.18-.18-.09-.09-1-1L92,57.6l-.16-.15-.19-.18L91,56.71l-1.58-1.4-1-.8-.16-.14-.1-.08-.72-.58-.2-.16-.11-.08-.72-.57-.2-.15-.11-.08-.76-.57L85.2,52l-.09-.07-.82-.58-.24-.16-.92-.61-.23-.15-1-.6-.06,0-.12-.07-1.08-.62-.1-.06a27.46,27.46,0,0,0-13.19-3.75,22.17,22.17,0,0,0-13,4.38,46.87,46.87,0,0,1-.2-5.24l.27-.3A5.8,5.8,0,0,0,56.14,39c-.07-.48-.06-.49.42-1,1.32-1.4,2.57-3.25,2.07-8.92a12.84,12.84,0,0,1,4.5-3.66l.08,0Zm-.86,49.74c-.57-1.06-1.12-2.15-1.65-3.25a75.14,75.14,0,0,1-3.52-8.78l1.2.19c.66,1.94,2.34,6.89,4,11.84Zm31.72,25.25c1.58-4.1,3.86-10.1,5-13.35l3.12,2c1,.78,1.94,1.41,2.68,1.91A26.31,26.31,0,0,1,104,94l0,0a13.26,13.26,0,0,1-5.63,5.29,12.38,12.38,0,0,1-4.26,1.14ZM77.83,94.24l.43-3.79,1.4.57.43,4.86c-.75-.51-1.51-1-2.26-1.64Z"/><path class="cls-3" d="M100.28,108.32c13.11-7.81,14.51-32.53,3.19-56.28C93.92,32,77.66,18,63.94,18a17.7,17.7,0,0,0-6.21,1.08l-.42-.91c.56-.32,1.08-.6,1.6-.85a21.76,21.76,0,0,1,9.43-2.07c15.6,0,33.17,14.82,41.76,35.24,11.38,27.06,8.28,50.37-7.71,58-.52.24-1.07.48-1.68.71Z"/><path class="cls-2" d="M68.34,15.77c15,0,32.49,14,41.3,34.94,10.88,25.88,8.75,49.61-7.47,57.34-.54.26-1.08.49-1.64.7,13.26-7.89,14.88-32.83,3.39-56.92C94,31.1,77.56,17.52,63.93,17.52a18.21,18.21,0,0,0-6.37,1.11c.51-.3,1-.58,1.57-.84a21.2,21.2,0,0,1,9.21-2m0-1a22.15,22.15,0,0,0-9.64,2.12c-.54.25-1.08.54-1.65.87l.85,1.8a17.45,17.45,0,0,1,6-1c13.54,0,29.61,13.88,39.09,33.74,11.21,23.51,9.9,47.95-3,55.63l.87,1.8c.61-.24,1.18-.48,1.71-.73,16.26-7.75,19.45-31.32,8-58.64-8.67-20.6-26.42-35.55-42.22-35.55Z"/><path class="cls-4" d="M91,106.07c-11.94,0-26.32-12.67-35-30.81C45.54,53.19,47,30.47,59.26,24.61a10.34,10.34,0,0,1,2.9-1l4.14-.8-3.25,1.48,0,.1-.38.18a13.8,13.8,0,0,0-5.1,4.26c.59,6-.77,7.48-1.77,8.53a1.81,1.81,0,0,0-.68,1.81,4.77,4.77,0,0,1-1.5,4.27,7.47,7.47,0,0,0-.51.62c-.25,8.73,2.11,18.77,6.66,28.3,8.18,17.15,21.76,29.13,33,29.13a13.61,13.61,0,0,0,5.92-1.3,14.25,14.25,0,0,0,6.06-5.67l.89.43c-1.74,4.62-4.6,8-8.27,9.73A14.67,14.67,0,0,1,91,106.07Z"/><path class="cls-2" d="M62.48,24.08s0,0,0,0a14.21,14.21,0,0,0-5.4,4.57c1,9.49-2.88,7.36-2.44,10.55.38,2.72-1.41,3.64-2,4.67-.27,8.5,1.92,18.65,6.7,28.67C67.79,90.27,81.63,102,92.84,102A14.15,14.15,0,0,0,99,100.62a14.75,14.75,0,0,0,6.26-5.86c-1.65,4.37-4.33,7.69-8,9.45a14.25,14.25,0,0,1-6.2,1.36c-11.49,0-25.76-12.16-34.51-30.52-10.43-21.86-9.1-44.24,3-50a9.62,9.62,0,0,1,2.77-1s0,0,0,0l.22,0m8.1-2.63L62.06,23.1a10.88,10.88,0,0,0-3,1c-6.18,3-9.9,10-10.48,19.8-.57,9.61,1.93,20.81,7,31.53,8.73,18.3,23.3,31.09,35.42,31.09a15.24,15.24,0,0,0,6.63-1.46c3.78-1.8,6.73-5.26,8.52-10l-1.79-.87a13.86,13.86,0,0,1-5.84,5.48A13.15,13.15,0,0,1,92.84,101c-11.09,0-24.49-11.86-32.59-28.84-4.49-9.41-6.83-19.31-6.61-27.92a4.78,4.78,0,0,1,.39-.45,5.28,5.28,0,0,0,1.61-4.68c-.09-.71.06-.86.56-1.39,1.31-1.39,2.44-3.11,1.92-8.73a13.23,13.23,0,0,1,4.8-4l.72-.34,0-.09,7-3.12Z"/><path class="cls-3" d="M88.91,105.92a23.83,23.83,0,0,1-6.85-2l-.27-.12L80.6,90.3l-3.16-1.44-1.32,11.59-.7-.52A52.31,52.31,0,0,1,68,93.15L67.88,93v-.16A57.44,57.44,0,0,0,67,86.94c-.74-3.51-7-22-7.89-24.52L51,61.13l-.08-.32c-.45-1.81-.83-3.66-1.13-5.48l0-.28.21-.18c4.31-3.78,9-5.7,13.91-5.7,20.59,0,39.7,33.31,43.32,40l.08.16s-.11.67-.14.8l-.13.72-9.77-6.14L89.3,106Z"/><path class="cls-2" d="M63.85,49.67c20.36,0,39.43,33.37,42.88,39.72,0,.21-.07.42-.11.63L97,83.94l-8,21.49a23.21,23.21,0,0,1-6.7-2L81.08,90,77,88.11l-1.3,11.42a52.19,52.19,0,0,1-7.36-6.71c-.19-1.9-.47-4.17-.85-6C66.7,83,59.51,62,59.51,62l-8.13-1.29c-.46-1.84-.83-3.66-1.11-5.44,4.49-3.94,9.06-5.58,13.58-5.58m0-1c-5.05,0-9.84,2-14.24,5.82l-.42.37.09.54c.29,1.84.68,3.7,1.13,5.53l.16.65.66.1,7.53,1.19c1.15,3.39,7.06,20.8,7.77,24.18a54.11,54.11,0,0,1,.84,5.87l0,.33.22.24a53.35,53.35,0,0,0,7.5,6.85l1.39,1,.2-1.72L77.86,89.6l2.27,1,1.14,12.9,0,.58.53.25a24.48,24.48,0,0,0,7,2l.79.1.27-.75,7.57-20.33,8.62,5.43,1.24.78.28-1.44.06-.42,0-.23.06-.34-.16-.3C104,82.2,84.73,48.67,63.85,48.67Z"/><path class="cls-4" d="M106.42,89.56l-.13.07-.06-.1h0v0c-3.76-6.92-22.47-39.31-42.35-39.31-4.67,0-9.13,1.83-13.25,5.45l-.7-.71c5.31-5.75,11.18-8.67,17.47-8.67,6.66,0,13.86,3.31,21.41,9.83A96.74,96.74,0,0,1,104,72.73l.1.15,0,.18a19.37,19.37,0,0,0,0,3.49c.5,5.69,2.9,5.86,3.17,5.86l.56-.07,0,.57a41.1,41.1,0,0,1-.6,6.78Z"/><path class="cls-2" d="M67.37,46.74c8.12,0,15.59,5,21.09,9.7A95.62,95.62,0,0,1,103.53,73h0a18.51,18.51,0,0,0,0,3.59c.52,6,3.11,6.31,3.66,6.31h.1a40.42,40.42,0,0,1-.59,6.69,1.55,1.55,0,0,1,0-.21C103.28,83,84.22,49.67,63.85,49.67c-4.52,0-9.1,1.64-13.58,5.58C56,49,61.84,46.74,67.37,46.74m0-1h0c-6.42,0-12.42,3-17.83,8.83L50.93,56c4-3.54,8.37-5.33,12.92-5.33,8.3,0,17.39,5.76,27,17.13a139.73,139.73,0,0,1,15,22.07l.56-.31,1.27.21a42,42,0,0,0,.6-6.86V81.79l-1.12.12c-.81,0-2.29-1.14-2.66-5.4a17.55,17.55,0,0,1,0-3.4l0-.43-.25-.28A97.09,97.09,0,0,0,89.11,55.69c-7.64-6.6-15-9.95-21.74-9.95Z"/><path class="cls-4" d="M90.34,106a19.14,19.14,0,0,1-2.78-.33l-.31-.06L87,104.58l.2,0,.16-.29h.08L95.5,81.73l11.67,8.06-.09.48-.14.7-.62-.31c-1.42-.88-3.33-2.19-5-3.34-1-.68-2.08-1.42-2.68-1.81-.34,1-1.25,3.56-3.64,9.79-1.56,4.07-3.9,10.13-4,10.37a.89.89,0,0,1-.29.29l-.13.09Z"/><path class="cls-2" d="M95.75,82.52,106.62,90c0,.07,0,.14,0,.21-2.87-1.78-8-5.46-8.26-5.46,0,0,0,0,0,0,.09.39-7.62,20.3-7.81,20.64a.61.61,0,0,1-.14.11,19.64,19.64,0,0,1-2.7-.32h.07c.25,0-.3-.42,0-.42h.06l8-22.27M95.25,81l-.44,1.23L87,104.05l-.68-.13.39,1.53.15.62.63.13a20.29,20.29,0,0,0,2.85.34l.33,0,.28-.19a1.27,1.27,0,0,0,.44-.45c.23-.4,4-10.34,4.08-10.44,2-5.18,3-7.81,3.44-9.2L101,87.73c1.69,1.16,3.6,2.47,5,3.35l1.23.77.28-1.42,0-.09,0-.13.13-.64-.54-.37L96.32,81.69,95.25,81Z"/><path class="cls-2" d="M63.75,49.68s1.47,13.13,3.48,20.83c4,15.27,5,15.8,6.44,16.48l7.41,3s2.22.62,2.81-.37S89.72,80,90.62,66C83,57.28,73.53,49.63,63.75,49.68Z"/><path class="cls-5" d="M88.46,56.44c-5-4.31-11.62-8.78-18.88-9.57l-5.83,2.81c9.81,0,19.32,7.64,26.93,16.37l3.23-4.48C92.26,59.9,90.44,58.16,88.46,56.44Z"/><ellipse class="cls-4" cx="76.95" cy="71.17" rx="5.43" ry="8.76" transform="translate(-23.14 40.05) rotate(-25.49)"/><ellipse class="cls-2" cx="76.65" cy="71.17" rx="3.08" ry="5.29" transform="translate(-23.17 39.92) rotate(-25.49)"/><path class="cls-1" d="M91.28,111.73c-14.1,0-30.73-14.23-40.44-34.59C45.06,65,42.37,52.27,43.28,41.29s5.39-19.07,12.59-22.5A18.67,18.67,0,0,1,63.93,17C78,17,94.66,31.24,104.37,51.61c12,25.14,9.73,51.31-5,58.35a18.64,18.64,0,0,1-8.06,1.77ZM65.73,24.18a13.88,13.88,0,0,0-6,1.3c-5.66,2.7-9.08,9.29-9.63,18.54S52,64.32,57,74.82c8.5,17.81,22.51,30.25,34.08,30.25a13.74,13.74,0,0,0,6-1.31c6-2.86,9.52-10.28,9.69-20.39-1.1-.18-3.28-1.25-3.75-6.73a21.67,21.67,0,0,1,.27-5.66c.42-2.76.82-5.37-1.51-12.07-.62-1.53-1.29-3-2-4.49C91.32,36.61,77.3,24.18,65.73,24.18Z"/><path class="cls-2" d="M63.93,17.52c13.63,0,30.1,13.58,40,34.31,11.88,24.92,9.74,50.75-4.79,57.68a18.17,18.17,0,0,1-7.85,1.72c-13.63,0-30.1-13.58-40-34.31C39.41,52,41.55,26.17,56.08,19.24a18.17,18.17,0,0,1,7.85-1.72M91.1,105.57a14.21,14.21,0,0,0,6.19-1.36c6.55-3.12,9.92-11.14,10-21.3h-.1c-.55,0-3.14-.32-3.66-6.31-.59-6.7,2.41-7.29-1.27-17.86q-.91-2.27-2-4.53c-8.76-18.38-23-30.53-34.53-30.53A14.2,14.2,0,0,0,59.54,25c-12.07,5.76-13.39,28.14-3,50,8.76,18.37,23,30.53,34.53,30.53m-27.17-89a19.07,19.07,0,0,0-8.28,1.82C48.29,21.85,43.72,30,42.79,41.25c-.92,11.07,1.78,23.89,7.6,36.1C60.18,97.89,77,112.23,91.28,112.23a19.07,19.07,0,0,0,8.28-1.82c7.36-3.51,11.93-11.65,12.87-22.91.92-11.07-1.78-23.89-7.61-36.1C95,30.86,78.21,16.52,63.93,16.52ZM91.1,104.57c-11.39,0-25.21-12.32-33.63-30-10.17-21.33-9-43.17,2.5-48.67a13.2,13.2,0,0,1,5.76-1.26c11.39,0,25.21,12.32,33.63,30,.68,1.42,1.34,2.93,2,4.48,2.28,6.54,1.89,9.09,1.48,11.79a22,22,0,0,0-.28,5.77c.45,5.2,2.44,6.68,3.74,7.09-.25,9.7-3.65,16.8-9.4,19.54a13.2,13.2,0,0,1-5.76,1.26Z"/></g></svg>