<svg xmlns="http://www.w3.org/2000/svg" viewBox="0 0 160 127"><defs><style>.cls-1,.cls-3{fill:#231f20;}.cls-2{fill:#6d6e71;}.cls-2,.cls-4,.cls-5,.cls-6{stroke:#231f20;stroke-miterlimit:10;}.cls-3{opacity:0.3;}.cls-4{fill:#414042;}.cls-5{fill:#fff;}.cls-6{fill:none;}</style></defs><g id="Layer_11" data-name="Layer 11"><path class="cls-1" d="M77.85,19.54c17.42,0,34,14.3,39.14,35.07,5.85,23.77-5.58,47-25.52,51.93a31.53,31.53,0,0,1-7.56.92c-13.47,0-26.46-8.56-34-22.06a28.07,28.07,0,0,1-7.44-13.21,28.6,28.6,0,0,1,1.17-18.38c2-16.29,12.05-29.75,26.67-33.35a31.47,31.47,0,0,1,7.56-.92m0-1.5a33.53,33.53,0,0,0-7.92,1C55.26,22.61,44.37,36.1,42.16,53.4A30.27,30.27,0,0,0,41,72.55a29.61,29.61,0,0,0,7.68,13.77c7.9,14,21.39,22.64,35.23,22.64a33.53,33.53,0,0,0,7.92-1c20.71-5.1,32.65-29.21,26.62-53.74C113.28,33.27,96.21,18,77.85,18Z"/><ellipse class="cls-2" cx="80.88" cy="63.5" rx="37.19" ry="44.32" transform="translate(-12.83 21.16) rotate(-13.82)"/><ellipse class="cls-3" cx="75.52" cy="64.82" rx="30.4" ry="36.23" transform="translate(-13.3 19.92) rotate(-13.82)"/><path class="cls-4" d="M84.81,61.93c3.36,13.62-3.74,27.35-16,30.08-10.42,2.33-23-6.2-26.39-19.82s2.08-26.5,14.26-29.5S81.46,48.31,84.81,61.93Z"/><path class="cls-5" d="M78,61.4a2.82,2.82,0,0,1-1.88,3.53A2.86,2.86,0,0,1,73,62.61c-.39-1.6.25-3.12,1.68-3.47A2.84,2.84,0,0,1,78,61.4Z"/><path class="cls-6" d="M91.74,60.11C88.39,46.49,77.91,38.6,65.36,41.19c-2.74.56-.76.15-5.7,1,11.19-1.07,22.07,7.21,25.15,19.73,3,12.15-2.34,24.37-12.22,28.81l7.82-2.51,0,0C89.63,83,94.57,71.58,91.74,60.11Z"/><path class="cls-1" d="M89.86,54.59c-.14-.32-.29-.63-.44-.94L82.11,55q.26.47.48.93Z"/><path class="cls-1" d="M88.49,51.91c-.18-.32-.36-.62-.55-.92L80.4,52.34c.22.3.44.6.64.91Z"/><path class="cls-1" d="M90.92,57.31c-.1-.32-.21-.64-.33-1l-7.15,1.41.36.95Z"/><path class="cls-1" d="M91.73,60.08c-.08-.33-.16-.65-.25-1l-7.06,1.46c.09.32.19.63.28,1Z"/><path class="cls-1" d="M86.74,49.27c-.23-.31-.46-.6-.7-.89l-7.78,1.33c.26.28.52.58.77.88Z"/><path class="cls-1" d="M68.12,43.16l8.8-1.28a19.94,19.94,0,0,0-2.32-.67l-9,1.3A21.7,21.7,0,0,1,68.12,43.16Z"/><path class="cls-1" d="M81.46,44.2c-.42-.29-.84-.56-1.28-.81l-8.44,1.29c.47.25.92.53,1.37.8Z"/><path class="cls-1" d="M84.49,46.69c-.3-.3-.61-.58-.92-.86l-8.09,1.31c.34.27.68.56,1,.85Z"/><path class="cls-1" d="M92.5,65.77c0-.33,0-.67,0-1l-6.93,1.55c0,.34,0,.68.06,1Z"/><path class="cls-1" d="M87.57,81.85c.3-.41.59-.84.87-1.27L81.9,82.34c-.26.43-.54.85-.83,1.26Z"/><path class="cls-1" d="M83.68,86c.57-.47,1.11-1,1.63-1.5l-6.4,1.79c-.5.52-1,1-1.58,1.48Z"/><path class="cls-1" d="M92.26,62.9c0-.33-.09-.66-.15-1l-7,1.51c.06.33.13.66.18,1Z"/><path class="cls-1" d="M89.79,78.26c.19-.38.36-.78.53-1.17l-6.64,1.73c-.16.4-.34.78-.52,1.17Z"/><path class="cls-1" d="M92.45,68.72c0-.34,0-.69,0-1l-6.87,1.61c0,.34,0,.69,0,1Z"/><path class="cls-1" d="M91.17,74.94c.12-.37.23-.75.34-1.12l-6.73,1.69c-.1.38-.21.74-.32,1.11Z"/><path class="cls-1" d="M92,71.77c.08-.36.16-.71.22-1.08l-6.84,1.66c0,.35-.09.71-.15,1.06Z"/><path class="cls-5" d="M80.51,40.7l3-6.4-4.17-2.11L76.1,39.07A31.85,31.85,0,0,1,80.51,40.7Z"/><path class="cls-5" d="M93.17,58.13l7.65-5L99,48.93,91.25,53A33.94,33.94,0,0,0,93.17,58.13Z"/><path class="cls-5" d="M92.94,77.45a29.21,29.21,0,0,1-2.12,4.22l8,2.66,1.47-4.44Z"/></g></svg>