<svg xmlns="http://www.w3.org/2000/svg" viewBox="0 0 160 127"><defs><style>.cls-1{fill:#c4dce8;}.cls-2{fill:#231f20;}.cls-3,.cls-4{fill:#fff;}.cls-3{stroke:#231f20;stroke-miterlimit:10;}.cls-5{fill:#e6e7e8;}</style></defs><g id="tools"><path class="cls-1" d="M72.77,107.35a8.32,8.32,0,0,1-2-.25c-3-.74-8.19-3.57-10.48-8.34a11.29,11.29,0,0,1,.14-10l.08-.18C64.9,79,66.24,76.07,63.73,65.74c-1.59-6.57-2.2-8-3.41-10.9-.74-1.75-1.75-4.14-3.34-8.54-2.83-7.84-1.26-15.93,3.65-18.83l12-6.77.17-.07a8.7,8.7,0,0,1,4.12-1c3.1,0,6.67,1.38,10.62,4.1a.52.52,0,0,1,.11.1,3.33,3.33,0,0,1,.62,4.08c-.22.33-.69,1-1.3,1.78-1.44,2-5.2,7-5.44,8.34.37.44,1.5,1.81,5.08,6.29,6.84-7.09,7.76-7.09,8.26-7.09a.92.92,0,0,1,.86.54c.07.15.18.35.33.61,1.39,2.49,5.06,9.07,2.6,21.09l5.62,7.08a.75.75,0,0,1,.15.56,3.42,3.42,0,0,1-2,2.59l-1.68,1L91.35,76a3,3,0,0,1-.91.5l-.07,0a3.13,3.13,0,0,1-.79.14l-.47,0a12.19,12.19,0,0,0,.48,1.53c2.3,6,4.41,16.44,1.61,19.74A10.38,10.38,0,0,1,87.9,100l-10,5.73A9.53,9.53,0,0,1,72.77,107.35Z"/><path class="cls-2" d="M76.88,20.4c2.74,0,6.13,1.17,10.19,4,0,0,1.56,1.6.54,3.14s-7.7,10-6.8,10.91c.28.28,2.62,3.19,5.71,7,3.6-3.76,7.39-7.47,8.31-7.47a.18.18,0,0,1,.18.11c.74,1.57,5.64,8.23,2.81,21.57h0L103.65,67a2.67,2.67,0,0,1-1.53,2l-1.73,1-9.47,5.33a2.32,2.32,0,0,1-.73.41h0a2.59,2.59,0,0,1-.65.12c-.5,0-.92.06-1.34.08a12.9,12.9,0,0,0,.7,2.5c2.31,6,4.23,16,1.73,19a9.63,9.63,0,0,1-3.05,1.9l-10,5.76h0a8.81,8.81,0,0,1-4.77,1.5,7.75,7.75,0,0,1-1.86-.23C66.4,105.24,56.56,99,61.07,89.11s6-12.9,3.39-23.55S61.88,57.65,57.69,46C55.15,39,56.22,31,61,28.11h0l.21-.12L73,21.35l0,0a7.85,7.85,0,0,1,3.9-1m0-1.5v0a9.41,9.41,0,0,0-4.41,1,1.28,1.28,0,0,0-.24.11L60.51,26.68l-.24.13,0,0c-5.2,3.09-6.9,11.56-4,19.71,1.6,4.42,2.61,6.83,3.35,8.58,1.24,2.93,1.8,4.27,3.38,10.78C65.45,76,64.25,78.6,59.79,88.31l-.08.17a12.11,12.11,0,0,0-.13,10.6c2.4,5,7.88,8,11,8.75a9.3,9.3,0,0,0,2.22.27,10.33,10.33,0,0,0,5.55-1.72l9.91-5.68a11.45,11.45,0,0,0,3.45-2.19l.09-.1c3.32-3.9.44-15.49-1.48-20.49-.08-.2-.15-.4-.21-.59a3.69,3.69,0,0,0,.45-.11.7.7,0,0,0,.19-.06,3.47,3.47,0,0,0,1-.57l9.35-5.26,1.65-.94a4.13,4.13,0,0,0,2.36-3.16,1.45,1.45,0,0,0-.31-1.13l-5.39-6.81C101.8,47.22,98.08,40.57,96.67,38c-.13-.23-.24-.42-.3-.56a1.68,1.68,0,0,0-1.54-1c-.76,0-1.69,0-8.21,6.7-2.63-3.28-3.77-4.68-4.29-5.31.69-1.62,3.93-6,5.21-7.73.63-.85,1.08-1.46,1.31-1.82,1.35-2,.13-4.16-.7-5a1.24,1.24,0,0,0-.22-.18c-4.08-2.82-7.79-4.24-11.05-4.24Z"/><path class="cls-3" d="M75.27,31C59.14,19.91,53.49,34.43,57.69,46s4.19,8.87,6.77,19.52,1.13,13.71-3.39,23.55,5.33,16.13,9.84,17.26,7.91-2.26,7.91-2.26c2.5-2.94.57-13-1.73-19s.38-9.11,5-9.11,5.39,0,7.44-.13a3.82,3.82,0,0,0,2.92-1.39S69.9,46,69,45.09s5.78-9.37,6.8-10.91S75.27,31,75.27,31Z"/><path class="cls-4" d="M89.61,64a1.19,1.19,0,0,1-.71-.2c-1.22-.87-9.09-10.21-10-11.27l-.29-.34.32-.33c3.23-3.36,14-14.35,15.89-14.35a.68.68,0,0,1,.63.37c.07.14.19.33.33.57,1.39,2.33,5.1,8.51,2.51,19.83C97.94,59.89,91.68,64,89.61,64Z"/><path class="cls-2" d="M94.83,38a.18.18,0,0,1,.18.09c.74,1.46,5.64,7.66,2.81,20.07-.31,1.33-6.29,5.33-8.21,5.33a.66.66,0,0,1-.42-.11C88,62.53,79.3,52.21,79.3,52.21S93,38,94.83,38m0-1c-.59,0-1.58,0-9.17,7.38-3.62,3.52-7,7.09-7.09,7.13l-.62.65.58.68C80,54.59,87.36,63.32,88.6,64.21a1.74,1.74,0,0,0,1,.29c2.11,0,8.73-4.12,9.18-6.1,2.63-11.53-1.15-17.83-2.57-20.2-.14-.23-.25-.41-.32-.55A1.17,1.17,0,0,0,94.83,37Z"/><path class="cls-1" d="M89.25,62.71a71.25,71.25,0,0,0,1.1-8.31c.53-8.4-2.63-10.53-2.66-10.55l-.54-.35.46-.44c6-5.55,6.82-5.55,7.22-5.55a.67.67,0,0,1,.62.36l.34.56c1.39,2.27,5.1,8.29,2.51,19.32-.39,1.67-6.44,5.4-8.52,5.55l-.66.05Z"/><path class="cls-2" d="M94.83,38a.18.18,0,0,1,.18.09c.74,1.42,5.64,7.45,2.81,19.54-.3,1.26-6,5-8.08,5.17a72,72,0,0,0,1.11-8.38c.55-8.87-2.89-11-2.9-11C91.07,40.53,94,38,94.83,38m0-1c-.57,0-1.42,0-7.56,5.68l-1,.9,1.12.69s2.92,2.07,2.42,10.09a71.47,71.47,0,0,1-1.09,8.24l-.25,1.29,1.31-.1c2.24-.17,8.54-4.1,9-5.93,2.63-11.24-1.15-17.39-2.58-19.7-.13-.22-.24-.4-.31-.53A1.18,1.18,0,0,0,94.83,37Z"/><ellipse class="cls-5" cx="70.46" cy="94.38" rx="4.32" ry="6.5" transform="translate(-41.17 56.83) rotate(-34.66)"/><path class="cls-2" d="M69.2,60.94a.48.48,0,0,1-.38-.17.51.51,0,0,1,.06-.71L74,55.72a.49.49,0,0,1,.7.05.51.51,0,0,1,0,.71l-5.14,4.35A.48.48,0,0,1,69.2,60.94Z"/><path class="cls-2" d="M71,63.08a.52.52,0,0,1-.38-.17.5.5,0,0,1,.06-.71l5.13-4.34a.49.49,0,0,1,.7,0,.51.51,0,0,1-.06.71L71.32,63A.54.54,0,0,1,71,63.08Z"/><path class="cls-2" d="M72.8,65.22a.52.52,0,0,1-.38-.17.51.51,0,0,1,0-.71L77.61,60a.5.5,0,0,1,.64.77l-5.13,4.35A.54.54,0,0,1,72.8,65.22Z"/><path class="cls-2" d="M74.6,67.36a.52.52,0,0,1-.39-.17.51.51,0,0,1,.06-.71l5.14-4.35a.5.5,0,0,1,.64.77l-5.13,4.34A.49.49,0,0,1,74.6,67.36Z"/><path class="cls-2" d="M76.4,69.5a.5.5,0,0,1-.39-.18.5.5,0,0,1,.06-.7l5.13-4.35a.52.52,0,0,1,.71.06.51.51,0,0,1-.06.71l-5.13,4.34A.51.51,0,0,1,76.4,69.5Z"/></g></svg>