<svg xmlns="http://www.w3.org/2000/svg" viewBox="0 0 160 127"><defs><style>.cls-1{fill:#80d4f7;}.cls-2{fill:#58595b;}.cls-2,.cls-3,.cls-4{stroke:#231f20;stroke-miterlimit:10;}.cls-2,.cls-4{stroke-width:1.5px;}.cls-3{fill:#414042;}.cls-4{fill:none;}.cls-5{fill:#231f20;}</style></defs><g id="Layer_7" data-name="Layer 7"><path class="cls-1" d="M125.82,22l-6-.5h0a.63.63,0,0,1-.57-.67.62.62,0,0,1,.67-.56h0l5.94,1a.34.34,0,0,1,.28.4.35.35,0,0,1-.37.29Z"/><path class="cls-1" d="M108.11,20.94l-11.69.14h-.11a1.53,1.53,0,1,1,0-3.06h.12l11.85.76a1.08,1.08,0,0,1,0,2.16Z"/><path class="cls-1" d="M84.84,22.11A97.12,97.12,0,0,0,73.52,24.3a2.33,2.33,0,1,1-1.17-4.51l.15,0a99.15,99.15,0,0,1,11.94-1.51,1.94,1.94,0,0,1,.4,3.86Z"/><path class="cls-1" d="M62.74,27.93A49.83,49.83,0,0,0,53,33.41a3,3,0,0,1-3.53-4.82l.17-.11h0A60.42,60.42,0,0,1,60.77,23a2.64,2.64,0,0,1,2,4.9Z"/><path class="cls-1" d="M45.13,41A47,47,0,0,0,42,45.38a51.6,51.6,0,0,0-2.64,4.71h0A3.63,3.63,0,0,1,32.8,47a40.42,40.42,0,0,1,3.14-5.54,41.39,41.39,0,0,1,4-5A3.47,3.47,0,0,1,45.15,41Z"/><path class="cls-1" d="M35.49,60.34a73.13,73.13,0,0,0-2,11.06v0a2.48,2.48,0,0,1-4.95-.12A54.31,54.31,0,0,1,29.13,59h0A3.25,3.25,0,1,1,35.55,60C35.54,60.14,35.51,60.24,35.49,60.34Z"/><path class="cls-1" d="M33,82.91c0,2,.11,4,.27,6h0a.36.36,0,0,1-.68.17,30.32,30.32,0,0,1-1.13-2.86c-.33-1-.66-1.94-.92-2.93v0a1.25,1.25,0,0,1,2.42-.64A1,1,0,0,1,33,82.91Z"/><path class="cls-1" d="M122.06,34l-7.47-.6h0a.59.59,0,0,1,.09-1.18h0l7.43,1.22a.28.28,0,0,1-.07.55Z"/><path class="cls-1" d="M105.91,33.09a125.36,125.36,0,0,0-14.39.59,1.43,1.43,0,1,1-.28-2.84h.09a125.8,125.8,0,0,1,14.67.45.91.91,0,0,1-.09,1.81Z"/><path class="cls-1" d="M83,34.91A64.83,64.83,0,0,0,69.56,39a2.09,2.09,0,0,1-1.69-3.82l.1,0a64.44,64.44,0,0,1,14.51-3.59A1.7,1.7,0,0,1,83,34.91Z"/><path class="cls-1" d="M62.34,43.09a33.19,33.19,0,0,0-5.14,4.45,38.19,38.19,0,0,0-4.14,5.28,2.83,2.83,0,0,1-4.74-3.1.21.21,0,0,0,0-.06v0A38.78,38.78,0,0,1,59.76,39.17a2.34,2.34,0,0,1,2.6,3.9Z"/><path class="cls-1" d="M49.33,60a50.06,50.06,0,0,0-2.11,6.48c-.26,1.12-.53,2.24-.73,3.38s-.38,2.29-.52,3.45v0a2.07,2.07,0,0,1-4.13-.21c0-1.26,0-2.53.08-3.8s.18-2.53.37-3.8A40.23,40.23,0,0,1,44.12,58a2.79,2.79,0,1,1,5.26,1.86S49.35,59.92,49.33,60Z"/><path class="cls-1" d="M45.43,81.75c0,1.24,0,2.47,0,3.71s.1,2.5.22,3.73h0a.29.29,0,0,1-.26.31.26.26,0,0,1-.27-.17,29.92,29.92,0,0,1-1.32-3.6c-.37-1.23-.68-2.47-1-3.73a1.29,1.29,0,0,1,2.51-.57A1.1,1.1,0,0,1,45.43,81.75Z"/><path class="cls-1" d="M118.3,46.05a139.51,139.51,0,0,0-17.91-.74.84.84,0,0,1-.86-.81.82.82,0,0,1,.8-.86h.06a125.57,125.57,0,0,1,18,2,.2.2,0,0,1,.16.23A.21.21,0,0,1,118.3,46.05Z"/><path class="cls-1" d="M94.46,45.68a56.85,56.85,0,0,0-17.08,4,1.5,1.5,0,1,1-1.18-2.75l.08,0a59.09,59.09,0,0,1,18-3.25,1,1,0,0,1,.13,2Z"/><path class="cls-1" d="M72.3,52.33A27.73,27.73,0,0,0,66,57.89a31.59,31.59,0,0,0-4.44,7v0a2.07,2.07,0,0,1-3.77-1.69A26.7,26.7,0,0,1,60,59a26,26,0,0,1,3-3.76,32.92,32.92,0,0,1,7.55-5.79,1.66,1.66,0,0,1,1.72,2.84Z"/><path class="cls-1" d="M59.56,70.23c-.37,1.37-.69,2.77-.94,4.18s-.42,2.86-.55,4.32A63.65,63.65,0,0,0,58,87.58a.48.48,0,0,1-.93.18,37.32,37.32,0,0,1-1.71-9.05,34.65,34.65,0,0,1,0-4.67,33.83,33.83,0,0,1,.59-4.68,1.88,1.88,0,0,1,3.69.73l0,.12Z"/><path class="cls-1" d="M114.54,58.07a82.5,82.5,0,0,0-20.83,0,.72.72,0,1,1-.21-1.42h0a61.44,61.44,0,0,1,10.59-.14,104.76,104.76,0,0,1,10.46,1.27.14.14,0,0,1,.1.15A.12.12,0,0,1,114.54,58.07Z"/><path class="cls-1" d="M90.8,58.65a31.8,31.8,0,0,0-9.5,3.6,20.75,20.75,0,0,0-4,3.06,22.28,22.28,0,0,0-3.07,3.85h0a1.29,1.29,0,0,1-2.19-1.36l0,0a20.84,20.84,0,0,1,3.65-4.18,24.07,24.07,0,0,1,4.53-3.13A33.87,33.87,0,0,1,90.5,57.1a.79.79,0,0,1,.32,1.54Z"/><path class="cls-1" d="M73,71.64c-.28.7-.63,1.37-.85,2.09l-.38,1.07-.31,1.1a28.37,28.37,0,0,0-.84,4.52,38.19,38.19,0,0,0-.26,4.68,37.63,37.63,0,0,0,.28,4.73h0a.13.13,0,0,1-.11.14.16.16,0,0,1-.14-.08,25.87,25.87,0,0,1-1.27-4.7,30.51,30.51,0,0,1-.41-4.88,24.9,24.9,0,0,1,.47-4.94,23.58,23.58,0,0,1,1.46-4.81,1.29,1.29,0,0,1,2.4,1Z"/><path class="cls-1" d="M110.78,70.09a57.09,57.09,0,0,0-10.53-.37,24.69,24.69,0,0,0-10,2.55,13.5,13.5,0,0,0-6.46,7.61A21.31,21.31,0,0,0,83,90.15a.05.05,0,0,1,0,.06,0,0,0,0,1-.06,0,18,18,0,0,1-.13-10.62,12.74,12.74,0,0,1,2.68-4.75,14.25,14.25,0,0,1,4.35-3.25,25.35,25.35,0,0,1,10.38-2.34A57.6,57.6,0,0,1,110.8,70s0,0,0,.06A.07.07,0,0,1,110.78,70.09Z"/><path class="cls-2" d="M116.83,96.62c5.15,2.77,2.9,2,8,3.09s5.06.47,5.87.2A1.15,1.15,0,0,1,132,101.5c-.46.75-8.39,7.15-9.63,8.14s-4.16,3.34-7.26,1.38a40.53,40.53,0,0,1-6.92-6.1c-.8-.83,4-10.17,4-10.17Z"/><path class="cls-3" d="M29.61,47.4,92.42,74.3a1.32,1.32,0,0,1,.82,1.63l-.34,2.86a1.36,1.36,0,0,1-1.78.87L28.41,50.6a.71.71,0,0,1-.4-.93l.62-1.85A.78.78,0,0,1,29.61,47.4Z"/><path class="cls-2" d="M116.06,93.59c-3.79-2-34.67-14-38.09-16a39.57,39.57,0,0,0-8-3.37c-1.74-.61-6.38-4.14-8.12-5.36a5.24,5.24,0,0,1-1.27-1.26l-4.17-5.77-1.44-2.06a1.35,1.35,0,0,0-.61-.47l-5.8-2.23a1.33,1.33,0,1,0-1,2.47L53,61.62l.3.42c1.11,1.84,4.58,7.49,6.23,8.88,2,1.68,45.2,34.36,47.2,35.74s4.85,2.72,4.92,1.9c0,0-2.71-2.37-2.22-4.09l3-8.92s2.45,2.74,4.3,2S119.84,95.57,116.06,93.59Z"/><path class="cls-4" d="M130.72,99.91c-.81.27-.75.93-5.87-.2-4.82-1.06-3.11-.41-7.19-2.64,1.2-.76,1.46-1.87-1.6-3.48-3.79-2-34.67-14-38.09-16a39.57,39.57,0,0,0-8-3.37c-1.74-.61-6.38-4.14-8.12-5.36a5.24,5.24,0,0,1-1.27-1.26l-2.27-3.15L91.12,79.66a1.36,1.36,0,0,0,1.78-.87l.34-2.86a1.32,1.32,0,0,0-.82-1.63L29.61,47.4a.78.78,0,0,0-1,.42l-.69,1.55a1.11,1.11,0,0,0,.47,1.23l18.87,8.75a1.49,1.49,0,0,0,.3.18l.64.25,5.15,2.39c1.18,2,4.54,7.38,6.16,8.75,2,1.68,45.2,34.36,47.2,35.74s4.85,2.72,4.92,1.9a11.43,11.43,0,0,1-1.32-1.43,31.75,31.75,0,0,0,4.76,3.89c3.1,2,6-.4,7.26-1.38s9.17-7.39,9.63-8.14A1.15,1.15,0,0,0,130.72,99.91Z"/><path class="cls-5" d="M76.88,81.23,92.6,90.08l7.86,4.43,3.94,2.21a4.64,4.64,0,0,1,1.83,1.61,3,3,0,0,1,.31,2.6.5.5,0,0,1-.63.31.51.51,0,0,1-.32-.63h0l0-.06a2.13,2.13,0,0,0-.19-1.73,3.89,3.89,0,0,0-1.5-1.35l-3.86-2.32-7.73-4.63Z"/></g></svg>