<svg width="1196" height="92" viewBox="0 0 1196 92" fill="none" xmlns="http://www.w3.org/2000/svg">
<g clip-path="url(#clip0_167_22)">
<rect width="1196" height="92" fill="white"/>
<path d="M44.5109 26.4598C34.5314 26.4598 26.4127 34.5784 26.4127 44.5577C26.4127 54.5369 34.5314 62.6555 44.5109 62.6555C54.4903 62.6555 62.6091 54.5369 62.6091 44.5577C62.6091 34.5784 54.4903 26.4598 44.5109 26.4598ZM44.5109 59.7207C36.1495 59.7207 29.3475 52.9189 29.3475 44.5577C29.3475 36.1965 36.1495 29.3946 44.5109 29.3946C52.8723 29.3946 59.6742 36.1965 59.6742 44.5577C59.6742 52.9189 52.8723 59.7207 44.5109 59.7207Z" fill="black"/>
<path d="M88.7537 37.2216L77.0456 35.45C76.4019 33.2802 75.5322 31.1731 74.4522 29.1647L81.4723 19.6433C81.9028 19.0593 81.8421 18.2483 81.3295 17.7347L72.3136 8.72001C71.8 8.20741 70.989 8.14577 70.405 8.57621L60.9137 15.5727C58.8965 14.4771 56.7756 13.5947 54.5881 12.9402L52.8263 1.29501C52.7177 0.57697 52.1013 0.0467529 51.3755 0.0467529H38.6265C37.9006 0.0467529 37.2843 0.57697 37.1757 1.29501L35.4138 12.9402C33.2264 13.5947 31.1055 14.4781 29.0882 15.5727L19.5969 8.57621C19.0129 8.14577 18.2019 8.20643 17.6883 8.72001L8.67345 17.7347C8.16083 18.2473 8.0992 19.0593 8.52964 19.6433L15.5498 29.1647C14.4698 31.1731 13.6001 33.2802 12.9564 35.45L1.24829 37.2216C0.530229 37.3302 0 37.9465 0 38.6724V51.4211C0 52.147 0.530229 52.7633 1.24731 52.8719L13.0131 54.6523C13.6637 56.7986 14.5314 58.8774 15.6026 60.8555L8.52866 70.4502C8.09822 71.0343 8.15985 71.8452 8.67247 72.3588L17.6873 81.3735C18.2 81.8871 19.0119 81.9477 19.596 81.5173L29.2223 74.421C31.1906 75.4775 33.2567 76.3325 35.3854 76.9713L37.1747 88.7985C37.2833 89.5165 37.8996 90.0468 38.6255 90.0468H51.3745C52.1004 90.0468 52.7167 89.5165 52.8253 88.7985L54.6146 76.9713C56.7433 76.3325 58.8094 75.4775 60.7777 74.421L70.404 81.5173C70.9881 81.9477 71.7991 81.8861 72.3127 81.3735L81.3285 72.3588C81.8411 71.8462 81.9028 71.0343 81.4713 70.4502L74.3974 60.8555C75.4696 58.8774 76.3373 56.7986 76.9869 54.6523L88.7527 52.8719C89.4698 52.7633 90 52.147 90 51.4211V38.6724C90.001 37.9475 89.4707 37.3302 88.7537 37.2216ZM87.0661 50.1591L75.6173 51.8916C75.0421 51.9787 74.5725 52.3974 74.4199 52.958C73.7312 55.4965 72.7098 57.9422 71.3843 60.2284C71.0908 60.7341 71.125 61.3651 71.4723 61.8357L78.3594 71.1771L71.1289 78.4074L61.7589 71.4999C61.2894 71.1546 60.6613 71.1184 60.1575 71.4089C57.8771 72.7188 55.4441 73.7264 52.9231 74.4024C52.3606 74.554 51.9399 75.0236 51.8529 75.6008L50.1115 87.1139H39.8865L38.1452 75.6008C38.0581 75.0246 37.6374 74.554 37.0749 74.4024C34.5539 73.7264 32.1209 72.7188 29.8405 71.4089C29.3367 71.1194 28.7077 71.1556 28.2391 71.4999L18.8691 78.4074L11.6386 71.1771L18.5257 61.8357C18.872 61.3651 18.9073 60.7341 18.6138 60.2284C17.2882 57.9432 16.2669 55.4965 15.5782 52.958C15.4256 52.3964 14.956 51.9787 14.3807 51.8916L2.93191 50.1591V39.9344L14.3289 38.2107C14.9071 38.1236 15.3786 37.701 15.5283 37.1356C16.2062 34.5764 17.2256 32.1034 18.56 29.7849C18.8505 29.2801 18.8143 28.6511 18.469 28.1825L11.6386 18.9174L18.8691 11.6871L28.107 18.4968C28.5776 18.8431 29.2086 18.8783 29.7153 18.5838C32.0387 17.2338 34.5246 16.1998 37.1013 15.5101C37.6648 15.3595 38.0855 14.8889 38.1726 14.3118L39.8865 2.98056H50.1115L51.8255 14.3118C51.9125 14.8889 52.3332 15.3595 52.8967 15.5101C55.4735 16.1998 57.9583 17.2338 60.2827 18.5838C60.7885 18.8793 61.4195 18.8431 61.891 18.4968L71.1289 11.6871L78.3594 18.9174L71.5291 28.1825C71.1837 28.6511 71.1475 29.2801 71.4381 29.7849C72.7715 32.1034 73.7918 34.5764 74.4698 37.1356C74.6195 37.701 75.091 38.1226 75.6691 38.2107L87.0661 39.9344V50.1591Z" fill="black"/>
<path d="M131.454 28.2028C121.788 31.4625 116.576 41.9784 119.835 51.6445C123.095 61.3107 133.611 66.5225 143.277 63.2628C152.943 60.003 158.155 49.4872 154.895 39.821C151.636 30.1549 141.12 24.943 131.454 28.2028ZM142.319 60.4201C134.22 63.1513 125.409 58.7847 122.678 50.6858C119.947 42.587 124.314 33.7767 132.412 31.0455C140.511 28.3142 149.322 32.6808 152.053 40.7797C154.784 48.8785 150.417 57.6888 142.319 60.4201Z" fill="black"/>
<path d="M175.692 24.022L164.032 26.0846C162.728 24.2343 161.231 22.5155 159.566 20.9576L163.175 9.69207C163.396 9.00112 163.08 8.25204 162.43 7.92919L151.006 2.26823C150.356 1.94662 149.567 2.14738 149.152 2.74187L142.394 12.4045C140.132 12.0109 137.84 11.8526 135.559 11.9314L130.168 1.45981C129.835 0.814112 129.082 0.508642 128.394 0.740602L116.314 4.81459C115.626 5.04655 115.211 5.74591 115.338 6.46101L117.39 18.0587C115.526 19.3778 113.799 20.8926 112.237 22.5745L101.007 18.9778C100.317 18.7566 99.5674 19.0732 99.2449 19.724L93.5833 31.1467C93.2614 31.7963 93.4625 32.5853 94.057 33.0012L103.752 39.7801C103.37 42.0283 103.219 44.3029 103.303 46.5646L92.7746 51.9847C92.1289 52.317 91.8234 53.0705 92.0554 53.7583L96.1293 65.8385C96.3612 66.5263 97.0606 66.9409 97.7748 66.8146L109.493 64.7419C110.795 66.5678 112.281 68.2603 113.929 69.7923L110.292 81.1446C110.07 81.8355 110.388 82.5843 111.038 82.9071L122.461 88.5684C123.111 88.8912 123.899 88.6892 124.315 88.0947L131.169 78.2944C133.372 78.6665 135.603 78.8165 137.824 78.7415L143.299 89.3768C143.631 90.0225 144.385 90.328 145.073 90.096L157.153 86.022C157.841 85.7901 158.255 85.0907 158.129 84.3756L156.045 72.5968C157.858 71.3112 159.543 69.8408 161.07 68.2107L172.459 71.8588C173.15 72.0801 173.899 71.7625 174.222 71.1127L179.884 59.6896C180.206 59.04 180.005 58.251 179.41 57.8354L169.641 51.0042C170.025 48.7873 170.182 46.5402 170.112 44.2988L180.692 38.8519C181.337 38.5199 181.642 37.7665 181.41 37.0787L177.337 24.9984C177.106 24.3112 176.406 23.8957 175.692 24.022ZM178.227 36.8204L167.932 42.1206C167.415 42.3869 167.104 42.9337 167.138 43.5136C167.297 46.1392 167.111 48.783 166.585 51.3729C166.469 51.9459 166.703 52.5329 167.182 52.8678L176.693 59.5186L172.152 68.6803L161.066 65.1292C160.511 64.9521 159.904 65.1185 159.52 65.5548C157.778 67.5247 155.794 69.2569 153.621 70.7031C153.137 71.0265 152.888 71.6059 152.99 72.1806L155.019 83.6466L145.33 86.914L140.001 76.561C139.735 76.0428 139.186 75.7314 138.604 75.7674C135.999 75.9325 133.372 75.7552 130.792 75.2427C130.222 75.1293 129.638 75.3646 129.304 75.8406L122.633 85.3802L113.471 80.8395L117.012 69.7871C117.189 69.2305 117.021 68.6214 116.582 68.2359C114.595 66.4941 112.846 64.5021 111.382 62.3167C111.058 61.8334 110.479 61.5877 109.906 61.689L98.5042 63.7058L95.2368 54.0172L105.485 48.7419C106.005 48.4746 106.317 47.9235 106.278 47.3399C106.103 44.6983 106.279 42.0292 106.802 39.4058C106.916 38.8347 106.681 38.2502 106.204 37.9165L96.771 31.3199L101.312 22.1581L112.241 25.6588C112.798 25.8365 113.407 25.6683 113.793 25.2273C115.563 23.2056 117.589 21.4315 119.81 19.9545C120.296 19.6317 120.544 19.0514 120.442 18.4767L118.445 7.19192L128.134 3.92448L133.379 14.1139C133.646 14.6329 134.195 14.9444 134.777 14.9071C137.439 14.7372 140.124 14.9229 142.758 15.4594C143.332 15.5777 143.918 15.3418 144.254 14.8629L150.832 5.4583L159.993 9.999L156.482 20.961C156.304 21.5154 156.471 22.123 156.908 22.5084C158.912 24.2793 160.669 26.2966 162.129 28.5049C162.452 28.9928 163.034 29.2417 163.609 29.1404L174.96 27.1317L178.227 36.8204Z" fill="black"/>
<path d="M228.511 26.4598C218.531 26.4598 210.413 34.5784 210.413 44.5577C210.413 54.5369 218.531 62.6555 228.511 62.6555C238.49 62.6555 246.609 54.5369 246.609 44.5577C246.609 34.5784 238.49 26.4598 228.511 26.4598ZM228.511 59.7207C220.15 59.7207 213.348 52.9189 213.348 44.5577C213.348 36.1965 220.15 29.3946 228.511 29.3946C236.872 29.3946 243.674 36.1965 243.674 44.5577C243.674 52.9189 236.872 59.7207 228.511 59.7207Z" fill="black"/>
<path d="M272.754 37.2216L261.046 35.45C260.402 33.2802 259.532 31.1731 258.452 29.1647L265.472 19.6433C265.903 19.0593 265.842 18.2483 265.329 17.7347L256.314 8.72001C255.8 8.20741 254.989 8.14577 254.405 8.57621L244.914 15.5727C242.896 14.4771 240.776 13.5947 238.588 12.9402L236.826 1.29501C236.718 0.57697 236.101 0.0467529 235.375 0.0467529H222.626C221.901 0.0467529 221.284 0.57697 221.176 1.29501L219.414 12.9402C217.226 13.5947 215.105 14.4781 213.088 15.5727L203.597 8.57621C203.013 8.14577 202.202 8.20643 201.688 8.72001L192.673 17.7347C192.161 18.2473 192.099 19.0593 192.53 19.6433L199.55 29.1647C198.47 31.1731 197.6 33.2802 196.956 35.45L185.248 37.2216C184.53 37.3302 184 37.9465 184 38.6724V51.4211C184 52.147 184.53 52.7633 185.247 52.8719L197.013 54.6523C197.664 56.7986 198.531 58.8774 199.603 60.8555L192.529 70.4502C192.098 71.0343 192.16 71.8452 192.672 72.3588L201.687 81.3735C202.2 81.8871 203.012 81.9477 203.596 81.5173L213.222 74.421C215.191 75.4775 217.257 76.3325 219.385 76.9713L221.175 88.7985C221.283 89.5165 221.9 90.0468 222.626 90.0468H235.374C236.1 90.0468 236.717 89.5165 236.825 88.7985L238.615 76.9713C240.743 76.3325 242.809 75.4775 244.778 74.421L254.404 81.5173C254.988 81.9477 255.799 81.8861 256.313 81.3735L265.329 72.3588C265.841 71.8462 265.903 71.0343 265.471 70.4502L258.397 60.8555C259.47 58.8774 260.337 56.7986 260.987 54.6523L272.753 52.8719C273.47 52.7633 274 52.147 274 51.4211V38.6724C274.001 37.9475 273.471 37.3302 272.754 37.2216ZM271.066 50.1591L259.617 51.8916C259.042 51.9787 258.572 52.3974 258.42 52.958C257.731 55.4965 256.71 57.9422 255.384 60.2284C255.091 60.7341 255.125 61.3651 255.472 61.8357L262.359 71.1771L255.129 78.4074L245.759 71.4999C245.289 71.1546 244.661 71.1184 244.158 71.4089C241.877 72.7188 239.444 73.7264 236.923 74.4024C236.361 74.554 235.94 75.0236 235.853 75.6008L234.112 87.1139H223.887L222.145 75.6008C222.058 75.0246 221.637 74.554 221.075 74.4024C218.554 73.7264 216.121 72.7188 213.841 71.4089C213.337 71.1194 212.708 71.1556 212.239 71.4999L202.869 78.4074L195.639 71.1771L202.526 61.8357C202.872 61.3651 202.907 60.7341 202.614 60.2284C201.288 57.9432 200.267 55.4965 199.578 52.958C199.426 52.3964 198.956 51.9787 198.381 51.8916L186.932 50.1591V39.9344L198.329 38.2107C198.907 38.1236 199.379 37.701 199.528 37.1356C200.206 34.5764 201.226 32.1034 202.56 29.7849C202.851 29.2801 202.814 28.6511 202.469 28.1825L195.639 18.9174L202.869 11.6871L212.107 18.4968C212.578 18.8431 213.209 18.8783 213.715 18.5838C216.039 17.2338 218.525 16.1998 221.101 15.5101C221.665 15.3595 222.086 14.8889 222.173 14.3118L223.887 2.98056H234.112L235.825 14.3118C235.913 14.8889 236.333 15.3595 236.897 15.5101C239.473 16.1998 241.958 17.2338 244.283 18.5838C244.788 18.8793 245.419 18.8431 245.891 18.4968L255.129 11.6871L262.359 18.9174L255.529 28.1825C255.184 28.6511 255.148 29.2801 255.438 29.7849C256.771 32.1034 257.792 34.5764 258.47 37.1356C258.619 37.701 259.091 38.1226 259.669 38.2107L271.066 39.9344V50.1591Z" fill="black"/>
<path d="M314.198 28.0186C304.766 31.2762 299.742 41.6004 302.999 51.0329C306.257 60.4655 316.581 65.489 326.014 62.2314C335.447 58.9737 340.471 48.6496 337.213 39.217C333.955 29.7845 323.631 24.7609 314.198 28.0186ZM325.056 59.4574C317.153 62.1868 308.503 57.978 305.774 50.0749C303.044 42.1717 307.253 33.5221 315.156 30.7926C323.06 28.0631 331.71 32.2719 334.439 40.1751C337.168 48.0782 332.959 56.7279 325.056 59.4574Z" fill="black"/>
<path d="M359.531 23.7484L347.886 25.8957C346.569 24.0549 345.059 22.3471 343.383 20.8013L346.91 9.50986C347.126 8.81732 346.804 8.07057 346.152 7.75245L334.687 2.17473C334.034 1.85786 333.248 2.06435 332.836 2.66185L326.149 12.3734C323.884 11.9963 321.592 11.8546 319.31 11.95L313.844 1.5179C313.507 0.874643 312.751 0.574662 312.065 0.811618L300.014 4.97337C299.328 5.21032 298.919 5.91268 299.05 6.62684L301.187 18.2093C299.333 19.5419 297.616 21.0693 296.067 22.7625L284.812 19.2475C284.119 19.0313 283.372 19.3534 283.054 20.0065L277.476 31.4701C277.159 32.122 277.366 32.9096 277.963 33.3211L287.707 40.0293C287.342 42.2802 287.208 44.5558 287.307 46.8169L276.819 52.3134C276.176 52.6505 275.876 53.4061 276.113 54.0922L280.274 66.1425C280.511 66.8286 281.214 67.2381 281.927 67.1066L293.629 64.9487C294.945 66.7651 296.444 68.4467 298.102 69.9667L294.548 81.3451C294.331 82.0377 294.654 82.7841 295.307 83.1022L306.77 88.6803C307.423 88.9984 308.21 88.7906 308.621 88.1931L315.404 78.3432C317.609 78.6993 319.841 78.833 322.062 78.7419L327.614 89.3371C327.951 89.9803 328.707 90.2803 329.393 90.0434L341.443 85.8816C342.129 85.6447 342.539 84.9423 342.407 84.2281L340.238 72.4648C342.041 71.1661 343.715 69.6835 345.231 68.0423L356.646 71.6074C357.339 71.8236 358.085 71.5007 358.403 70.8485L363.982 59.3845C364.3 58.7327 364.093 57.9451 363.494 57.5339L353.676 50.7739C354.044 48.5542 354.185 46.306 354.099 44.0653L364.639 38.5416C365.281 38.2048 365.581 37.4492 365.344 36.7631L361.182 24.7128C360.947 24.0273 360.244 23.6169 359.531 23.7484ZM362.159 36.528L351.903 41.9029C351.388 42.173 351.08 42.722 351.119 43.3017C351.297 45.926 351.13 48.5711 350.623 51.1648C350.511 51.7386 350.749 52.3239 351.231 52.6553L360.79 59.2367L356.316 68.4313L345.205 64.9609C344.648 64.7878 344.042 64.9586 343.661 65.3977C341.933 67.3802 339.962 69.1269 337.8 70.5888C337.318 70.9157 337.074 71.4969 337.18 72.0708L339.292 83.5217L329.627 86.8596L324.223 76.5456C323.953 76.0293 323.401 75.7219 322.82 75.7622C320.217 75.9462 317.588 75.788 315.005 75.2943C314.434 75.1851 313.851 75.4246 313.521 75.9031L306.919 85.4909L297.724 81.0169L301.185 69.9391C301.359 69.3812 301.186 68.7733 300.743 68.3911C298.745 66.6638 296.98 64.6846 295.501 62.5099C295.173 62.0289 294.593 61.7874 294.021 61.8929L282.634 63.9926L279.296 54.3279L289.506 48.9783C290.024 48.7072 290.332 48.1538 290.289 47.5705C290.094 44.9303 290.25 42.26 290.755 39.6329C290.865 39.0609 290.625 38.4782 290.146 38.148L280.665 31.6201L285.139 22.4256L296.094 25.8466C296.652 26.0203 297.26 25.8476 297.642 25.4039C299.398 23.3694 301.41 21.5806 303.621 20.0875C304.104 19.7612 304.348 19.1791 304.242 18.6051L302.163 7.33513L311.828 3.9973L317.147 14.1483C317.418 14.6654 317.969 14.9728 318.551 14.9313C321.211 14.742 323.898 14.9083 326.535 15.4255C327.11 15.5397 327.694 15.2995 328.027 14.8182L334.536 5.36599L343.731 9.83992L340.299 20.8272C340.126 21.3828 340.297 21.9892 340.736 22.3715C342.753 24.1277 344.525 26.1322 346.001 28.3298C346.327 28.8154 346.911 29.06 347.486 28.9545L358.821 26.8633L362.159 36.528Z" fill="black"/>
<path d="M412.511 26.4598C402.531 26.4598 394.413 34.5784 394.413 44.5577C394.413 54.5369 402.531 62.6555 412.511 62.6555C422.49 62.6555 430.609 54.5369 430.609 44.5577C430.609 34.5784 422.49 26.4598 412.511 26.4598ZM412.511 59.7207C404.15 59.7207 397.348 52.9189 397.348 44.5577C397.348 36.1965 404.15 29.3946 412.511 29.3946C420.872 29.3946 427.674 36.1965 427.674 44.5577C427.674 52.9189 420.872 59.7207 412.511 59.7207Z" fill="black"/>
<path d="M456.754 37.2216L445.046 35.45C444.402 33.2802 443.532 31.1731 442.452 29.1647L449.472 19.6433C449.903 19.0593 449.842 18.2483 449.329 17.7347L440.314 8.72001C439.8 8.20741 438.989 8.14577 438.405 8.57621L428.914 15.5727C426.896 14.4771 424.776 13.5947 422.588 12.9402L420.826 1.29501C420.718 0.57697 420.101 0.0467529 419.375 0.0467529H406.626C405.901 0.0467529 405.284 0.57697 405.176 1.29501L403.414 12.9402C401.226 13.5947 399.105 14.4781 397.088 15.5727L387.597 8.57621C387.013 8.14577 386.202 8.20643 385.688 8.72001L376.673 17.7347C376.161 18.2473 376.099 19.0593 376.53 19.6433L383.55 29.1647C382.47 31.1731 381.6 33.2802 380.956 35.45L369.248 37.2216C368.53 37.3302 368 37.9465 368 38.6724V51.4211C368 52.147 368.53 52.7633 369.247 52.8719L381.013 54.6523C381.664 56.7986 382.531 58.8774 383.603 60.8555L376.529 70.4502C376.098 71.0343 376.16 71.8452 376.672 72.3588L385.687 81.3735C386.2 81.8871 387.012 81.9477 387.596 81.5173L397.222 74.421C399.191 75.4775 401.257 76.3325 403.385 76.9713L405.175 88.7985C405.283 89.5165 405.9 90.0468 406.626 90.0468H419.374C420.1 90.0468 420.717 89.5165 420.825 88.7985L422.615 76.9713C424.743 76.3325 426.809 75.4775 428.778 74.421L438.404 81.5173C438.988 81.9477 439.799 81.8861 440.313 81.3735L449.329 72.3588C449.841 71.8462 449.903 71.0343 449.471 70.4502L442.397 60.8555C443.47 58.8774 444.337 56.7986 444.987 54.6523L456.753 52.8719C457.47 52.7633 458 52.147 458 51.4211V38.6724C458.001 37.9475 457.471 37.3302 456.754 37.2216ZM455.066 50.1591L443.617 51.8916C443.042 51.9787 442.572 52.3974 442.42 52.958C441.731 55.4965 440.71 57.9422 439.384 60.2284C439.091 60.7341 439.125 61.3651 439.472 61.8357L446.359 71.1771L439.129 78.4074L429.759 71.4999C429.289 71.1546 428.661 71.1184 428.158 71.4089C425.877 72.7188 423.444 73.7264 420.923 74.4024C420.361 74.554 419.94 75.0236 419.853 75.6008L418.112 87.1139H407.887L406.145 75.6008C406.058 75.0246 405.637 74.554 405.075 74.4024C402.554 73.7264 400.121 72.7188 397.841 71.4089C397.337 71.1194 396.708 71.1556 396.239 71.4999L386.869 78.4074L379.639 71.1771L386.526 61.8357C386.872 61.3651 386.907 60.7341 386.614 60.2284C385.288 57.9432 384.267 55.4965 383.578 52.958C383.426 52.3964 382.956 51.9787 382.381 51.8916L370.932 50.1591V39.9344L382.329 38.2107C382.907 38.1236 383.379 37.701 383.528 37.1356C384.206 34.5764 385.226 32.1034 386.56 29.7849C386.851 29.2801 386.814 28.6511 386.469 28.1825L379.639 18.9174L386.869 11.6871L396.107 18.4968C396.578 18.8431 397.209 18.8783 397.715 18.5838C400.039 17.2338 402.525 16.1998 405.101 15.5101C405.665 15.3595 406.086 14.8889 406.173 14.3118L407.887 2.98056H418.112L419.825 14.3118C419.913 14.8889 420.333 15.3595 420.897 15.5101C423.473 16.1998 425.958 17.2338 428.283 18.5838C428.788 18.8793 429.419 18.8431 429.891 18.4968L439.129 11.6871L446.359 18.9174L439.529 28.1825C439.184 28.6511 439.148 29.2801 439.438 29.7849C440.771 32.1034 441.792 34.5764 442.47 37.1356C442.619 37.701 443.091 38.1226 443.669 38.2107L455.066 39.9344V50.1591Z" fill="black"/>
<path d="M497.99 28.1104C488.595 31.4774 483.692 41.8591 487.059 51.2532C490.426 60.6473 500.807 65.5507 510.202 62.1837C519.596 58.8168 524.5 48.435 521.133 39.0409C517.766 29.6468 507.384 24.7434 497.99 28.1104ZM509.212 59.421C501.34 62.2421 492.642 58.134 489.821 50.263C487 42.3921 491.109 33.6941 498.98 30.8731C506.851 28.0521 515.549 32.1602 518.37 40.0311C521.191 47.902 517.083 56.6 509.212 59.421Z" fill="black"/>
<path d="M543.269 23.3141L531.65 25.5965C530.312 23.7712 528.782 22.081 527.088 20.5548L530.484 9.22311C530.692 8.5281 530.362 7.78514 529.706 7.47462L518.177 2.03037C517.521 1.7211 516.736 1.93671 516.332 2.53895L509.758 12.3275C507.489 11.9767 505.195 11.8616 502.915 11.9835L497.327 1.61558C496.983 0.976276 496.224 0.685088 495.54 0.929994L483.539 5.23137C482.856 5.47627 482.454 6.18334 482.594 6.89592L484.865 18.4528C483.026 19.8069 481.328 21.354 479.798 23.0651L468.503 19.6811C467.808 19.4729 467.065 19.8036 466.755 20.4604L461.31 31.988C461 32.6435 461.216 33.4287 461.818 33.8332L471.639 40.4278C471.3 42.6828 471.193 44.9599 471.319 47.2196L460.895 52.8375C460.255 53.182 459.964 53.9411 460.209 54.6244L464.51 66.6256C464.755 67.3089 465.462 67.7101 466.174 67.5704L477.851 65.2768C479.187 67.0778 480.705 68.7419 482.381 70.2426L478.959 81.6614C478.751 82.3564 479.083 83.0991 479.739 83.4096L491.266 88.8542C491.922 89.1647 492.707 88.9478 493.112 88.3456L499.779 78.4176C501.989 78.7481 504.222 78.8558 506.441 78.739L512.116 89.269C512.461 89.9083 513.22 90.1995 513.903 89.9546L525.904 85.6532C526.588 85.4083 526.989 84.7012 526.849 83.9886L524.543 72.2513C526.331 70.9317 527.988 69.4297 529.484 67.7711L540.94 71.2035C541.635 71.4116 542.378 71.08 542.689 70.4242L548.134 58.8962C548.444 58.2407 548.228 57.4556 547.625 57.0513L537.729 50.4058C538.071 48.182 538.186 45.9323 538.073 43.6927L548.549 38.047C549.187 37.7029 549.478 36.9438 549.233 36.2605L544.932 24.2593C544.688 23.5766 543.981 23.1744 543.269 23.3141ZM546.046 36.0624L535.853 41.556C535.341 41.8321 535.04 42.3846 535.085 42.9638C535.293 45.5859 535.157 48.2327 534.681 50.8321C534.575 51.4072 534.82 51.9897 535.306 52.3154L544.941 58.7855L540.574 68.0314L529.423 64.6902C528.864 64.5236 528.261 64.7014 527.884 65.1449C526.18 67.1473 524.229 68.9167 522.084 70.4037C521.606 70.7362 521.368 71.3201 521.481 71.8928L523.726 83.3184L514.101 86.7682L508.577 76.5177C508.301 76.0046 507.746 75.7036 507.165 75.7507C504.564 75.9649 501.934 75.8372 499.345 75.3735C498.773 75.2709 498.193 75.5172 497.868 75.9995L491.378 85.6633L482.132 81.2964L485.464 70.1791C485.631 69.6193 485.451 69.0134 485.004 68.6363C482.985 66.9323 481.199 64.9738 479.694 62.8164C479.361 62.3393 478.778 62.1045 478.207 62.2166L466.845 64.4484L463.395 54.8232L473.542 49.3553C474.057 49.0783 474.358 48.5214 474.308 47.9386C474.083 45.3008 474.208 42.6288 474.682 39.9961C474.786 39.4228 474.539 38.8429 474.056 38.5183L464.5 32.101L468.867 22.8551L479.861 26.1487C480.421 26.316 481.027 26.1362 481.404 25.688C483.136 23.6333 485.127 21.8212 487.32 20.3026C487.8 19.9707 488.037 19.3858 487.924 18.8131L485.715 7.56803L495.34 4.11822L500.777 14.2067C501.053 14.7207 501.608 15.0217 502.19 14.9734C504.848 14.7533 507.536 14.8883 510.18 15.3749C510.755 15.4824 511.337 15.2354 511.664 14.7503L518.063 5.22317L527.309 9.59006L524.005 20.6164C523.838 21.174 524.016 21.7784 524.46 22.1555C526.497 23.8882 528.292 25.872 529.794 28.0523C530.126 28.5341 530.712 28.7719 531.286 28.6597L542.596 26.4371L546.046 36.0624Z" fill="black"/>
<path d="M596.511 26.4598C586.531 26.4598 578.413 34.5784 578.413 44.5577C578.413 54.5369 586.531 62.6555 596.511 62.6555C606.49 62.6555 614.609 54.5369 614.609 44.5577C614.609 34.5784 606.49 26.4598 596.511 26.4598ZM596.511 59.7207C588.15 59.7207 581.348 52.9189 581.348 44.5577C581.348 36.1965 588.15 29.3946 596.511 29.3946C604.872 29.3946 611.674 36.1965 611.674 44.5577C611.674 52.9189 604.872 59.7207 596.511 59.7207Z" fill="black"/>
<path d="M640.754 37.2216L629.046 35.45C628.402 33.2802 627.532 31.1731 626.452 29.1647L633.472 19.6433C633.903 19.0593 633.842 18.2483 633.329 17.7347L624.314 8.72001C623.8 8.20741 622.989 8.14577 622.405 8.57621L612.914 15.5727C610.896 14.4771 608.776 13.5947 606.588 12.9402L604.826 1.29501C604.718 0.57697 604.101 0.0467529 603.375 0.0467529H590.626C589.901 0.0467529 589.284 0.57697 589.176 1.29501L587.414 12.9402C585.226 13.5947 583.105 14.4781 581.088 15.5727L571.597 8.57621C571.013 8.14577 570.202 8.20643 569.688 8.72001L560.673 17.7347C560.161 18.2473 560.099 19.0593 560.53 19.6433L567.55 29.1647C566.47 31.1731 565.6 33.2802 564.956 35.45L553.248 37.2216C552.53 37.3302 552 37.9465 552 38.6724V51.4211C552 52.147 552.53 52.7633 553.247 52.8719L565.013 54.6523C565.664 56.7986 566.531 58.8774 567.603 60.8555L560.529 70.4502C560.098 71.0343 560.16 71.8452 560.672 72.3588L569.687 81.3735C570.2 81.8871 571.012 81.9477 571.596 81.5173L581.222 74.421C583.191 75.4775 585.257 76.3325 587.385 76.9713L589.175 88.7985C589.283 89.5165 589.9 90.0468 590.626 90.0468H603.374C604.1 90.0468 604.717 89.5165 604.825 88.7985L606.615 76.9713C608.743 76.3325 610.809 75.4775 612.778 74.421L622.404 81.5173C622.988 81.9477 623.799 81.8861 624.313 81.3735L633.329 72.3588C633.841 71.8462 633.903 71.0343 633.471 70.4502L626.397 60.8555C627.47 58.8774 628.337 56.7986 628.987 54.6523L640.753 52.8719C641.47 52.7633 642 52.147 642 51.4211V38.6724C642.001 37.9475 641.471 37.3302 640.754 37.2216ZM639.066 50.1591L627.617 51.8916C627.042 51.9787 626.572 52.3974 626.42 52.958C625.731 55.4965 624.71 57.9422 623.384 60.2284C623.091 60.7341 623.125 61.3651 623.472 61.8357L630.359 71.1771L623.129 78.4074L613.759 71.4999C613.289 71.1546 612.661 71.1184 612.158 71.4089C609.877 72.7188 607.444 73.7264 604.923 74.4024C604.361 74.554 603.94 75.0236 603.853 75.6008L602.112 87.1139H591.887L590.145 75.6008C590.058 75.0246 589.637 74.554 589.075 74.4024C586.554 73.7264 584.121 72.7188 581.841 71.4089C581.337 71.1194 580.708 71.1556 580.239 71.4999L570.869 78.4074L563.639 71.1771L570.526 61.8357C570.872 61.3651 570.907 60.7341 570.614 60.2284C569.288 57.9432 568.267 55.4965 567.578 52.958C567.426 52.3964 566.956 51.9787 566.381 51.8916L554.932 50.1591V39.9344L566.329 38.2107C566.907 38.1236 567.379 37.701 567.528 37.1356C568.206 34.5764 569.226 32.1034 570.56 29.7849C570.851 29.2801 570.814 28.6511 570.469 28.1825L563.639 18.9174L570.869 11.6871L580.107 18.4968C580.578 18.8431 581.209 18.8783 581.715 18.5838C584.039 17.2338 586.525 16.1998 589.101 15.5101C589.665 15.3595 590.086 14.8889 590.173 14.3118L591.887 2.98056H602.112L603.825 14.3118C603.913 14.8889 604.333 15.3595 604.897 15.5101C607.473 16.1998 609.958 17.2338 612.283 18.5838C612.788 18.8793 613.419 18.8431 613.891 18.4968L623.129 11.6871L630.359 18.9174L623.529 28.1825C623.184 28.6511 623.148 29.2801 623.438 29.7849C624.771 32.1034 625.792 34.5764 626.47 37.1356C626.619 37.701 627.091 38.1226 627.669 38.2107L639.066 39.9344V50.1591Z" fill="black"/>
<g opacity="0.9">
<path d="M682.159 28.0359C672.733 31.3143 667.732 41.6494 671.01 51.0748C674.289 60.5002 684.624 65.501 694.05 62.2226C703.475 58.9441 708.476 48.609 705.198 39.1836C701.919 29.7582 691.584 24.7574 682.159 28.0359ZM693.085 59.4507C685.188 62.1975 676.529 58.0078 673.782 50.1106C671.036 42.2135 675.225 33.5546 683.123 30.8077C691.02 28.0609 699.679 32.2506 702.426 40.1478C705.173 48.0449 700.983 56.7038 693.085 59.4507Z" fill="black"/>
<path d="M727.481 23.6658L715.841 25.8388C714.52 24.001 713.007 22.2965 711.327 20.7544L714.829 9.45516C715.044 8.76214 714.72 8.0161 714.067 7.69942L702.591 2.14696C701.937 1.83153 701.151 2.03974 700.741 2.63815L694.075 12.3644C691.809 11.9923 689.516 11.8556 687.235 11.9561L681.746 1.53602C681.407 0.893504 680.651 0.595187 679.965 0.833653L667.924 5.02192C667.238 5.26039 666.83 5.96365 666.964 6.67751L669.125 18.2552C667.274 19.592 665.561 21.1231 664.016 22.8197L652.753 19.3295C652.059 19.1148 651.313 19.4386 650.997 20.0924L645.444 31.5683C645.128 32.2208 645.337 33.008 645.935 33.4182L655.694 40.1049C655.333 42.3566 655.204 44.6325 655.309 46.8933L644.833 52.4129C644.19 52.7514 643.892 53.5077 644.13 54.1933L648.319 66.2344C648.557 66.92 649.26 67.3279 649.973 67.1949L661.671 65.0112C662.99 66.8247 664.493 68.503 666.155 70.0194L662.625 81.4055C662.411 82.0985 662.735 82.8443 663.388 83.1609L674.864 88.7137C675.517 89.0304 676.304 88.8209 676.714 88.2225L683.475 78.3577C685.681 78.7089 687.913 78.8377 690.134 78.7417L695.709 89.3247C696.048 89.9672 696.804 90.2655 697.49 90.027L709.531 85.8388C710.216 85.6003 710.624 84.897 710.491 84.1832L708.296 72.4246C710.096 71.1219 711.767 69.6356 713.279 67.9911L724.702 71.5312C725.395 71.7458 726.141 71.4212 726.458 70.7683L732.012 59.2921C732.327 58.6395 732.119 57.8524 731.519 57.4425L721.686 50.7042C722.049 48.4837 722.186 46.2352 722.094 43.9946L732.622 38.4477C733.263 38.1096 733.562 37.3533 733.323 36.6677L729.135 24.6266C728.898 23.9417 728.194 23.5328 727.481 23.6658ZM730.138 36.4397L719.894 41.8372C719.379 42.1084 719.073 42.6581 719.113 43.2376C719.296 45.8616 719.135 48.507 718.634 51.1018C718.523 51.6759 718.763 52.2606 719.245 52.591L728.819 59.1514L724.365 68.3557L713.246 64.9098C712.689 64.7379 712.084 64.9101 711.704 65.35C709.98 67.3363 708.013 69.0873 705.854 70.554C705.373 70.882 705.13 71.4637 705.237 72.0374L707.375 83.4836L697.717 86.8427L692.29 76.5406C692.019 76.025 691.467 75.7188 690.886 75.7604C688.282 75.9501 685.653 75.7977 683.069 75.3097C682.498 75.2017 681.916 75.4425 681.587 75.9217L675.006 85.524L665.801 81.0704L669.237 69.9849C669.41 69.4267 669.236 68.8191 668.793 68.4379C666.79 66.715 665.021 64.7397 663.537 62.5682C663.208 62.088 662.628 61.8477 662.056 61.9545L650.673 64.0793L647.314 54.422L657.512 49.0498C658.03 48.7777 658.336 48.2236 658.292 47.6404C658.092 45.0006 658.242 42.3299 658.741 39.7018C658.849 39.1295 658.608 38.5473 658.128 38.2182L648.633 31.7112L653.087 22.5068L664.049 25.9037C664.608 26.0762 665.215 25.9022 665.597 25.4576C667.348 23.4193 669.356 21.626 671.563 20.1281C672.046 19.8007 672.289 19.218 672.181 18.6443L670.078 7.37895L679.735 4.01985L685.077 14.1591C685.348 14.6756 685.9 14.9818 686.482 14.939C689.142 14.7439 691.829 14.9042 694.468 15.4157C695.043 15.5286 695.627 15.2871 695.958 14.8051L702.446 5.33854L711.651 9.79222L708.243 20.787C708.071 21.343 708.244 21.949 708.684 22.3303C710.705 24.0821 712.481 26.0827 713.962 28.277C714.289 28.7619 714.873 29.0052 715.448 28.8985L726.779 26.7824L730.138 36.4397Z" fill="black"/>
</g>
<path d="M766.92 33.4581C759.962 40.6123 760.122 52.0927 767.276 59.0501C774.43 66.0074 785.911 65.8472 792.868 58.693C799.826 51.5388 799.666 40.0583 792.512 33.101C785.358 26.1437 773.877 26.3039 766.92 33.4581ZM790.764 56.6469C784.935 62.6411 775.316 62.7753 769.322 56.9461C763.328 51.1168 763.194 41.4984 769.024 35.5042C774.853 29.5099 784.471 29.3757 790.465 35.205C796.46 41.0342 796.594 50.6527 790.764 56.6469Z" fill="black"/>
<path d="M805.48 9.24348L796.047 16.4018C794.043 15.3505 791.926 14.5049 789.733 13.879L787.802 2.20816C787.683 1.4924 787.059 0.970486 786.334 0.979918L773.586 1.15849C772.86 1.16931 772.25 1.70774 772.152 2.42652L770.551 14.1086C768.359 14.7909 766.247 15.6962 764.253 16.8081L754.676 9.95235C754.086 9.52959 753.276 9.60177 752.77 10.1222L743.882 19.2618C743.376 19.7822 743.326 20.5937 743.765 21.1722L750.885 30.5541C749.829 32.5785 748.984 34.7149 748.362 36.9242L736.729 38.8506C736.014 38.9692 735.492 39.5929 735.502 40.3191L735.68 53.0667C735.69 53.7916 736.229 54.4019 736.948 54.5004L748.668 56.1059C749.355 58.2803 750.259 60.3729 751.366 62.3471L744.473 71.9757C744.05 72.5662 744.122 73.376 744.643 73.8821L753.782 82.7702C754.303 83.2763 755.114 83.3258 755.692 82.8874L765.171 75.6939C767.163 76.7239 769.259 77.5511 771.423 78.1622L773.37 89.9228C773.489 90.6385 774.113 91.1597 774.839 91.1503L787.586 90.9724C788.312 90.963 788.921 90.4232 789.02 89.7044L790.644 77.8559C792.774 77.1815 794.827 76.2964 796.769 75.2156L806.495 82.1786C807.086 82.6013 807.896 82.5292 808.402 82.0088L817.29 72.8691C817.796 72.3487 817.846 71.5372 817.407 70.9588L810.175 61.4304C811.201 59.4589 812.029 57.3816 812.644 55.234L824.442 53.2803C825.158 53.1617 825.679 52.5374 825.67 51.8118L825.493 39.0635C825.483 38.3386 824.944 37.7284 824.224 37.6305L812.414 36.0125C811.744 33.8648 810.858 31.7934 809.772 29.8313L816.699 20.1552C817.121 19.5654 817.049 18.7556 816.528 18.2496L807.389 9.36143C806.87 8.85535 806.058 8.80511 805.48 9.24348ZM813.578 19.473L806.838 28.8885C806.5 29.3616 806.473 29.9902 806.768 30.4904C808.108 32.7539 809.149 35.1912 809.864 37.7354C810.022 38.2984 810.498 38.7137 811.077 38.7928L822.576 40.3681L822.718 50.5925L811.234 52.494C810.659 52.5899 810.195 53.0149 810.052 53.5786C809.401 56.1267 808.427 58.5734 807.154 60.852C806.871 61.3609 806.914 61.9899 807.267 62.4547L814.307 71.7298L807.178 79.0601L797.711 72.2817C797.237 71.9424 796.606 71.9159 796.105 72.2134C793.863 73.5495 791.445 74.5912 788.916 75.3128C788.357 75.4721 787.944 75.9482 787.864 76.5243L786.284 88.0573L776.059 88.2L774.164 76.75C774.068 76.1737 773.64 75.7085 773.073 75.5663C770.511 74.9234 768.045 73.9499 765.745 72.6737C765.236 72.3917 764.609 72.4371 764.146 72.7887L754.922 79.7885L747.591 72.66L754.302 63.2878C754.642 62.8126 754.668 62.1799 754.367 61.6784C753.005 59.4082 751.943 56.9533 751.211 54.3803C751.052 53.8201 750.575 53.4075 749.999 53.3284L738.595 51.7656L738.452 41.5412L749.775 39.6662C750.351 39.5703 750.816 39.1425 750.958 38.5739C751.61 35.9671 752.602 33.4641 753.904 31.136C754.189 30.627 754.145 29.9973 753.792 29.5325L746.863 20.4039L753.992 13.0737L763.31 19.7448C763.785 20.0848 764.415 20.1113 764.916 19.8123C767.207 18.4459 769.681 17.3854 772.269 16.6602C772.834 16.5036 773.248 16.026 773.328 15.4466L774.887 4.07638L785.111 3.93372L786.991 15.2898C787.086 15.8641 787.512 16.3286 788.077 16.4722C790.668 17.1327 793.153 18.1254 795.46 19.4235C795.97 19.7104 796.601 19.6663 797.067 19.3132L806.248 12.3445L813.578 19.473Z" fill="black"/>
<path d="M865.243 28.4629C855.998 32.2219 851.535 42.8007 855.294 52.0449C859.053 61.2891 869.632 65.7516 878.876 61.9926C888.121 58.2337 892.584 47.6549 888.825 38.4107C885.066 29.1664 874.487 24.7039 865.243 28.4629ZM877.771 59.274C870.025 62.4235 861.162 58.6848 858.013 50.9394C854.864 43.194 858.602 34.3311 866.348 31.1816C874.094 28.0321 882.957 31.7708 886.106 39.5162C889.255 47.2615 885.517 56.1245 877.771 59.274Z" fill="black"/>
<path d="M910.28 21.7671L898.767 24.5361C897.354 22.7686 895.754 21.1442 893.997 19.6906L896.914 8.22614C897.093 7.52299 896.731 6.79459 896.063 6.51192L884.315 1.55723C883.647 1.27584 882.872 1.52422 882.493 2.14295L876.336 12.1993C874.055 11.9441 871.758 11.9256 869.485 12.1433L863.467 2.01947C863.096 1.39522 862.325 1.1362 861.653 1.40962L849.843 6.21181C849.17 6.48523 848.799 7.20855 848.969 7.91461L851.723 19.3658C849.943 20.796 848.311 22.4132 846.855 24.187L835.427 21.281C834.724 21.1022 833.996 21.4639 833.714 22.1331L828.758 33.8795C828.476 34.5474 828.725 35.3228 829.344 35.7016L839.433 41.8775C839.189 44.1447 839.178 46.4243 839.399 48.6767L829.22 54.728C828.596 55.099 828.337 55.8697 828.61 56.5421L833.412 68.3518C833.686 69.0242 834.409 69.3954 835.114 69.2259L846.684 66.4433C848.095 68.1865 849.682 69.7853 851.419 71.2142L848.481 82.7669C848.302 83.47 848.664 84.198 849.333 84.4807L861.079 89.4358C861.748 89.7184 862.523 89.4688 862.901 88.85L869.146 78.6504C871.367 78.8877 873.603 78.9015 875.816 78.6914L881.928 88.9735C882.299 89.5978 883.07 89.8568 883.742 89.5834L895.552 84.7812C896.225 84.5078 896.596 83.7844 896.426 83.0784L893.628 71.4483C895.36 70.0548 896.952 68.4845 898.377 66.7644L909.967 69.712C910.67 69.8908 911.398 69.5282 911.681 68.8599L916.637 57.1132C916.919 56.4452 916.67 55.6699 916.051 55.2914L905.884 49.0678C906.132 46.8316 906.153 44.5791 905.946 42.3462L916.175 36.265C916.798 35.8943 917.057 35.1237 916.784 34.4513L911.981 22.6416C911.709 21.9697 910.986 21.5976 910.28 21.7671ZM913.59 34.3874L903.637 40.3047C903.137 40.6021 902.86 41.1668 902.93 41.7435C903.248 44.3546 903.223 47.0048 902.856 49.6219C902.775 50.201 903.044 50.7726 903.543 51.0776L913.442 57.1368L909.467 66.5581L898.186 63.6888C897.621 63.5458 897.025 63.7489 896.668 64.2078C895.049 66.2801 893.175 68.13 891.094 69.7058C890.63 70.0581 890.417 70.6515 890.554 71.219L893.277 82.5401L883.806 86.3916L877.856 76.3823C877.558 75.8814 876.991 75.6039 876.413 75.6753C873.823 75.9988 871.19 75.9818 868.584 75.6273C868.008 75.5489 867.439 75.8193 867.135 76.3148L861.057 86.243L851.635 82.2687L854.496 71.0212C854.64 70.4548 854.435 69.8571 853.973 69.4991C851.884 67.8815 850.016 65.9998 848.422 63.9076C848.069 63.4449 847.477 63.2348 846.911 63.3709L835.653 66.0784L831.802 56.6067L841.71 50.7171C842.213 50.4186 842.49 49.8495 842.416 49.2694C842.08 46.6434 842.093 43.9685 842.456 41.3182C842.535 40.7411 842.264 40.1721 841.768 39.8681L831.95 33.8582L835.925 24.4369L847.047 27.2653C847.614 27.4089 848.212 27.2038 848.57 26.7402C850.214 24.6144 852.127 22.7202 854.254 21.1107C854.72 20.7589 854.932 20.1646 854.795 19.5971L852.115 8.45491L861.587 4.60344L867.443 14.4544C867.741 14.9563 868.308 15.2338 868.886 15.1611C871.533 14.8293 874.224 14.8512 876.886 15.2262C877.466 15.3094 878.037 15.0382 878.343 14.5398L884.336 4.75201L893.757 8.72627L890.92 19.8818C890.776 20.4459 890.98 21.0423 891.439 21.4004C893.547 23.0459 895.424 24.9524 897.016 27.0677C897.368 27.5351 897.963 27.7481 898.532 27.6119L909.739 24.9157L913.59 34.3874Z" fill="black"/>
<g opacity="0.9">
<path d="M964.511 26.4598C954.531 26.4598 946.413 34.5784 946.413 44.5577C946.413 54.5369 954.531 62.6555 964.511 62.6555C974.49 62.6555 982.609 54.5369 982.609 44.5577C982.609 34.5784 974.49 26.4598 964.511 26.4598ZM964.511 59.7207C956.15 59.7207 949.348 52.9189 949.348 44.5577C949.348 36.1965 956.15 29.3946 964.511 29.3946C972.872 29.3946 979.674 36.1965 979.674 44.5577C979.674 52.9189 972.872 59.7207 964.511 59.7207Z" fill="black"/>
<path d="M1008.75 37.2216L997.046 35.45C996.402 33.2802 995.532 31.1731 994.452 29.1647L1001.47 19.6433C1001.9 19.0593 1001.84 18.2483 1001.33 17.7347L992.314 8.72001C991.8 8.20741 990.989 8.14577 990.405 8.57621L980.914 15.5727C978.896 14.4771 976.776 13.5947 974.588 12.9402L972.826 1.29501C972.718 0.57697 972.101 0.0467529 971.375 0.0467529H958.626C957.901 0.0467529 957.284 0.57697 957.176 1.29501L955.414 12.9402C953.226 13.5947 951.105 14.4781 949.088 15.5727L939.597 8.57621C939.013 8.14577 938.202 8.20643 937.688 8.72001L928.673 17.7347C928.161 18.2473 928.099 19.0593 928.53 19.6433L935.55 29.1647C934.47 31.1731 933.6 33.2802 932.956 35.45L921.248 37.2216C920.53 37.3302 920 37.9465 920 38.6724V51.4211C920 52.147 920.53 52.7633 921.247 52.8719L933.013 54.6523C933.664 56.7986 934.531 58.8774 935.603 60.8555L928.529 70.4502C928.098 71.0343 928.16 71.8452 928.672 72.3588L937.687 81.3735C938.2 81.8871 939.012 81.9477 939.596 81.5173L949.222 74.421C951.191 75.4775 953.257 76.3325 955.385 76.9713L957.175 88.7985C957.283 89.5165 957.9 90.0468 958.626 90.0468H971.374C972.1 90.0468 972.717 89.5165 972.825 88.7985L974.615 76.9713C976.743 76.3325 978.809 75.4775 980.778 74.421L990.404 81.5173C990.988 81.9477 991.799 81.8861 992.313 81.3735L1001.33 72.3588C1001.84 71.8462 1001.9 71.0343 1001.47 70.4502L994.397 60.8555C995.47 58.8774 996.337 56.7986 996.987 54.6523L1008.75 52.8719C1009.47 52.7633 1010 52.147 1010 51.4211V38.6724C1010 37.9475 1009.47 37.3302 1008.75 37.2216ZM1007.07 50.1591L995.617 51.8916C995.042 51.9787 994.572 52.3974 994.42 52.958C993.731 55.4965 992.71 57.9422 991.384 60.2284C991.091 60.7341 991.125 61.3651 991.472 61.8357L998.359 71.1771L991.129 78.4074L981.759 71.4999C981.289 71.1546 980.661 71.1184 980.158 71.4089C977.877 72.7188 975.444 73.7264 972.923 74.4024C972.361 74.554 971.94 75.0236 971.853 75.6008L970.112 87.1139H959.887L958.145 75.6008C958.058 75.0246 957.637 74.554 957.075 74.4024C954.554 73.7264 952.121 72.7188 949.841 71.4089C949.337 71.1194 948.708 71.1556 948.239 71.4999L938.869 78.4074L931.639 71.1771L938.526 61.8357C938.872 61.3651 938.907 60.7341 938.614 60.2284C937.288 57.9432 936.267 55.4965 935.578 52.958C935.426 52.3964 934.956 51.9787 934.381 51.8916L922.932 50.1591V39.9344L934.329 38.2107C934.907 38.1236 935.379 37.701 935.528 37.1356C936.206 34.5764 937.226 32.1034 938.56 29.7849C938.851 29.2801 938.814 28.6511 938.469 28.1825L931.639 18.9174L938.869 11.6871L948.107 18.4968C948.578 18.8431 949.209 18.8783 949.715 18.5838C952.039 17.2338 954.525 16.1998 957.101 15.5101C957.665 15.3595 958.086 14.8889 958.173 14.3118L959.887 2.98056H970.112L971.825 14.3118C971.913 14.8889 972.333 15.3595 972.897 15.5101C975.473 16.1998 977.958 17.2338 980.283 18.5838C980.788 18.8793 981.419 18.8431 981.891 18.4968L991.129 11.6871L998.359 18.9174L991.529 28.1825C991.184 28.6511 991.148 29.2801 991.438 29.7849C992.771 32.1034 993.792 34.5764 994.47 37.1356C994.619 37.701 995.091 38.1226 995.669 38.2107L1007.07 39.9344V50.1591Z" fill="black"/>
</g>
<path d="M1048.24 28.9992C1039.23 33.287 1035.39 44.1063 1039.67 53.1175C1043.96 62.1286 1054.78 65.9714 1063.79 61.6836C1072.8 57.3959 1076.65 46.5766 1072.36 37.5654C1068.07 28.5542 1057.25 24.7115 1048.24 28.9992ZM1062.53 59.0335C1054.98 62.6261 1045.92 59.4066 1042.32 51.8565C1038.73 44.3064 1041.95 35.2418 1049.5 31.6493C1057.05 28.0568 1066.12 31.2763 1069.71 38.8264C1073.3 46.3765 1070.08 55.441 1062.53 59.0335Z" fill="black"/>
<path d="M1092.81 19.7079L1081.48 23.1386C1079.97 21.4559 1078.28 19.9268 1076.44 18.5773L1078.69 6.96324C1078.82 6.25093 1078.42 5.54468 1077.74 5.30117L1065.72 1.03472C1065.04 0.792514 1064.28 1.08531 1063.94 1.72493L1058.37 12.1207C1056.08 11.9981 1053.79 12.1126 1051.53 12.4614L1044.94 2.70291C1044.53 2.10118 1043.75 1.8872 1043.09 2.19909L1031.58 7.67678C1030.92 7.98866 1030.59 8.73225 1030.8 9.42729L1034.22 20.6998C1032.52 22.2307 1030.99 23.9396 1029.64 25.7948L1018.06 23.555C1017.35 23.4173 1016.64 23.8205 1016.4 24.5049L1012.13 36.5184C1011.89 37.2015 1012.18 37.9612 1012.82 38.3036L1023.25 43.8851C1023.14 46.1627 1023.26 48.4391 1023.61 50.675L1013.8 57.3052C1013.2 57.7118 1012.98 58.4961 1013.29 59.1516L1018.77 70.6636C1019.08 71.319 1019.83 71.6477 1020.52 71.4377L1031.91 67.9901C1033.42 69.6487 1035.1 71.153 1036.91 72.4789L1034.65 84.1823C1034.51 84.8946 1034.92 85.6004 1035.6 85.844L1047.61 90.1108C1048.3 90.3543 1049.06 90.0602 1049.4 89.4206L1055.04 78.8767C1057.27 78.985 1059.51 78.8694 1061.7 78.5316L1068.4 88.4426C1068.81 89.0444 1069.59 89.2583 1070.25 88.9465L1081.76 83.4688C1082.41 83.1569 1082.74 82.4133 1082.53 81.7183L1079.07 70.2696C1080.71 68.7782 1082.21 67.1184 1083.54 65.3187L1095.28 67.5906C1095.99 67.7283 1096.69 67.3242 1096.94 66.6406L1101.21 54.6267C1101.45 53.9436 1101.16 53.1839 1100.52 52.8419L1090.01 47.2173C1090.12 44.9705 1090.01 42.7205 1089.68 40.5033L1099.54 33.8403C1100.14 33.4342 1100.35 32.6498 1100.04 31.9944L1094.56 20.4824C1094.25 19.8274 1093.51 19.4978 1092.81 19.7079ZM1096.85 32.1154L1087.26 38.5989C1086.77 38.9247 1086.53 39.5045 1086.63 40.0763C1087.1 42.6645 1087.23 45.3117 1087.01 47.9457C1086.97 48.5285 1087.27 49.0835 1087.78 49.3592L1098.02 54.8353L1094.6 64.4709L1083.17 62.2594C1082.59 62.1493 1082.01 62.3864 1081.68 62.8653C1080.18 65.0279 1078.42 66.9831 1076.43 68.6767C1075.99 69.0553 1075.81 69.66 1075.98 70.2186L1079.36 81.3631L1070.12 85.7563L1063.61 76.1082C1063.28 75.6254 1062.7 75.3812 1062.12 75.486C1059.56 75.9587 1056.93 76.0942 1054.31 75.8912C1053.73 75.8462 1053.17 76.1491 1052.9 76.6614L1047.4 86.9247L1037.77 83.5024L1039.97 72.1081C1040.09 71.5344 1039.85 70.9495 1039.36 70.6189C1037.18 69.1249 1035.21 67.3545 1033.5 65.3581C1033.12 64.9166 1032.52 64.7411 1031.96 64.9097L1020.88 68.2643L1016.48 59.0314L1026.03 52.5781C1026.52 52.2511 1026.76 51.6669 1026.66 51.092C1026.17 48.4898 1026.03 45.8187 1026.23 43.1518C1026.28 42.5712 1025.98 42.0187 1025.46 41.744L1015.32 36.3124L1018.74 26.6768L1030.01 28.8568C1030.58 28.9673 1031.16 28.728 1031.5 28.2444C1033.01 26.027 1034.81 24.0253 1036.84 22.2954C1037.29 21.9172 1037.47 21.3116 1037.3 20.753L1033.98 9.7846L1043.21 5.39135L1049.63 14.8869C1049.95 15.3707 1050.53 15.6148 1051.11 15.5088C1053.73 15.0244 1056.42 14.8905 1059.1 15.1108C1059.68 15.1603 1060.24 14.8565 1060.51 14.3412L1065.93 4.22297L1075.56 7.64527L1073.38 18.9463C1073.27 19.5178 1073.5 20.1014 1073.98 20.4323C1076.18 21.953 1078.17 23.7477 1079.88 25.7673C1080.26 26.2136 1080.86 26.3917 1081.42 26.2228L1092.46 22.8825L1096.85 32.1154Z" fill="black"/>
<path d="M1148.51 26.4598C1138.53 26.4598 1130.41 34.5784 1130.41 44.5577C1130.41 54.5369 1138.53 62.6555 1148.51 62.6555C1158.49 62.6555 1166.61 54.5369 1166.61 44.5577C1166.61 34.5784 1158.49 26.4598 1148.51 26.4598ZM1148.51 59.7207C1140.15 59.7207 1133.35 52.9189 1133.35 44.5577C1133.35 36.1965 1140.15 29.3946 1148.51 29.3946C1156.87 29.3946 1163.67 36.1965 1163.67 44.5577C1163.67 52.9189 1156.87 59.7207 1148.51 59.7207Z" fill="black"/>
<path d="M1192.75 37.2216L1181.05 35.45C1180.4 33.2802 1179.53 31.1731 1178.45 29.1647L1185.47 19.6433C1185.9 19.0593 1185.84 18.2483 1185.33 17.7347L1176.31 8.72001C1175.8 8.20741 1174.99 8.14577 1174.41 8.57621L1164.91 15.5727C1162.9 14.4771 1160.78 13.5947 1158.59 12.9402L1156.83 1.29501C1156.72 0.57697 1156.1 0.0467529 1155.38 0.0467529H1142.63C1141.9 0.0467529 1141.28 0.57697 1141.18 1.29501L1139.41 12.9402C1137.23 13.5947 1135.11 14.4781 1133.09 15.5727L1123.6 8.57621C1123.01 8.14577 1122.2 8.20643 1121.69 8.72001L1112.67 17.7347C1112.16 18.2473 1112.1 19.0593 1112.53 19.6433L1119.55 29.1647C1118.47 31.1731 1117.6 33.2802 1116.96 35.45L1105.25 37.2216C1104.53 37.3302 1104 37.9465 1104 38.6724V51.4211C1104 52.147 1104.53 52.7633 1105.25 52.8719L1117.01 54.6523C1117.66 56.7986 1118.53 58.8774 1119.6 60.8555L1112.53 70.4502C1112.1 71.0343 1112.16 71.8452 1112.67 72.3588L1121.69 81.3735C1122.2 81.8871 1123.01 81.9477 1123.6 81.5173L1133.22 74.421C1135.19 75.4775 1137.26 76.3325 1139.39 76.9713L1141.17 88.7985C1141.28 89.5165 1141.9 90.0468 1142.63 90.0468H1155.37C1156.1 90.0468 1156.72 89.5165 1156.83 88.7985L1158.61 76.9713C1160.74 76.3325 1162.81 75.4775 1164.78 74.421L1174.4 81.5173C1174.99 81.9477 1175.8 81.8861 1176.31 81.3735L1185.33 72.3588C1185.84 71.8462 1185.9 71.0343 1185.47 70.4502L1178.4 60.8555C1179.47 58.8774 1180.34 56.7986 1180.99 54.6523L1192.75 52.8719C1193.47 52.7633 1194 52.147 1194 51.4211V38.6724C1194 37.9475 1193.47 37.3302 1192.75 37.2216ZM1191.07 50.1591L1179.62 51.8916C1179.04 51.9787 1178.57 52.3974 1178.42 52.958C1177.73 55.4965 1176.71 57.9422 1175.38 60.2284C1175.09 60.7341 1175.13 61.3651 1175.47 61.8357L1182.36 71.1771L1175.13 78.4074L1165.76 71.4999C1165.29 71.1546 1164.66 71.1184 1164.16 71.4089C1161.88 72.7188 1159.44 73.7264 1156.92 74.4024C1156.36 74.554 1155.94 75.0236 1155.85 75.6008L1154.11 87.1139H1143.89L1142.15 75.6008C1142.06 75.0246 1141.64 74.554 1141.07 74.4024C1138.55 73.7264 1136.12 72.7188 1133.84 71.4089C1133.34 71.1194 1132.71 71.1556 1132.24 71.4999L1122.87 78.4074L1115.64 71.1771L1122.53 61.8357C1122.87 61.3651 1122.91 60.7341 1122.61 60.2284C1121.29 57.9432 1120.27 55.4965 1119.58 52.958C1119.43 52.3964 1118.96 51.9787 1118.38 51.8916L1106.93 50.1591V39.9344L1118.33 38.2107C1118.91 38.1236 1119.38 37.701 1119.53 37.1356C1120.21 34.5764 1121.23 32.1034 1122.56 29.7849C1122.85 29.2801 1122.81 28.6511 1122.47 28.1825L1115.64 18.9174L1122.87 11.6871L1132.11 18.4968C1132.58 18.8431 1133.21 18.8783 1133.72 18.5838C1136.04 17.2338 1138.52 16.1998 1141.1 15.5101C1141.66 15.3595 1142.09 14.8889 1142.17 14.3118L1143.89 2.98056H1154.11L1155.83 14.3118C1155.91 14.8889 1156.33 15.3595 1156.9 15.5101C1159.47 16.1998 1161.96 17.2338 1164.28 18.5838C1164.79 18.8793 1165.42 18.8431 1165.89 18.4968L1175.13 11.6871L1182.36 18.9174L1175.53 28.1825C1175.18 28.6511 1175.15 29.2801 1175.44 29.7849C1176.77 32.1034 1177.79 34.5764 1178.47 37.1356C1178.62 37.701 1179.09 38.1226 1179.67 38.2107L1191.07 39.9344V50.1591Z" fill="black"/>
</g>
<defs>
<clipPath id="clip0_167_22">
<rect width="1196" height="92" fill="white"/>
</clipPath>
</defs>
</svg>
