<svg xmlns="http://www.w3.org/2000/svg" fill="none" viewBox="0 0 54 49"><path fill="#000" fill-rule="evenodd" d="M9.52397 3H0V0h11.916l1.3354 5.84688 40.3088.57147L46.1846 30.89H17.1012c-.0071.0002-.0244.0009-.0502.0027-.0521.0036-.136.0115-.2404.0284-.2161.0349-.4805.102-.7261.2211-.2407.1167-.4291.2661-.5596.4559-.1225.1782-.2549.479-.2549 1.0119v.0165l-.0004.0166c-.0051.2308.0367.4603.1227.6746s.2145.409.3778.5722c.1632.1633.3579.2918.5722.3778.2143.086.4438.1278.6746.1227l.0166-.0004H47.11v3H17.0649c-.6297.0115-1.2554-.1035-1.84-.3381-.5903-.2369-1.1264-.5909-1.5762-1.0406-.4497-.4498-.8037-.9859-1.0406-1.5762-.2348-.585-.3497-1.2111-.3381-1.8412.0028-1.07.2851-1.9713.7826-2.6951.492-.7158 1.1336-1.1702 1.7229-1.456.173-.0839.3444-.1547.5105-.2146L9.52397 3ZM18.286 27.89h25.6694l5.5844-18.52835-35.6009-.50472L18.286 27.89ZM20.3298 41.12c-1.1211 0-2.03.9089-2.03 2.03 0 1.1211.9089 2.03 2.03 2.03 1.1211 0 2.03-.9089 2.03-2.03 0-1.1211-.9089-2.03-2.03-2.03Zm-5.03 2.03c0-2.778 2.252-5.03 5.03-5.03 2.778 0 5.03 2.252 5.03 5.03 0 2.778-2.252 5.03-5.03 5.03-2.778 0-5.03-2.252-5.03-5.03ZM41.4199 41.12c-1.1211 0-2.03.9089-2.03 2.03 0 1.1211.9089 2.03 2.03 2.03 1.1211 0 2.03-.9089 2.03-2.03 0-1.1211-.9089-2.03-2.03-2.03Zm-5.03 2.03c0-2.778 2.252-5.03 5.03-5.03 2.778 0 5.03 2.252 5.03 5.03 0 2.778-2.252 5.03-5.03 5.03-2.778 0-5.03-2.252-5.03-5.03Z" clip-rule="evenodd"/></svg>