<svg xmlns="http://www.w3.org/2000/svg" viewBox="0 0 1454 1024"><path d="M1025.025 671.521c-13.329-39.751-67.063-139.538-109.303-195.688-9.134-12.24-5.72-18.523-.835-22.482 4.867-3.959 20.593-17.542 39.188-38.825 18.795-21.483 23.317-45.78 10.024-80.919-13.22-34.812-56.894-117.547-66.065-144.968-10.514-31.598-11.568-45.671-5.23-62.887 7.464-20.284 18.359-21.138 26.568-21.011 4.413.091 7.718 4.74 7.736 6.864.218 8.935.672 19.976 9.389 43.075 13.928 36.773 49.648 60.798 60.926 65.647 7.845 3.396 9.261-2.688 8.571-5.629-.726-2.906-12.349-48.486-21.083-82.735-9.116-35.902-13.711-43.692-21.828-51.301-12.93-12.276-32.597-18.85-49.231-18.214-37.1 1.453-53.498 37.3-55.532 40.623-1.761 2.978-2.452 5.067-6.229 2.452-10.605-7.409-41.586-33.287-44.437-49.485-1.671-9.588-3.341-10.914-12.911-14.637-37.227-14.528-69.479-27.294-105.18-33.595-14.31-2.524-15.072-3.759-31.779-.654-28.365 5.303-45.762 11.84-67.063 23.008-11.749 6.229-13.111 10.405-15.399 13.347-1.761 2.324-3.668 5.103-7.918 6.483-7.082 2.306-33.396 12.112-42.421 17.361-5.629 3.269-8.698 6.719-5.811 13.075 5.048 11.223 20.193 34.612 26.804 40.496 4.013 3.541 14.074 5.993 16.471 6.501 2.379.581 4.068 1.271 4.958-.508.981-1.961 1.344-4.812 6.065-8.117 7.064-4.958 20.193-8.39 27.185-9.007 5.357-.454 8.626-.617 11.386 1.362 2.742 2.016 9.08 8.771 11.277 15.563s.817 9.334-2.978 10.932c-3.814 1.598-15.218 4.177-28.438 5.248-13.166 1.071-16.925-2.579-17.851-3.396-.69-.745-2.433-1.87-3.777-.091-2.215 3.087-5.539 5.085-10.696 7.645-2.924 1.416-4.485 4.522-1.707 9.37 8.39 14.51 19.449 30.817 29.709 33.922 8.172 2.542 12.548-.127 21.737-6.683 8.208-5.938 13.547-5.902 15.799-4.249 2.47 1.852 7.427 6.047 6.156 10.242-2.179 7.282-16.87 24.661-19.685 28.238-2.651 3.378-5.157 5.194-9.897 2.924-6.955-3.323-112.372-58.02-126.464-63.504-15.345-5.902-25.423-7.336-40.532-8.027-12.221-.545-28.529.636-38.734 2.488-7.445 1.38-11.677 4.903-18.614 11.313-9.552 8.826-19.631 20.103-20.575 29.509-.69 6.774 6.846 20.575 7.663 21.537.817 1.035 2.215 2.942 6.301 2.488 4.159-.454 14.582-5.884 27.04-3.723 11.277 1.961 12.421 10.823 13.002 17.615.091 1.162 1.507 3.795 4.703 3.741 4.485-.054 11.513.091 19.631 3.977 10.006 4.74 29.8 20.085 32.851 23.48 2.47 2.778 2.306 5.284-2.397 5.738-25.151 2.234-63.413 9.697-81.101 15.508-12.566 4.104-27.385 9.752-32.615 18.85-5.938 10.315-13.456 26.858-15.581 38.68-2.161 11.749 10.424 26.331 13.783 29.582 2.27 2.197 3.814 3.577 7.827 1.38 6.138-3.523 21.011-12.694 35.248-13.547 8.644-.49 12.094 7.645 14.165 10.623 2.088 2.942 4.086.908 11.822-1.18 13.711-3.686 90.199-2.288 117.202-1.017 12.349.527 29.528 2.361 42.167 9.334 12.566 6.919 35.32 28.402 35.32 28.402s-30.218 50.665-46.489 80.701c-15.072 27.748-26.059 48.595-31.489 60.671-4.994 11.041-9.062 26.695-8.172 39.025 1.362 18.051 1.834 27.312 1.616 35.484-.236 7.191-6.937 7.972-16.434 10.315-13.111 3.341-39.243 5.738-60.417 10.95-19.249 4.794-26.422 9.334-29.909 24.207-2.688 11.586-6.665 40.369-7.137 53.716-.218 5.375-.309 8.008 6.519 6.592 3.922-.763 15.254-2.397 29.673-3.45 17.869-1.362 37.209-1.09 52.154-1.126 27.512-.163 108.722 4.576 114.188 5.121 6.937.69 8.335-.163 7.881-5.012-.672-6.392-1.834-26.804-2.125-38.971-.345-12.221-2.179-24.588 8.826-36.465 10.95-11.913 93.722-104.2 98.298-108.94 4.013-4.013 6.701-8.299 12.839-2.669 6.229 5.72 74.364 54.842 88.219 64.884 13.838 10.042 26.713 13.456 42.475 13.674 11.241.2 14.382 19.812 4.812 21.664-9.824 1.87-24.77 4.958-35.23 7.336-16.126 3.777-21.065 9.025-25.914 19.903-4.159 9.171-8.717 54.261-8.862 58.165-.127 2.797-.291 6.864 4.14 5.938 19.885-4.031 51.41-5.175 85.132-4.122 38.698 1.199 76.289 4.395 81.555 4.703 5.702.4 6.247-.454 9.116-4.903 4.885-7.645 19.449-24.479 32.124-34.866 6.338-5.157 6.465-7.3 3.832-15.072zM876.352 398.89c-9.824 3.214-16.217.436-20.993-4.122-4.812-4.576-43.855-51.573-56.422-65.938-6.32-7.246-11.059-23.789 7.99-30.835 15.617-5.684 43.619-14.673 51.392-18.777 7.79-4.104 11.876-8.317 12.621-16.289.617-8.008.69-16.997.726-19.994.054-3.014 3.959-5.43 5.956-1.889 1.38 2.506 8.39 16.18 16.943 31.997 12.784 23.753 28.91 53.444 34.158 66.21 4.958 12.185 2.524 21.483-5.03 30.853-10.242 12.675-40.151 26.44-47.342 28.783z"/><path d="M916.28 69.771c-30.472-.145-61.343 35.175-55.459 87.838 3.65 32.251 8.571 46.943 18.123 67.79 4.758 10.278 56.767 109.339 59.182 119.817 3.232 15 .363 24.37-11.15 34.848-12.73 11.513-33.777 24.588-47.978 29.473-3.378 1.144-6.465 1.725-9.261 1.725-3.214 0-11.259-1.108-26.477-19.848l67.227 89.69c-8.589-11.477-13.02-20.139-11.459-27.73 1.544-7.5 13.801-15.672 27.857-26.767 14.128-10.95 29.745-24.806 36.9-43.529 2.088-5.339 2.996-10.859 2.996-16.652 0-17.887-8.662-38.135-19.104-60.108-13.438-28.474-51.537-90.635-63.123-134.2-2.815-10.696-4.104-20.302-4.104-28.856 0-24.697 10.514-40.351 23.371-45.69 6.156-2.47 11.695-3.323 16.271-3.323 7.082 0 12.004 1.979 14.001 3.014 3.596 2.052 4.14 6.356 4.14 9.752v.745c-.036.763-.109 2.597-.109 5.321 0 10.151 1.362 32.488 13.184 54.17 14.964 27.512 40.042 42.875 49.921 47.015.854.363-23.099-88.347-27.385-105.072-4.976-19.503-18.723-39.043-57.203-39.425-.036-.018-.091-.018-.145-.018s-.127 0-.218.018zM497.955 266.857c5.866 5.884-4.34 5.557-35.32 8.226-31.58 2.76-63.359 9.134-79.993 15.363-12.149 4.576-19.503 7.827-24.37 18.977 0 0-10.115 21.973-11.459 30.653-.672 4.122-.436 6.465 1.707 9.915 1.18 1.852 4.086-57.257 80.356-61.143 67.481-3.45 84.079-10.514 70.895-23.426l-1.816 1.435z"/><path d="M919.748 96.938c-4.122 0-9.08.745-14.673 3.069-10.623 4.304-20.393 17.651-20.847 40.369l.127 5.175s1.453-15.454 4.177-22.718c6.774-19.685 19.394-23.771 28.075-23.771 5.757 0 8.408 1.38 10.878 3.995 1.907 2.088 3.196 4.013 3.432 6.973.218 8.789.545 18.886 9.08 41.658.527 1.38 1.071 2.76 1.653 4.086-7.228-18.378-8.117-35.466-8.117-44.164-.018-2.797.127-6.047.127-6.065.036-6.646-7.264-8.608-13.819-8.608h-.091zM500.606 269.436c2.306 6.229-6.81 4.758-37.79 7.445-31.58 2.76-63.377 8.862-80.011 15.109-12.185 4.594-19.522 7.809-24.388 18.995 0 0-10.115 21.973-11.495 30.653-.636 4.086.381 6.483 2.542 9.915 3.232 5.103 5.303 6.211 10.024 3.487 3.832-2.179 20.702-11.749 31.743-11.949 10.097-.236 14.51 5.92 15.999 11.168.908 3.269 5.357 1.58 6.12 1.38 4.431-1.108 8.735-2.433 24.497-3.596 18.741-1.362 91.851-.726 118.673-.109 24.134.563 119.182 75.126 120.598 75.508l4.776-9.661c-32.288-26.676-152.232-121.797-181.251-150.144l-.036 1.798z"/><path d="M404.633 159.153c-5.956.745-10.024 1.035-16.289 6.882-6.174 5.738-16.907 13.547-21.065 21.483-1.598 3.014-2.397 5.103-1.979 7.827.617 3.886 2.433 7.954 3.487 9.225 1.126 1.362 2.651 1.998 5.811 1.126 6.392-1.725 17.76-3.214 24.643-3.033 4.903.091 11.967 1.326 15.2 5.03 4.34 5.048 4.05 9.207 4.177 11.386.018.944.363 2.778 2.452 3.087 4.304.599 8.989.599 13.983 1.725 14.019 3.069 32.905 15.036 50.52 31.235 34.122 31.507 76.543 78.631 117.22 111.119 20.593 16.362 54.334 36.882 65.484 48.05 2.052 2.07-2.397 3.614-5.775 1.889-1.544-.763-20.72-15.799-24.897-16.852-3.559-.872-7.264 0-10.914 5.103-31.906 44.073-68.625 118.056-83.589 153.122-3.505 8.335-6.519 18.795-6.065 28.238.472 9.479 1.471 28.383 1.634 37.264.091 8.68-2.034 12.185-12.367 13.838-18.959 2.924-61.071 10.496-71.803 13.129-8.081 1.943-14.855 5.629-17.978 15-4.485 13.583-8.099 34.485-8.426 39.57-.218 3.142.89 5.321 4.558 4.413 15.436-3.886 39.316-7.028 72.203-6.374 32.905.708 91.543 6.501 99.133 7.191 2.633.218 5.793.254 5.757-2.778-.073-3.505-.908-19.376-1.162-39.642-.2-20.248 17.433-35.103 41.876-60.435 24.497-25.423 83.571-83.661 85.804-85.695 1.471-1.471 3.051-2.887.073-5.793-4.14-3.959-22.99-23.408-25.133-25.641-1.071-1.199-3.487-4.213-2.542-5.248.872-1.071 3.142.654 6.047 3.051 11.422 9.28 136.306 109.848 145.005 113.752 8.898 3.886 14.31 5.048 22.282 6.447 5.993 1.09 11.241 9.951 12.094 16.543.872 6.61.472 15.363-8.735 17.633-9.171 2.288-31.852 6.501-39.842 8.698-8.027 2.215-13.42 5.811-16.834 15-3.45 9.261-7.936 34.394-8.027 36.537-.091 5.557 1.362 5.993 5.629 4.939 5.266-1.235 11.459-2.996 35.32-3.795 40.205-1.435 101.349 3.759 109.23 4.376 2.688.254 4.903-2.488 5.847-4.159 8.517-14.709 6.102-18.468 17.542-27.766 5.938-4.758 8.771-5.702 5.048-14.165-37.354-85.023-72.838-142.716-130.368-216.39-36.882-47.251-79.939-99.569-94.412-116.93l-173.57-99.297c-10.278-4.885-90.544-45.962-104.363-52.826-13.856-6.828-25.024-12.439-39.188-15.617-9.915-2.252-19.758-3.033-28.928-3.033-8.717 0-16.816.708-23.807 1.562zm193.49-81.41c-24.969 6.719-56.894 19.74-58.056 20.375-.672.436-.563 1.071-.218 1.834.291.672 3.632 6.447 3.632 6.447s1.671 3.922 6.501 6.628c4.776 2.706 9.479 3.832 10.678 4.122 1.253.254 1.816-.272 2.252-.926.363-.545 5.067-9.57 22.354-14.056 9.352-2.361 15.29-2.633 18.178-2.633 4.504.109 11.477 2.324 15.363 6.12 6.32 6.229 11.858 16.543 12.803 21.483 1.017 4.794.218 10.769-4.558 13.257-4.794 2.433-18.741 5.738-27.512 6.61-9.08.908-17.905.454-23.154-2.561-.817-.454-1.416-.545-2.215.091-1.979 1.653-3.178 2.996-7.046 5.303-.89.508-1.435 1.598-.599 3.269s11.786 19.848 18.432 24.733c6.592 4.939 10.115 2.724 18.014-1.653 7.936-4.376 13.293-9.734 21.501-9.461 8.335.218 15.399 7.3 16.689 15.526 1.562 10.006-4.849 16.525-8.753 22.7-3.814 6.047-11.64 15.054-15.672 20.103-5.121 6.465-14.891 4.485-14.891 4.485s46.234 23.499 72.838 36.864c10.533 5.339 27.076.381 38.299-20.629 2.615-4.885 19.249-40.078 23.408-50.556 4.177-10.442 10.079-22.046.581-42.003-9.534-19.885-39.061-56.676-50.811-70.786-6.174-7.373-13.42-11.895-29.001-12.73-2.016-.109-4.104-.163-6.265-.163-14.237 0-31.452 2.452-52.772 8.208z"/><path d="M599.413 148.311c-8.898.817-17.542.418-22.681-2.361-.799-.418-1.38-.49-2.161.073-1.961 1.544-3.123 2.778-6.919 4.903-.854.454-1.416 1.471-.563 3.014.799 1.544 10.696 18.16 17.415 22.917 6.719 4.849 10.297 2.669 18.341-1.616 8.063-4.286 13.511-9.516 21.846-9.261l1.671-23.789c-4.667 2.27-18.359 5.321-26.949 6.12zm-57.675-49.358c-.636.418-.545 1.707-.218 2.379.291.617 3.468 5.866 3.468 5.866s1.58 3.577 6.156 6.029c4.54 2.433 8.317 3.632 9.516 3.922 1.253.254 1.816-.272 2.252-.926.363-.545 5.067-9.57 22.354-14.056 9.352-2.361 15.29-2.633 18.178-2.633l-6.556-19.104c-23.735 6.12-54.061 17.942-55.151 18.523zm90.834 108.105c-3.795 6.029-11.658 15.054-15.672 20.085-5.121 6.465-12.566 3.65-12.566 3.65s43.747 22.246 70.35 35.611c10.533 5.339 26.459 1.707 37.681-19.322 2.615-4.867 19.267-40.078 23.39-50.538l-94.43-12.857c1.562 9.988-4.867 17.197-8.753 23.371zm-142.48 117.093c-11.168.636-37.481 3.069-44.981 4.758-7.282 1.725-19.358 11.55-20.956 13.257-2.742 2.869-2.688 5.284-.654 6.102 1.743.672 5.557.091 8.662-.163 9.207-.799 34.285-1.58 62.687-1.616 14.727-.018 30.762.145 43.42.309 13.166.182 22.681.345 23.335.291-10.95-11.913-20.248-26.386-23.934-26.568h-.309c-5.23 0-44.182 3.468-47.269 3.632z"/><path d="M423.288 348.768c-1.108-.418-1.816-1.416-1.798-2.579 0-1.326.763-2.815 2.27-4.395 1.707-1.798 13.674-11.604 21.247-13.42 7.591-1.707 33.831-4.122 45.054-4.758 3.069-.163 41.949-3.632 47.288-3.65.127 0 .236 0 .345.018 1.253.091 2.524 1.126 4.122 2.706 1.58 1.598 3.45 3.795 5.521 6.374 4.159 5.139 9.207 11.731 14.655 17.651l.781.835-1.144.091h-.599c-4.631 0-34.848-.617-62.16-.617h-4.013c-28.402.054-53.462.835-62.633 1.616-2.034.182-4.376.49-6.283.49-1.017 0-1.925-.091-2.651-.363zm2.651-.745c1.798 0 4.122-.291 6.174-.472 9.261-.799 34.322-1.562 62.741-1.616h4.013c26.241 0 55.169.563 61.488.617-7.899-8.753-14.855-18.614-19.322-23.081-1.507-1.562-2.797-2.397-3.396-2.397h-.291c-5.194 0-44.128 3.468-47.215 3.632-11.168.636-37.5 3.051-44.891 4.74-7.028 1.598-19.231 11.495-20.684 13.093-1.398 1.471-1.979 2.778-1.979 3.65.018.763.345 1.217 1.126 1.562.472.182 1.289.291 2.234.272z"/><path d="M593.347 39.553c-9.806 5.956-10.224 13.257-17.106 17.252-6.828 3.995-22.554 7.573-39.079 14.964-9.134 4.068-9.171 4.74-6.991 9.879.854 2.143 6.792 12.948 9.806 12.948 2.978.091 6.592-1.453 10.242-2.924 4.885-1.925 37.463-14.546 63.341-20.066 28.819-6.174 59.8-6.701 70.804 4.939 16.743 17.724 46.125 57.439 55.024 74.654 8.771 17.052 7.881 25.333 2.052 42.802-5.357 16.18-25.66 58.165-31.634 66.864-6.011 8.717-13.275 13.547-30.653 6.447-18.632-7.663-87.257-42.875-102.184-50.411-10.097-5.085-52.499-26.568-84.606-42.657-11.822-5.956-21.61-10.278-32.27-12.966-23.608-6.011-48.958-3.305-60.653-1.38-5.339.89-8.662 9.461-8.426 12.948.218 2.851 5.72 2.488 12.403 2.125 3.45-.2 7.209-.4 10.75-.145 8.353.581 36.955 3.668 53.462 10.369 17.433 7.046 104.708 54.061 126.736 65.901C762.251 342.457 834.09 401.258 963.841 619.3c5.793 9.752 8.589 21.701-.581 24.425-13.293 3.868-68.625 14.419-85.368 19.903-14.074 4.631-15.944 5.738-17.996 12.694-2.306 7.954-5.884 23.68-5.03 26.858.363 1.307-.745 2.996 2.107 2.996 15.563 0 71.404.054 114.424 4.122 5.194.545 5.484.418 8.753-4.54 3.759-5.775 18.65-22.808 28.438-30.054 4.104-3.051 1.344-8.735.672-10.587-12.294-30.962-47.033-98.135-94.593-167.995-46.688-68.734-125.828-161.802-136.76-177.256-10.696-15.163-14.891-32.215 7.409-39.243 14.564-4.631 49.63-11.895 63.976-15.908 13.965-3.832 14.982-8.353 16.144-19.158 1.18-11.677-1.998-68.371-9.025-102.148-1.471-7.01-6.174-12.857-11.804-16.852-4.994-3.468-24.243-20.266-34.885-32.415-12.24-13.965-17.796-27.13-19.794-37.264 0 0-.345-2.161-2.742-4.431-.89-.944-1.58-1.398-3.087-2.27-20.974-12.911-95.12-33.178-110.247-34.485-.799-.073-1.761-.109-2.869-.109-13.148-.018-46.761 5.43-77.632 23.971z"/><path d="M394.808 175.896c5.194 0 17.306-.381 25.423.508 15.635 1.725 35.357 6.047 47.778 10.841 17.597 6.846 100.277 56.131 121.651 68.08 64.394 36.501 113.352 70.06 159.296 107.069 70.241 56.585 130.876 122.196 206.893 255.324 2.996 5.157 4.594 9.116 4.594 13.947.272 7.427-6.12 10.115-8.281 10.696-13.093 3.941-66.755 16.035-82.644 21.519-13.493 4.758-15.999 7.754-17.924 14.001-.708 2.615-2.996 15.272-5.666 18.65-2.651 3.45-8.844 4.159-15.418 4.159-4.05 0-6.065.236-5.648-4.268.381-4.485 3.051-16.671 4.576-23.662 1.507-7.028 4.431-12.294 10.823-16.144 6.392-3.904 28.638-7.5 41.168-10.569 12.476-3.069 13.184-8.88 12.948-18.305 0 9.988-3.468 12.421-16.035 15.236-12.748 2.833-34.158 5.593-41.204 10.424-6.846 4.649-9.497 11.15-10.769 16.289-4.268 17.796-7.191 30.817-6.701 35.193.418 3.886 1.961 4.431 6.301 3.941 4.322-.49 15.109-2.016 31.289-2.615 4.794 0 4.467-5.829 4.413-12.258 0-2.324.109-9.261 1.307-12.657 1.199-3.36 3.777-6.483 7.863-7.736 8.989-2.797 58.855-16.253 84.188-23.807 11.096-3.305 15.744-6.828 14.727-16.925-.89-8.88-9.007-22.046-23.444-44.636-14.528-22.772-32.778-53.861-57.076-88.256-43.147-61.089-85.623-108.776-138.394-150.525-38.989-30.817-79.866-55.532-109.866-73.092-30-17.579-156.645-86.857-176.294-93.014-17.851-5.593-32.034-7.427-44.727-8.717-8.644-.872-15.853-.236-23.517-.236-7.264 0-4.703-5.884-3.686-8.226-.763 1.671-5.103 9.77 2.052 9.77z"/><path d="M625.599 404.307c-4.849 5.866-29.691 45.308-49.848 82.172-14.582 26.695-32.052 64.539-35.448 73.71-3.105 8.353-3.668 16.035-3.378 25.442.309 9.352 1.87 24.552 2.397 35.484.545 10.46-2.125 15.091-13.02 17.07-9.243 1.653-58.347 9.897-70.441 12.839-12.131 2.942-15.926 8.953-18.287 17.833-2.397 8.862-5.866 25.66-6.011 29.509-.091 3.741.381 4.485 3.886 4.013 3.487-.49 10.914-1.144 13.928-1.362 3.16-.218 2.524-2.561 3.468-5.884.89-2.978 1.525-7.99 3.341-15.708 1.798-7.7 4.231-13.692 14.891-16.834 10.678-3.16 58.982-10.932 67.154-13.166 8.154-2.27 13.384-5.775 14.273-13.947.926-8.099-.745-25.423-.981-39.497-.218-14.764-.4-21.338 7.899-37.3 16.035-30.617 65.829-103.11 99.442-145.077 0 0-3.16-2.343-7.155-5.248-4.958-3.632-11.241-8.117-14.709-9.225-1.071-.327-2.052-.49-2.96-.49-3.123 0-5.412 1.943-8.444 5.666zm-6.229 211.796c-9.062 19.921-11.64 31.271-11.64 41.15 0 8.589.872 11.622.872 11.622-.436-8.698 2.797-16.652 8.317-24.624 7.427-10.678 18.904-21.574 32.978-36.192 24.643-25.569 84.733-84.388 86.894-86.512 1.344-1.362 2.96-3.269-.363-6.483-5.956-5.702-9.08-9.37-18.468-18.777-5.72-5.738-9.697-9.207-9.479-11.204-.218 0-67.191 75.308-89.109 131.022zM395.68 175.896l555.303 466.829c5.648-1.235 9.134-5.339 9.407-9.334.327-4.558-.581-8.717-3.596-13.965-77.269-134.999-135.126-198.031-205.567-254.943-12.185-9.861-24.515-19.685-37.372-29.219-35.665-26.44-74.836-51.864-122.251-78.831-13.602-7.627-51.937-30.218-82.644-47.578-17.706-10.006-32.887-18.269-39.297-20.92-12.312-5.157-31.852-9.352-47.778-11.332-5.103-.636-10.46-.781-16.053-.781-3.287 0-6.683.054-10.151.073zM787.637 45.165c1.489.89 2.887 1.78 3.959 2.906 3.723 3.505 4.558 6.955 4.667 7.7 1.834 9.116 6.882 21.356 18.468 34.558 9.97 11.495 30.563 28.511 34.866 31.525 2.742 1.852 5.448 3.723 7.736 6.283 1.326-6.901 3.505-14.51 6.592-21.955-.508.799-.999 1.87-1.925 3.051-1.035 1.416-3.123 3.232-6.192 3.378h-.327c-2.633-.018-4.558-1.144-6.138-2.252-11.132-8.299-42.33-32.56-46.815-53.135-2.815-9.643.726-5.248-9.298-10.315-2.797-1.108-5.484-2.197-8.244-3.214.944.49 1.852.981 2.651 1.471zm64.83 225.306c-14.673 4.031-50.847 11.404-64.794 15.744-10.387 3.759-11.713 7.064-12.04 12.258v.054c0 4.812 2.215 12.312 6.882 18.741 5.393 7.718 31.58 37.463 60.744 74.146 3.378 4.086 4.74 5.648 7.554 8.499-1.071-1.398-42.276-53.535-54.915-67.935-3.596-4.231-7.718-9.897-7.772-17.342-.036-7.409 5.648-17.978 17.379-22.028 15.672-5.72 44.182-14.964 50.665-18.486 6.301-3.632 8.19-5.212 9.116-9.516-3.251 2.633-7.464 4.358-12.821 5.866zM916.48 68.99c-27.839.654-46.598 24.298-52.027 46.398 5.648-19.758 23.626-43.093 52.154-43.093 36.283 0 51.41 13.711 56.495 34.14-6.32-28.129-30.417-37.463-54.443-37.463-.726 0-1.453 0-2.179.018z"/><path d="M654.491 611.073c-28.129 28.765-40.877 37.699-40.314 55.587.345 10.533 1.18 36.519 1.217 40.387 0 2.633.254 5.157-4.195 7.482-2.179 1.18-5.975 1.18-7.899 1.18-7.663 0-81.755-7.228-107.759-7.228s-48.305 2.887-61.706 6.247c-2.197.508-7.809.163-10.079-3.196-1.199-1.743-1.598-3.523-1.707-5.067-.563 5.067-1.035 11.005-1.035 13.547 4.667-.908 15.708-2.433 29.927-3.505 18.214-1.435 38.843-1.18 52.572-1.18 13.747 0 115.731 5.284 116.113 5.303-.672-7.845-1.689-26.495-1.979-38.135-.091-3.014-.091-2.978-.345-11.313 0-9.116 1.743-19.758 10.714-29.255 4.83-5.248 23.626-26.095 43.51-48.232-6.519 6.574-12.403 12.621-17.034 17.379zm85.277-85.205c2.887.418 5.375 2.052 7.609 4.104 5.284 4.885 74.019 54.606 87.675 64.448 5.829 4.14 11.204 7.064 16.761 8.989-4.667-3.269-11.55-8.499-20.575-15.436-13.148-10.169-29.927-23.408-46.815-36.791-14.255-11.313-28.547-22.736-40.714-32.56-.2 4.286-2.851 6.574-3.941 7.246zm164.835-71.404c-.726 1.78-1.598 4.195-1.598 7.645 0 4.268 1.38 10.188 6.864 18.105 3.287 4.649 6.465 9.243 9.516 13.656 47.76 70.314 81.046 138.304 93.631 170.047 2.76 7.682 2.197 11.477-.291 14.909 0 0-24.861 25.442-27.857 30.199-1.289 1.907-2.252 3.505-3.977 4.994-1.689 1.544-6.083 2.524-10.242 2.179-36.737-3.432-76.615-4.903-96.609-4.903-26.005 0-41.168 2.524-49.812 2.742-4.685.127-7.954-.962-8.517-1.743-.073-.127-.127-.236-.236-.345-.363 3.65-.599 6.392-.69 7.627 15.744-2.851 36.973-4.05 60.544-4.05 7.482 0 15.181.127 23.081.327 38.771 1.199 83.843 4.776 83.952 4.776.109-.054 21.628-27.475 34.957-38.535 2.361-1.87 3.269-1.725 3.269-3.559 0-1.253-.69-3.596-1.834-6.792-13.874-39.715-66.755-137.795-107.868-192.31-3.922-5.212-6.537-12.167-6.537-17.016-.018-6.301 3.269-10.896 6.646-13.511 2.833-2.343 9.824-8.299 18.977-17.397-14.201 10.66-24.152 19.122-25.369 22.954zM437.302 356.62c-15.654 1.144-23.262 3.033-24.788 3.414-1.525.345-2.452.236-2.524.236.381.617.981 1.798 1.271 2.27.4-.145.999-.381 2.161-.708 9.425-2.688 30.417-3.959 56.622-4.05 24.969 0 52.245.182 66.373.854 12.639.599 30.49 2.306 44.745 10.097 13.257 7.391 42.003 27.33 43.365 26.132-11.658-8.226-24.007-16.58-35.193-23.408-14.746-9.243-28.765-15.617-32.942-15.49-44.854-.708-44.854-.708-71.258-.708-20.557 0-40.078.781-47.832 1.362zm-19.976-128.043c.69.073 1.725.036 2.996.018 4.304-.109 11.422-.182 17.887 2.906 11.404 5.648 40.405 27.076 44.872 31.725 5.466 6.32 10.987 5.684 6.12 1.471-16.997-15.799-42.73-34.013-54.824-36.519-4.268-.981-10.242-1.453-15.127-1.653-3.705-.236-3.432-4.576-4.522-5.375.127.763.345 7.282 2.597 7.427zM390.65 347.649c-8.008.163-28.311 10.26-31.416 12.294-4.722 2.633-6.774 2.706-9.734-.545 1.362 3.287 3.65 5.266 5.72 4.576 2.088-.726 26.44-13.402 37.227-13.402 3.505 0 4.54.091 7.318 1.217-1.671-2.833-3.523-4.159-8.571-4.159-.182 0-.363 0-.545.018zM628.468 41.714c-5.521.89-23.19 5.648-25.042 6.283-1.907.599-2.924 1.217-4.177 3.269-1.253 1.998-1.798 6.41-1.271 8.081.527 1.761 2.306 3.069 5.03 1.925 3.741-1.562 25.623-9.606 29.473-10.823 1.671-.563 2.361-1.398 2.688-2.27.563-1.435.726-3.323.563-4.812-.218-1.707-1.307-2.215-2.887-2.215-1.217 0-2.742.309-4.376.563zm23.244 25.024c-45.326 1.18-84.842 20.375-107.033 29.455 15.817-5.43 54.243-21.174 97.099-23.735 23.553-1.435 32.996.563 41.622 10.242 12.53 13.801 41.694 52.972 52.082 72.856 4.104 7.881 5.92 14.945 5.375 20.974-.835 9.134-4.104 15.835-6.683 21.846-4.522 10.369-21.21 44.273-24.098 49.194-12.149 21.047-23.789 20.321-36.174 17.451.636.345 6.32 3.033 11.531 5.139 14.419 5.902 23.553-2.288 31.797-17.778 2.669-4.83 20.375-42.276 24.643-53.081 2.706-6.774 5.811-13.493 5.811-22.1 0-5.629-1.562-14.292-5.412-22.318-9.752-20.557-40.605-59.618-52.917-74.345-9.552-11.295-18.269-13.856-33.323-13.856-1.38 0-2.833.018-4.322.054z"/><path d="M598.25 492.109c-16.089 25.605-39.279 63.813-42.911 72.221-3.36 7.718-4.449 14.746-4.558 23.862 0 .091 1.326 41.331 1.326 41.567 0 5.103-.763 9.28-3.487 12.512-2.778 3.196-6.973 4.776-12.784 5.611-9.552 1.38-54.606 8.335-66.991 10.859-12.004 2.579-16.979 8.099-19.649 16.071-1.943 5.738-4.159 15.49-4.122 19.776 0 0-.163 2.343 0 2.343-.345 4.558 1.289 4.304 1.289 4.304s52.154-4.013 83.189-2.161c31.053 1.816 73.891 5.866 73.891 5.866s-45.09-8.426-75.762-10.333c-15.29-.908-33.087-.545-47.106-.163-14.092.363-24.407.745-24.588-.2-.272-1.271-1.053-3.214-.726-6.973.508-2.433 1.144-5.212 1.998-8.136 1.998-7.627 5.557-14.346 17.433-17.106 11.386-2.887 55.169-10.133 63.468-12.167 8.208-2.07 13.529-5.121 14.655-11.822.309-2.052.581-6.665.563-10.932 0-8.807-1.562-32.143-1.507-33.595.272-14.364.908-21.955 10.297-37.481 14.546-24.189 69.315-107.45 96.555-136.342 1.743-1.834 2.542-3.396 5.557-2.906-.581-.127-1.18-.309-1.78-.599-.472-.236-2.651-1.852-5.521-3.977-6.792 7.663-37.391 45.871-58.728 79.902zM7.531 893.293v121.542h33.468v-37.391h29.982c64.285 0 97.045-20.629 97.045-43.438 0-24.497-35.175-40.714-94.139-40.714H7.532zm33.468 71.041v-57.475H67.33c27.203 0 63.105 4.594 63.105 27.149 0 15.309-11.658 30.327-67.463 30.327H40.999zm697.118-459.497c2.452-.436 3.65-.2 3.777 1.144.109 1.398 0 2.252-.091 2.797-.145.726-.436 1.144-1.653 1.598-2.506.872-18.505 6.574-22.354 8.19-3.541 1.489-5.339.654-5.648-.817-.309-1.525.254-3.904.854-4.976.636-1.053 1.562-1.761 2.869-2.179 2.887-1.035 17.724-4.921 22.246-5.757z"/><path d="M358.87 1014.834v-15.29h-82.481c-17.724 0-22.827-8.027-22.827-21.61v-17.796h96.809v-15.254h-96.809v-36.337h101.185v-15.254H220.093v85.368c0 22.827 9.461 36.174 40.278 36.174h98.498z"/><path d="M573.059 893.293h-33.468v102.584c-9.225 3.196-21.574 6.083-39.552 6.083-25.714 0-51.192-6.537-51.192-29.128v-79.539h-33.468v81.973c0 33.504 33.468 43.42 70.35 43.42 35.175 0 63.813-7.282 87.33-17.197V893.294zm93.065 61.113c0-33.722 28.638-49.521 63.559-49.521 28.62 0 50.72 8.263 71.585 15.327v-20.393c-22.082-6.519-42.966-10.188-71.585-10.188-56.022 0-101.639 25.714-101.639 64.775 0 41.277 45.617 64.285 101.639 64.285 27.929 0 57.275-5.793 75.235-10.387v-48.177h-32.996v36.029c-12.131 4.104-20.884 7.282-39.788 7.282-38.099 0-66.01-18.904-66.01-49.031zm338.564 60.428v-15.29h-82.517c-17.687 0-22.79-8.027-22.79-21.61v-17.796h96.827v-15.254h-96.827v-36.337h101.185v-15.254H865.912v85.368c0 22.827 9.443 36.174 40.26 36.174h98.516zm145.239-125.207c-56.022 0-101.875 26.204-101.875 65.411 0 41.113 45.853 63.649 101.875 63.649 56.059 0 101.658-22.536 101.658-63.649 0-39.207-45.599-65.411-101.658-65.411zm0 115.495c-38.081 0-63.795-19.649-63.795-50.084 0-33.396 28.638-50.157 63.795-50.157 34.939 0 63.559 16.761 63.559 50.157 0 30.436-25.714 50.084-63.559 50.084zm129.127-94.394h66.718v104.109h33.486V910.728h66.718v-17.433h-166.923v17.433z"/></svg>