<svg width="94" height="68" viewBox="0 0 94 68" fill="none" xmlns="http://www.w3.org/2000/svg">
<path d="M88.4278 0H52.3384C49.5134 0 47.2154 2.324 47.2154 5.181V9.535H6.79595C3.16802 9.535 0.216431 12.52 0.216431 16.19V46.913C0.216431 50.581 3.16802 53.565 6.79595 53.565H13.1154V66.449C13.1154 67.043 13.4615 67.58 13.9984 67.821C14.1912 67.907 14.3949 67.949 14.5976 67.949C14.9595 67.949 15.3175 67.815 15.5953 67.559L30.8259 53.565H57.3299C60.9568 53.565 63.9084 50.581 63.9084 46.913V32.303H71.1L81.8552 42.184C82.1341 42.44 82.491 42.574 82.8529 42.574C83.0556 42.574 83.2603 42.532 83.4531 42.446C83.9901 42.206 84.3361 41.668 84.3361 41.074V32.303H88.4268C91.2499 32.303 93.5469 29.978 93.5469 27.121V5.181C93.5478 2.324 91.2518 0 88.4278 0ZM60.943 46.912C60.943 48.926 59.3223 50.564 57.3309 50.564H30.2534C29.8846 50.564 29.5296 50.703 29.2557 50.954L16.0808 63.059V52.064C16.0808 51.235 15.4173 50.564 14.5976 50.564H6.79496C4.80251 50.564 3.18186 48.926 3.18186 46.912V16.189C3.18186 14.174 4.80251 12.534 6.79496 12.534H48.6837C48.6887 12.534 48.6936 12.535 48.6986 12.535C48.7035 12.535 48.7085 12.534 48.7134 12.534H57.3309C59.3233 12.534 60.943 14.174 60.943 16.189V46.912ZM90.5814 27.121C90.5814 28.324 89.6154 29.303 88.4278 29.303H82.8539C82.0352 29.303 81.3707 29.974 81.3707 30.803V37.685L72.6712 29.693C72.3983 29.443 72.0423 29.303 71.6735 29.303H63.9084V16.19C63.9084 12.521 60.9568 9.535 57.3299 9.535H50.1818V5.181C50.1818 3.978 51.1498 3 52.3384 3H88.4278C89.6154 3 90.5814 3.978 90.5814 5.181V27.121Z" fill="#231F20"/>
</svg>
