<svg xmlns="http://www.w3.org/2000/svg"  viewBox="0 0 100 100" width="100px" height="100px"><path d="M19.5,98.001c-1.022,0-2.044-0.246-2.955-0.711C14.361,96.179,13,93.959,13,91.5v-75 C13,10.71,17.71,6,23.5,6h47C76.29,6,81,10.71,81,16.5v9.471l2.68,8.246h9.699c2.823,0,5.308,1.804,6.182,4.489 c0.871,2.691-0.078,5.61-2.36,7.27l-7.848,5.701l2.997,9.225c0.871,2.689-0.078,5.608-2.36,7.268 c-1.122,0.812-2.441,1.241-3.821,1.241s-2.699-0.429-3.816-1.238L81,67.19V91.5c0,3.478-3.003,6.5-5.733,6.5 c-1.387,0-2.712-0.432-3.831-1.249L47.767,79.537l-24.445,17.22C22.215,97.567,20.889,98.001,19.5,98.001z" opacity=".35"/><path fill="#f2f2f2" d="M17.5,96.001c-1.022,0-2.044-0.246-2.955-0.711C12.361,94.179,11,91.959,11,89.5v-75 C11,8.71,15.71,4,21.5,4h47C74.29,4,79,8.71,79,14.5v9.471l2.68,8.246h9.699c2.823,0,5.308,1.804,6.182,4.489 c0.871,2.691-0.078,5.61-2.36,7.27l-7.848,5.701l2.997,9.225c0.871,2.689-0.078,5.608-2.36,7.268 c-1.122,0.812-2.441,1.241-3.821,1.241s-2.699-0.429-3.816-1.238L79,65.19V89.5c0,2.459-1.361,4.679-3.552,5.793 C74.54,95.756,73.521,96,72.5,96c-1.387,0-2.712-0.432-3.831-1.249L45,77.537l-23.678,17.22 C20.215,95.567,18.889,96.001,17.5,96.001z"/><path fill="#f66" d="M21.5,10.5h47c2.209,0,4,1.791,4,4v75L45,69.5l-27.5,20v-75C17.5,12.291,19.291,10.5,21.5,10.5z"/><path fill="#ffc571" d="M73.382,51.219c-0.263-0.19-0.572-0.286-0.882-0.286s-0.619,0.096-0.882,0.286l-7.933,5.765 l3.03-9.326c0.2-0.618-0.02-1.296-0.545-1.678l-7.933-5.763h9.805c0.649,0,1.226-0.418,1.427-1.036l3.03-9.327l3.03,9.327 c0.201,0.618,0.777,1.036,1.427,1.036h9.805l-7.933,5.763c-0.525,0.382-0.745,1.06-0.545,1.678l3.03,9.326L73.382,51.219z"/><path d="M60.803,62.5c-0.31,0-0.619-0.096-0.882-0.286c-0.525-0.382-0.745-1.06-0.545-1.678l4.131-12.714l-10.815-7.857 c-0.525-0.382-0.745-1.06-0.545-1.678c0.201-0.618,0.777-1.036,1.427-1.036h13.369l4.131-12.715l2.854,0.928l-4.468,13.751 c-0.201,0.618-0.777,1.036-1.427,1.036H58.19l7.962,5.784c0.525,0.382,0.745,1.06,0.545,1.678l-3.042,9.36l7.963-5.785 l1.764,2.428l-11.697,8.498C61.422,62.404,61.112,62.5,60.803,62.5z" opacity=".35"/><path fill="none" stroke="#40396e" stroke-linejoin="round" stroke-miterlimit="10" stroke-width="3" d="M91.379,38.716H76.957 L72.5,25V14.5c0-2.209-1.791-4-4-4h-47c-2.209,0-4,1.791-4,4v75l27.5-20l27.5,20V52.433l11.668,8.477l-4.457-13.716L91.379,38.716z"/></svg>