<svg xmlns="http://www.w3.org/2000/svg" width="95.268" height="95.268" version="0.1">
<title>Главная дорога</title>
<path style="fill:#ffffff;" d="m 44.452 93.950 a 4.5 4.5 0 0 0 3.182 1.318 a 4.5 4.5 0 0 0 3.182 -1.318 l 43.134 -43.134 a 4.5 4.5 0 0 0 1.318 -3.182 a 4.5 4.5 0 0 0 -1.318 -3.182 l -43.134 -43.134 a 4.5 4.5 0 0 0 -3.182 -1.318 a 4.5 4.5 0 0 0 -3.182 1.318 l -43.134 43.134 a 4.5 4.5 0 0 0 -1.318 3.182 a 4.5 4.5 0 0 0 1.318 3.182 z"/>
<rect style="fill:none;stroke:#000000;stroke-width:0.2;" x="32.465" y="-34.9" width="69.8" height="69.8" rx="4.4" ry="4.4" transform="rotate(45)"/>
<rect style="fill:none;stroke:#000000;stroke-width:1.0;" x="33.865" y="-33.5" width="67.0" height="67.0" rx="3.0" ry="3.0" transform="rotate(45)"/>
<rect style="fill:#ffcc00;stroke:#000000;stroke-width:1.0;" x="45.490" y="-21.875" width="43.750" height="43.750" rx="4.5" ry="4.5" transform="rotate(45)"/>
</svg>

