<svg xmlns="http://www.w3.org/2000/svg" width="9.5268" height="9.5268" version="0.1">
<title>Главная дорога</title>
<path style="fill:#ffffff;" d="m 4.4452 9.3950 a 0.45 0.45 0 0 0 0.3182 0.1318 a 0.45 0.45 0 0 0 0.3182 -0.1318 l 4.3134 -4.3134 a 0.45 0.45 0 0 0 0.1318 -0.3182 a 0.45 0.45 0 0 0 -0.1318 -0.3182 l -4.3134 -4.3134 a 0.45 0.45 0 0 0 -0.3182 -0.1318 a 0.45 0.45 0 0 0 -0.3182 0.1318 l -4.3134 4.3134 a 0.45 0.45 0 0 0 -0.1318 0.3182 a 0.45 0.45 0 0 0 0.1318 0.3182 z"/>
<rect style="fill:none;stroke:#000000;stroke-width:0.02;" x="3.2465" y="-3.49" width="6.98" height="6.98" rx="0.44" ry="0.44" transform="rotate(45)"/>
<rect style="fill:none;stroke:#000000;stroke-width:0.10;" x="3.3865" y="-3.35" width="6.70" height="6.70" rx="0.30" ry="0.30" transform="rotate(45)"/>
<rect style="fill:#ffcc00;stroke:#000000;stroke-width:0.10;" x="4.5490" y="-2.1875" width="4.3750" height="4.3750" rx="0.45" ry="0.45" transform="rotate(45)"/>
</svg>

