<svg xmlns="http://www.w3.org/2000/svg" width="19.0536" height="19.0536" version="0.1">
<title>Главная дорога</title>
<path style="fill:#ffffff;" d="m 8.8904 18.79 a 0.9 0.9 0 0 0 0.6364 0.2636 a 0.9 0.9 0 0 0 0.6364 -0.2636 l 8.6268 -8.6268 a 0.9 0.9 0 0 0 0.2636 -0.6364 a 0.9 0.9 0 0 0 -0.2636 -0.6364 l -8.6268 -8.6268 a 0.9 0.9 0 0 0 -0.6364 -0.2636 a 0.9 0.9 0 0 0 -0.6364 0.2636 l -8.6268 8.6268 a 0.9 0.9 0 0 0 -0.2636 0.6364 a 0.9 0.9 0 0 0 0.2636 0.6364 z"/>
<rect style="fill:none;stroke:#000000;stroke-width:0.02;" x="6,493" y="-6.98" width="13.96" height="13.96" rx="0.88" ry="0.88" transform="rotate(45)"/>
<rect style="fill:none;stroke:#000000;stroke-width:0.2;" x="6.773" y="-6.7" width="13.4" height="13.4" rx="0.6" ry="0.6" transform="rotate(45)"/>
<rect style="fill:#ffcc00;stroke:#000000;stroke-width:0.2;" x="9.098" y="-4.375" width="8.75" height="8.75" rx="0.9" ry="0.9" transform="rotate(45)"/>
</svg>

