<?xml version="1.0" encoding="iso-8859-1"?>
<!-- Generator: Adobe Illustrator 21.1.0, SVG Export Plug-In . SVG Version: 6.00 Build 0)  -->
<svg version="1.1" id="Layer_1" xmlns="http://www.w3.org/2000/svg" xmlns:xlink="http://www.w3.org/1999/xlink" x="0px" y="0px"
	 viewBox="0 0 24 24" enable-background="new 0 0 24 24" xml:space="preserve">
<g>
	<path fill="#303C42" d="M19.5556641,14.8149414c-1.1020508,0-2.184082-0.1723633-3.2094727-0.5112305
		c-0.5112305-0.1743164-1.0932617-0.0390625-1.4267578,0.3007813l-2.0239258,1.527832
		c-2.347168-1.2529297-3.7929688-2.6982422-5.0288086-5.027832l1.4829102-1.9711914
		c0.3852539-0.3847656,0.5234375-0.9467773,0.3579102-1.4741211C9.3671875,6.628418,9.1943359,5.546875,9.1943359,4.4443359
		C9.1943359,3.6479492,8.5463867,3,7.75,3H4.4443359C3.6479492,3,3,3.6479492,3,4.4443359C3,13.5732422,10.4267578,21,19.5556641,21
		C20.3520508,21,21,20.3520508,21,19.5556641v-3.2963867C21,15.4628906,20.3520508,14.8149414,19.5556641,14.8149414z"/>
	<path fill="#57C1EF" d="M20,19.5556641C20,19.8007813,19.8007813,20,19.5556641,20C10.9780273,20,4,13.0219727,4,4.4443359
		C4,4.1992188,4.1992188,4,4.4443359,4H7.75c0.2451172,0,0.4443359,0.1992188,0.4443359,0.4443359
		c0,1.2094727,0.1899414,2.3964844,0.5615234,3.5209961C8.8076172,8.1313477,8.765625,8.3032227,8.5976563,8.4780273
		l-1.71875,2.2763672c-0.1152344,0.152832-0.1333008,0.3574219-0.046875,0.527832
		c1.402832,2.7573242,3.1074219,4.4619141,5.8842773,5.8847656c0.1689453,0.0883789,0.3759766,0.0698242,0.5292969-0.0458984
		l2.3286133-1.7641602c0.1176758-0.1176758,0.2939453-0.159668,0.453125-0.1054688
		c1.1323242,0.3740234,2.3193359,0.5634766,3.5283203,0.5634766C19.8007813,15.8149414,20,16.0141602,20,16.2592773V19.5556641z"/>
	<path opacity="0.1" fill="#010101" d="M19.5556641,15.8149414c-0.3543701,0-0.7059326-0.0213013-1.0556641-0.0537109v0.6504517
		c0,1.1973877-1.0488281,2.1226807-2.2383423,1.9854736c-3.203125-0.3694458-6.1035156-1.7265625-8.4139404-3.7432861
		C10.7014771,17.9221191,14.8861084,20,19.5556641,20C19.8007813,20,20,19.8007813,20,19.5556641v-3.2963867
		C20,16.0141602,19.8007813,15.8149414,19.5556641,15.8149414z"/>
	<linearGradient id="SVGID_1_" gradientUnits="userSpaceOnUse" x1="1.5870934" y1="7.1543207" x2="22.4052925" y2="16.8620071">
		<stop  offset="0" style="stop-color:#FFFFFF;stop-opacity:0.2"/>
		<stop  offset="1" style="stop-color:#FFFFFF;stop-opacity:0"/>
	</linearGradient>
	<path fill="url(#SVGID_1_)" d="M19.5556641,14.8149414c-1.1020508,0-2.184082-0.1723633-3.2094727-0.5112305
		c-0.5112305-0.1743164-1.0932617-0.0390625-1.4267578,0.3007813l-2.0239258,1.527832
		c-2.347168-1.2529297-3.7929688-2.6982422-5.0288086-5.027832l1.4829102-1.9711914
		c0.3852539-0.3847656,0.5234375-0.9467773,0.3579102-1.4741211C9.3671875,6.628418,9.1943359,5.546875,9.1943359,4.4443359
		C9.1943359,3.6479492,8.5463867,3,7.75,3H4.4443359C3.6479492,3,3,3.6479492,3,4.4443359C3,13.5732422,10.4267578,21,19.5556641,21
		C20.3520508,21,21,20.3520508,21,19.5556641v-3.2963867C21,15.4628906,20.3520508,14.8149414,19.5556641,14.8149414z"/>
</g>
<g>
</g>
<g>
</g>
<g>
</g>
<g>
</g>
<g>
</g>
<g>
</g>
<g>
</g>
<g>
</g>
<g>
</g>
<g>
</g>
<g>
</g>
<g>
</g>
<g>
</g>
<g>
</g>
<g>
</g>
</svg>
